<svg width="201" height="201" viewBox="0 0 201 201" fill="none" xmlns="http://www.w3.org/2000/svg">
<path d="M178.805 116.389C169.888 159.844 127.431 187.842 83.9759 178.925C40.5208 170.007 12.5225 127.551 21.44 84.0956C30.3576 40.6404 72.8141 12.6421 116.269 21.5596C159.724 30.4772 187.723 72.9337 178.805 116.389Z" fill="#7382B1"/>
<path d="M171.622 120.729C171.316 121.573 170.854 122.197 170.235 122.601C169.628 123.009 168.958 123.11 168.227 122.906C167.637 122.742 167.153 122.413 166.773 121.919C166.404 121.428 166.169 120.833 166.07 120.134C165.978 119.45 166.036 118.737 166.243 117.994C166.377 117.514 166.561 117.065 166.795 116.648C167.026 116.242 167.273 115.946 167.536 115.761C167.618 115.677 167.679 115.63 167.717 115.617C167.767 115.607 167.854 115.614 167.977 115.636L170.111 116.019C170.133 116.026 170.142 116.057 170.138 116.115C170.13 116.184 170.109 116.219 170.073 116.22C169.478 116.161 168.921 116.217 168.402 116.39C167.891 116.577 167.461 116.852 167.114 117.213C166.766 117.575 166.528 117.985 166.4 118.444C166.226 119.066 166.341 119.604 166.744 120.058C167.155 120.525 167.721 120.859 168.441 121.06C169.326 121.307 170.059 121.252 170.64 120.897C171.229 120.555 171.647 119.942 171.894 119.058C171.906 119.014 171.945 119.001 172.01 119.02C172.076 119.038 172.103 119.069 172.09 119.112C171.865 119.92 171.904 120.584 172.206 121.104C172.508 121.623 173.031 121.986 173.773 122.193C174.515 122.4 175.13 122.413 175.616 122.23C176.102 122.048 176.419 121.69 176.568 121.155C176.727 120.587 176.618 119.986 176.242 119.352C175.865 118.718 175.287 118.174 174.508 117.721C174.486 117.715 174.481 117.69 174.493 117.647C174.499 117.625 174.512 117.599 174.532 117.569C174.56 117.554 174.58 117.547 174.591 117.55L176.688 118.382C176.813 118.441 176.894 118.487 176.932 118.521C176.97 118.555 176.991 118.625 176.996 118.733C177.057 119.656 176.967 120.548 176.727 121.411C176.535 122.098 176.27 122.648 175.932 123.06C175.604 123.474 175.239 123.749 174.837 123.884C174.443 124.033 174.043 124.051 173.639 123.939C173.028 123.768 172.541 123.362 172.179 122.72C171.814 122.088 171.628 121.425 171.622 120.729Z" fill="#F8F4F0"/>
<path d="M161.096 132.754C161.074 132.806 161.031 132.818 160.969 132.791C160.907 132.764 160.887 132.724 160.909 132.672C160.995 132.475 161.143 132.162 161.354 131.735C161.564 131.307 161.712 130.995 161.798 130.797C161.911 130.538 162.034 130.226 162.167 129.864C162.3 129.502 162.409 129.222 162.495 129.024C162.513 128.982 162.553 128.975 162.615 129.002C162.678 129.029 162.7 129.064 162.682 129.105C162.551 129.407 162.487 129.639 162.491 129.801C162.5 129.978 162.583 130.1 162.739 130.168C162.895 130.236 163.198 130.263 163.649 130.249L167.796 130.049L169.022 127.227L166.847 124.854C166.593 124.583 166.342 124.394 166.093 124.285C165.729 124.127 165.397 124.138 165.097 124.316C164.797 124.495 164.545 124.818 164.342 125.286C164.319 125.337 164.277 125.35 164.215 125.323C164.152 125.296 164.132 125.256 164.155 125.204C164.236 125.017 164.364 124.751 164.538 124.407C164.731 124.021 164.89 123.683 165.017 123.392C165.139 123.111 165.271 122.779 165.413 122.396C165.536 122.054 165.646 121.774 165.74 121.556C165.763 121.504 165.806 121.491 165.868 121.519C165.93 121.546 165.95 121.585 165.928 121.637C165.801 121.928 165.752 122.197 165.781 122.444C165.809 122.692 165.928 122.972 166.138 123.286C166.358 123.604 166.703 124.019 167.172 124.532L173.261 131.164C173.283 131.198 173.279 131.252 173.247 131.324C173.215 131.397 173.182 131.432 173.146 131.429L163.784 131.901C162.877 131.94 162.232 132.018 161.847 132.135C161.469 132.267 161.218 132.473 161.096 132.754ZM169.337 127.568L168.267 130.031L171.448 129.875L169.337 127.568Z" fill="#F8F4F0"/>
<path d="M154.748 142.562C154.729 142.59 154.691 142.586 154.635 142.549C154.578 142.511 154.559 142.478 154.577 142.45C154.782 142.137 154.948 141.894 155.076 141.72L155.761 140.706L156.483 139.573C156.592 139.387 156.751 139.132 156.963 138.81C156.981 138.782 157.019 138.786 157.076 138.823C157.133 138.861 157.152 138.893 157.133 138.922C156.916 139.254 156.781 139.511 156.729 139.694C156.671 139.886 156.689 140.054 156.785 140.198C156.89 140.348 157.084 140.516 157.369 140.702L163.824 144.933C164.147 145.144 164.369 145.269 164.492 145.309C164.615 145.349 164.725 145.326 164.822 145.241C164.912 145.165 165.06 144.97 165.265 144.657L167.175 141.742C167.386 141.42 167.515 141.193 167.561 141.06C167.607 140.928 167.583 140.81 167.488 140.707C167.402 140.611 167.203 140.46 166.89 140.255L160.434 136.024C160.15 135.838 159.918 135.727 159.739 135.69C159.569 135.66 159.41 135.705 159.264 135.826C159.117 135.947 158.932 136.178 158.708 136.519C158.689 136.547 158.652 136.543 158.595 136.506C158.538 136.468 158.519 136.435 158.537 136.407C158.742 136.094 158.912 135.846 159.045 135.663L159.805 134.535L160.452 133.516C160.561 133.329 160.721 133.075 160.932 132.753C160.944 132.734 160.979 132.743 161.036 132.78C161.093 132.818 161.115 132.846 161.103 132.865C160.879 133.206 160.738 133.473 160.68 133.665C160.622 133.857 160.64 134.025 160.736 134.169C160.841 134.319 161.035 134.487 161.32 134.674L167.732 138.876C168.159 139.155 168.507 139.275 168.777 139.235C169.047 139.196 169.334 138.943 169.639 138.479C169.651 138.46 169.686 138.469 169.743 138.506C169.8 138.544 169.822 138.572 169.81 138.591C169.598 138.913 169.389 139.223 169.18 139.52C168.329 140.778 167.456 142.089 166.561 143.454C165.735 144.715 164.805 146.165 163.771 147.805L163.464 148.274C163.445 148.302 163.408 148.298 163.351 148.261C163.294 148.223 163.275 148.19 163.293 148.162C163.598 147.697 163.714 147.334 163.643 147.07C163.572 146.807 163.323 146.535 162.896 146.255L156.484 142.053C156.199 141.867 155.967 141.755 155.788 141.719C155.618 141.689 155.456 141.739 155.303 141.869C155.15 141.999 154.965 142.23 154.748 142.562Z" fill="#F8F4F0"/>
<path d="M146.914 151.082C146.891 151.107 146.854 151.097 146.804 151.05C146.754 151.004 146.741 150.969 146.764 150.944C147.026 150.661 147.242 150.436 147.412 150.269L148.268 149.37L149.237 148.298C149.367 148.141 149.548 147.938 149.779 147.688C149.802 147.663 149.838 147.674 149.888 147.72C149.938 147.766 149.952 147.802 149.929 147.827C149.636 148.143 149.445 148.391 149.356 148.571C149.266 148.75 149.257 148.919 149.327 149.077C149.397 149.235 149.561 149.433 149.819 149.672L154.683 154.176L154.091 145.959L153.642 145.543C153.393 145.312 153.183 145.164 153.012 145.098C152.849 145.04 152.681 145.063 152.509 145.165C152.329 145.277 152.092 145.49 151.8 145.806C151.784 145.823 151.752 145.808 151.702 145.762C151.652 145.716 151.635 145.684 151.65 145.668C151.912 145.385 152.12 145.168 152.275 145.018L153.246 143.994L154.077 143.072C154.215 142.906 154.415 142.682 154.676 142.4C154.692 142.383 154.724 142.398 154.774 142.444C154.824 142.49 154.841 142.522 154.826 142.538C154.549 142.838 154.366 143.077 154.276 143.257C154.187 143.437 154.177 143.606 154.248 143.763C154.326 143.929 154.49 144.127 154.74 144.358L160.515 149.706C160.764 149.937 160.97 150.081 161.133 150.139C161.295 150.197 161.463 150.175 161.635 150.072C161.816 149.977 162.041 149.784 162.311 149.493C162.326 149.476 162.359 149.491 162.409 149.537C162.459 149.583 162.476 149.615 162.461 149.631L161.836 150.281C161.465 150.648 161.18 150.94 160.979 151.156C160.71 151.447 160.399 151.8 160.046 152.214L159.446 152.887C159.43 152.903 159.398 152.889 159.348 152.842C159.298 152.796 159.281 152.765 159.296 152.748C159.581 152.44 159.768 152.189 159.857 151.993C159.938 151.805 159.943 151.625 159.872 151.451C159.802 151.293 159.642 151.099 159.392 150.868L154.565 146.398L155.145 154.604L155.569 154.996C155.819 155.227 156.025 155.372 156.187 155.43C156.358 155.495 156.538 155.477 156.726 155.373C156.907 155.278 157.14 155.076 157.425 154.769C157.448 154.744 157.485 154.754 157.534 154.801C157.584 154.847 157.598 154.882 157.575 154.907L157.008 155.495C156.621 155.878 156.286 156.224 156.001 156.532C155.793 156.756 155.52 157.067 155.183 157.465L154.56 158.163C154.537 158.188 154.5 158.177 154.45 158.131C154.4 158.085 154.387 158.049 154.41 158.024C154.687 157.725 154.866 157.481 154.948 157.294C155.029 157.122 155.035 156.958 154.965 156.8C154.894 156.642 154.735 156.448 154.485 156.217L148.71 150.869C148.461 150.638 148.25 150.49 148.079 150.424C147.917 150.366 147.753 150.384 147.588 150.479C147.416 150.582 147.191 150.783 146.914 151.082Z" fill="#F8F4F0"/>
<path d="M148.251 163.492C147.849 163.806 147.406 164.095 146.921 164.358C146.428 164.628 146.007 164.799 145.659 164.869C145.558 164.905 145.481 164.908 145.428 164.877C145.374 164.862 145.303 164.809 145.218 164.718L143.697 163.101C143.676 163.075 143.684 163.039 143.722 162.996C143.76 162.952 143.797 162.944 143.834 162.973C144.637 163.467 145.445 163.692 146.258 163.647C147.062 163.608 147.817 163.314 148.522 162.763C149.451 162.037 149.925 161.143 149.943 160.079C149.961 159.016 149.54 157.934 148.683 156.836C148.041 156.014 147.308 155.371 146.486 154.906C145.654 154.448 144.826 154.217 144.003 154.213C143.171 154.216 142.438 154.465 141.804 154.96C140.598 155.901 140.268 157.367 140.815 159.356C140.834 159.398 140.818 159.433 140.766 159.459C140.705 159.492 140.665 159.495 140.644 159.468L139.505 157.596C139.44 157.475 139.406 157.386 139.405 157.329C139.402 157.288 139.427 157.219 139.479 157.12C140.012 156.201 140.716 155.399 141.592 154.716C142.682 153.865 143.756 153.371 144.814 153.235C145.879 153.108 146.848 153.243 147.719 153.641C148.582 154.046 149.296 154.61 149.861 155.333C150.516 156.173 150.871 157.097 150.924 158.105C150.969 159.119 150.751 160.102 150.271 161.052C149.791 162.002 149.117 162.816 148.251 163.492Z" fill="#F8F4F0"/>
<path d="M128.48 163.24C128.43 163.268 128.389 163.251 128.356 163.192C128.324 163.132 128.332 163.089 128.382 163.061C128.57 162.958 128.879 162.801 129.307 162.591C129.735 162.382 130.043 162.225 130.231 162.121C130.48 161.985 130.767 161.814 131.094 161.608C131.421 161.402 131.678 161.248 131.867 161.144C131.907 161.122 131.943 161.141 131.976 161.2C132.008 161.26 132.005 161.301 131.965 161.323C131.677 161.481 131.485 161.625 131.389 161.756C131.288 161.902 131.279 162.05 131.361 162.198C131.443 162.347 131.666 162.554 132.032 162.819L135.435 165.195L138.131 163.712L137.86 160.504C137.825 160.135 137.742 159.832 137.611 159.594C137.42 159.246 137.151 159.051 136.804 159.009C136.458 158.967 136.061 159.069 135.614 159.315C135.565 159.342 135.523 159.326 135.491 159.266C135.458 159.207 135.466 159.163 135.516 159.136C135.695 159.038 135.958 158.905 136.307 158.74C136.695 158.552 137.028 158.381 137.306 158.228C137.574 158.081 137.882 157.899 138.228 157.682C138.535 157.488 138.793 157.333 139.001 157.218C139.051 157.191 139.092 157.207 139.125 157.267C139.158 157.326 139.149 157.37 139.099 157.397C138.821 157.55 138.618 157.733 138.49 157.946C138.361 158.159 138.284 158.454 138.258 158.83C138.238 159.216 138.257 159.756 138.314 160.448L139.079 169.419C139.075 169.46 139.039 169.499 138.969 169.538C138.9 169.576 138.852 169.583 138.825 169.559L131.128 164.209C130.387 163.685 129.829 163.352 129.453 163.21C129.072 163.082 128.748 163.093 128.48 163.24ZM138.172 164.175L135.819 165.469L138.432 167.292L138.172 164.175Z" fill="#F8F4F0"/>
<path d="M128.913 173.767C129.563 173.53 130.027 173.131 130.305 172.572C130.577 172.026 130.677 171.308 130.606 170.417C130.598 170.396 130.626 170.374 130.69 170.351C130.743 170.331 130.776 170.337 130.787 170.369C130.896 170.8 131.042 171.35 131.226 172.019C131.413 172.699 131.567 173.203 131.687 173.533C131.707 173.587 131.69 173.623 131.637 173.642C131.573 173.666 131.531 173.651 131.512 173.597C131.426 173.363 131.085 173.355 130.489 173.572C129.562 173.874 128.486 174.248 127.261 174.695C126.633 174.924 125.971 175.177 125.276 175.454L124.196 175.866C123.792 176.014 123.508 176.147 123.347 176.266C123.175 176.389 123.091 176.541 123.096 176.72C123.101 176.766 123.077 176.799 123.023 176.818C122.97 176.838 122.936 176.826 122.92 176.784C122.832 176.442 122.681 175.93 122.469 175.247C122.256 174.565 122.074 174.016 121.923 173.601C121.911 173.569 121.937 173.541 122.001 173.518C122.054 173.499 122.092 173.503 122.114 173.531C122.52 174.312 122.989 174.822 123.523 175.062C124.061 175.312 124.665 175.315 125.336 175.071C125.634 174.962 125.848 174.854 125.977 174.746C126.096 174.643 126.157 174.512 126.16 174.354C126.156 174.211 126.102 173.995 125.997 173.708L123.313 166.345C123.192 166.015 123.073 165.787 122.955 165.661C122.837 165.535 122.672 165.481 122.461 165.497C122.25 165.514 121.937 165.598 121.522 165.749C121.49 165.761 121.462 165.735 121.439 165.671C121.415 165.607 121.42 165.569 121.452 165.558C121.824 165.422 122.119 165.32 122.336 165.253L123.651 164.792L124.891 164.322C125.111 164.23 125.418 164.112 125.812 163.968C125.833 163.96 125.856 163.989 125.879 164.052C125.902 164.116 125.903 164.152 125.882 164.16C125.467 164.311 125.173 164.449 125.001 164.572C124.818 164.699 124.721 164.848 124.712 165.021C124.696 165.208 124.746 165.461 124.862 165.78L127.558 173.175C127.659 173.452 127.759 173.645 127.859 173.753C127.959 173.861 128.088 173.917 128.245 173.92C128.403 173.922 128.626 173.871 128.913 173.767Z" fill="#F8F4F0"/>
<path d="M115.543 173.314C114.413 173.558 113.495 173.519 112.787 173.196C112.082 172.885 111.63 172.269 111.432 171.35C111.293 170.707 111.326 170.109 111.531 169.554C111.727 169.013 112.074 168.55 112.57 168.165C113.056 167.781 113.653 167.513 114.362 167.36C114.639 167.3 114.98 167.244 115.386 167.191C116.324 167.024 116.826 166.933 116.893 166.918L117.953 166.672C118.172 166.613 118.481 166.54 118.879 166.454C118.913 166.447 118.936 166.477 118.951 166.543C118.965 166.61 118.956 166.647 118.923 166.654C118.537 166.749 118.266 166.836 118.11 166.916C117.955 167.008 117.861 167.132 117.825 167.291C117.792 167.46 117.814 167.722 117.891 168.077L119.552 175.77C119.628 176.125 119.716 176.367 119.813 176.497C119.902 176.64 120.034 176.715 120.21 176.724C120.386 176.732 120.67 176.706 121.062 176.644C121.085 176.639 121.103 176.67 121.117 176.737C121.132 176.803 121.128 176.839 121.105 176.844L120.288 177.003C119.795 177.086 119.383 177.163 119.051 177.235C118.707 177.309 118.272 177.415 117.745 177.552L116.851 177.762C116.818 177.769 116.794 177.74 116.78 177.673C116.766 177.607 116.775 177.57 116.808 177.563C117.225 177.45 117.521 177.345 117.697 177.249C117.865 177.166 117.971 177.039 118.015 176.867C118.048 176.698 118.026 176.436 117.95 176.082L117.239 172.791C116.685 173.015 116.119 173.19 115.543 173.314ZM114.744 167.678C113.935 167.853 113.402 168.176 113.145 168.649C112.89 169.133 112.855 169.807 113.042 170.671C113.241 171.591 113.572 172.215 114.038 172.543C114.505 172.883 115.149 172.964 115.969 172.787C116.268 172.723 116.664 172.597 117.157 172.409L116.295 168.421C116.219 168.067 116.08 167.824 115.877 167.694C115.664 167.566 115.286 167.561 114.744 167.678Z" fill="#F8F4F0"/>
<path d="M104.767 179.603C104.259 179.639 103.73 179.63 103.181 179.578C102.62 179.526 102.176 179.432 101.849 179.296C101.745 179.269 101.679 179.228 101.653 179.173C101.616 179.131 101.587 179.047 101.567 178.924L101.209 176.733C101.207 176.7 101.234 176.675 101.289 176.66C101.345 176.644 101.38 176.659 101.395 176.703C101.784 177.562 102.329 178.2 103.028 178.617C103.716 179.035 104.507 179.212 105.4 179.15C106.576 179.068 107.469 178.591 108.078 177.719C108.687 176.847 108.943 175.715 108.846 174.325C108.773 173.285 108.526 172.342 108.103 171.497C107.669 170.652 107.112 169.998 106.432 169.535C105.741 169.072 104.994 168.868 104.191 168.924C102.665 169.031 101.572 170.062 100.914 172.017C100.905 172.063 100.873 172.082 100.815 172.075C100.747 172.068 100.711 172.048 100.709 172.014L100.812 169.825C100.825 169.688 100.847 169.596 100.877 169.548C100.898 169.513 100.957 169.469 101.056 169.416C102.011 168.952 103.043 168.681 104.151 168.603C105.531 168.507 106.697 168.698 107.651 169.177C108.605 169.667 109.333 170.32 109.833 171.137C110.322 171.955 110.598 172.822 110.662 173.738C110.737 174.8 110.514 175.765 109.996 176.63C109.465 177.497 108.736 178.19 107.806 178.709C106.877 179.228 105.864 179.527 104.767 179.603Z" fill="#F8F4F0"/>
<path d="M90.5817 168.59C90.5591 168.588 90.5503 168.553 90.5554 168.486C90.5605 168.418 90.5744 168.385 90.597 168.386C90.9925 168.416 91.3029 168.445 91.5281 168.474L92.7812 168.585L94.02 168.662C94.2356 168.666 94.5242 168.683 94.8858 168.71C94.9197 168.712 94.9341 168.748 94.929 168.815C94.9239 168.883 94.9044 168.916 94.8705 168.913C94.4863 168.884 94.2072 168.892 94.0335 168.935C93.8484 168.978 93.7216 169.077 93.6532 169.231C93.5735 169.384 93.5204 169.635 93.494 169.986L93.186 174.071C93.6423 174.049 94.0766 173.866 94.489 173.522C94.8892 173.188 95.3963 172.567 96.0103 171.659C96.6487 170.729 97.1127 170.077 97.4025 169.701C97.6801 169.335 97.8727 169.117 97.9804 169.045C98.0872 168.985 98.2197 168.961 98.3779 168.973L100.446 169.129C100.469 169.131 100.477 169.165 100.472 169.233C100.467 169.301 100.453 169.334 100.431 169.332C100.136 169.322 99.8701 169.381 99.633 169.511C99.3951 169.652 99.1703 169.845 98.9585 170.091C98.746 170.348 98.4428 170.751 98.049 171.301C97.9718 171.42 97.781 171.69 97.4765 172.11C96.9787 172.834 96.5023 173.349 96.0473 173.656C95.5923 173.963 95.0728 174.145 94.4887 174.203C95.5442 174.374 96.3322 174.7 96.8528 175.183C97.3725 175.677 97.6055 176.28 97.5518 176.992C97.5135 177.5 97.3325 177.941 97.0088 178.315C96.6852 178.688 96.2553 178.962 95.7193 179.138C95.1824 179.325 94.5862 179.393 93.9307 179.344C93.6821 179.325 93.3895 179.286 93.053 179.227C92.9183 179.205 92.7609 179.182 92.5809 179.157C92.401 179.132 92.2036 179.112 91.9889 179.095C91.6725 179.072 91.2535 179.051 90.7319 179.035L89.7983 178.981C89.7757 178.98 89.7669 178.945 89.772 178.877C89.7772 178.809 89.791 178.776 89.8136 178.778C90.2318 178.809 90.5395 178.799 90.7367 178.745C90.9331 178.703 91.0711 178.606 91.1509 178.453C91.2193 178.299 91.2663 178.052 91.2919 177.713L91.8835 169.864C91.91 169.514 91.9009 169.258 91.8563 169.095C91.8004 168.932 91.6842 168.815 91.5076 168.745C91.3198 168.674 91.0111 168.622 90.5817 168.59ZM95.8416 177.289C95.903 176.475 95.7372 175.809 95.3444 175.291C94.9516 174.773 94.3483 174.483 93.5346 174.421C93.3764 174.409 93.2517 174.406 93.1604 174.41L92.9048 177.801C92.8708 178.253 92.9599 178.578 93.1723 178.775C93.3726 178.984 93.6422 179.101 93.9812 179.126C95.1227 179.212 95.7428 178.6 95.8416 177.289Z" fill="#F8F4F0"/>
<path d="M74.313 164.354C74.2805 164.344 74.2743 164.307 74.2943 164.242C74.3143 164.177 74.3406 164.149 74.373 164.159C74.7413 164.273 75.0375 164.37 75.2616 164.451L76.4426 164.832L77.8286 165.241C78.0269 165.291 78.2885 165.365 78.6134 165.465C78.6459 165.475 78.6522 165.513 78.6322 165.578C78.6121 165.643 78.5859 165.67 78.5534 165.66C78.1418 165.534 77.8356 165.469 77.6348 165.466C77.434 165.464 77.2777 165.528 77.166 165.66C77.0543 165.792 76.9468 166.025 76.8434 166.361L75.6874 170.114L81.26 171.831L82.416 168.078C82.5161 167.753 82.5587 167.499 82.5437 167.316C82.5254 167.145 82.4326 167.004 82.2651 166.893C82.0868 166.778 81.7919 166.658 81.3803 166.531C81.3587 166.525 81.3578 166.489 81.3779 166.424C81.3979 166.359 81.4187 166.33 81.4404 166.336C81.8086 166.45 82.094 166.543 82.2964 166.618L83.6399 167.049L84.8309 167.398C85.0401 167.451 85.3288 167.534 85.697 167.647C85.7187 167.654 85.7195 167.69 85.6995 167.755C85.6795 167.82 85.6586 167.849 85.637 167.842C85.247 167.722 84.9517 167.661 84.7509 167.658C84.5501 167.656 84.3938 167.72 84.2821 167.852C84.1671 167.994 84.0595 168.228 83.9594 168.553L81.6424 176.075C81.5423 176.4 81.5014 176.648 81.5197 176.82C81.538 176.992 81.6308 177.133 81.7983 177.244C81.9624 177.366 82.234 177.485 82.6131 177.602C82.6348 177.608 82.6356 177.644 82.6156 177.709C82.5955 177.774 82.5747 177.803 82.553 177.797L81.697 177.515C81.2054 177.34 80.8188 177.209 80.5372 177.122C80.1581 177.006 79.7053 176.878 79.1787 176.739L78.3126 176.49C78.291 176.484 78.2902 176.448 78.3102 176.383C78.3302 176.318 78.351 176.289 78.3727 176.295C78.7735 176.419 79.0813 176.478 79.2963 176.473C79.5004 176.465 79.6654 176.391 79.7913 176.252C79.903 176.121 80.0089 175.892 80.109 175.567L81.1299 172.253L75.5572 170.536L74.5364 173.851C74.4363 174.176 74.3954 174.424 74.4136 174.596C74.4286 174.778 74.5235 174.932 74.6985 175.057C74.8626 175.179 75.145 175.301 75.5458 175.425C75.5783 175.435 75.5845 175.472 75.5645 175.537C75.5445 175.602 75.5182 175.63 75.4857 175.62L74.7109 175.363C74.1977 175.181 73.7407 175.029 73.3399 174.905C73.0475 174.815 72.6488 174.704 72.1439 174.573L71.2453 174.314C71.2128 174.304 71.2066 174.266 71.2266 174.201C71.2466 174.136 71.2729 174.109 71.3054 174.119C71.6953 174.239 71.9923 174.295 72.1965 174.286C72.3865 174.286 72.5373 174.219 72.649 174.088C72.7607 173.956 72.8666 173.728 72.9667 173.403L75.2837 165.881C75.3838 165.556 75.4263 165.302 75.4114 165.12C75.3931 164.948 75.3057 164.808 75.1491 164.701C74.9816 164.59 74.7029 164.474 74.313 164.354Z" fill="#F8F4F0"/>
<path d="M64.2507 159.322C64.2 159.297 64.1898 159.254 64.2202 159.193C64.2506 159.132 64.2912 159.114 64.3418 159.139C64.5345 159.236 64.8387 159.4 65.2544 159.633C65.6701 159.866 65.9742 160.031 66.1669 160.127C66.4203 160.254 66.7245 160.393 67.0794 160.545C67.4342 160.697 67.708 160.821 67.9006 160.917C67.9411 160.937 67.9462 160.978 67.9158 161.039C67.8855 161.1 67.85 161.12 67.8094 161.1C67.5154 160.953 67.2873 160.877 67.1251 160.872C66.9477 160.872 66.821 160.948 66.7451 161.1C66.6691 161.252 66.6261 161.554 66.6162 162.005L66.595 166.156L69.3477 167.531L71.833 165.485C72.1167 165.246 72.3194 165.006 72.4409 164.762C72.6182 164.407 72.6256 164.075 72.4633 163.766C72.301 163.457 71.9917 163.189 71.5355 162.961C71.4848 162.935 71.4746 162.892 71.505 162.831C71.5354 162.771 71.5759 162.753 71.6266 162.778C71.8091 162.869 72.0677 163.011 72.4023 163.204C72.7774 163.416 73.1069 163.594 73.3908 163.735C73.6646 163.872 73.989 164.022 74.3641 164.184C74.6987 164.325 74.9725 164.449 75.1854 164.556C75.2361 164.581 75.2462 164.624 75.2158 164.685C75.1854 164.746 75.1449 164.764 75.0942 164.738C74.8103 164.596 74.5442 164.533 74.2959 164.549C74.0475 164.564 73.7612 164.668 73.4369 164.861C73.1075 165.063 72.6743 165.385 72.1372 165.827L65.1907 171.554C65.1552 171.575 65.102 171.567 65.0311 171.531C64.9601 171.496 64.9271 171.461 64.9322 171.425L64.9588 162.051C64.9686 161.144 64.9253 160.495 64.8288 160.105C64.7171 159.72 64.5244 159.459 64.2507 159.322ZM68.9905 167.827L66.5876 166.627L66.5737 169.813L68.9905 167.827Z" fill="#F8F4F0"/>
<path d="M53.4075 158.135C52.7499 157.523 52.3559 156.854 52.2256 156.127C52.0882 155.408 52.2563 154.752 52.7297 154.158C53.1113 153.68 53.6038 153.362 54.2071 153.206C54.8033 153.058 55.4423 153.075 56.124 153.256C56.7898 153.439 57.424 153.771 58.0265 154.251C58.4164 154.562 58.7576 154.907 59.0502 155.285C59.334 155.656 59.5097 156 59.5775 156.314C59.6219 156.422 59.6424 156.497 59.6389 156.537C59.6283 156.587 59.5886 156.664 59.5198 156.769L58.3331 158.584C58.319 158.601 58.2862 158.597 58.2349 158.571C58.1746 158.537 58.1507 158.503 58.163 158.47C58.4507 157.945 58.6163 157.411 58.6597 156.865C58.6872 156.322 58.6024 155.819 58.4052 155.358C58.208 154.896 57.9234 154.517 57.5512 154.22C57.0462 153.817 56.5062 153.713 55.9312 153.907C55.3403 154.102 54.8117 154.492 54.3453 155.077C53.773 155.795 53.5368 156.491 53.637 157.165C53.7212 157.841 54.1222 158.465 54.8399 159.038C54.8753 159.066 54.8719 159.107 54.8295 159.16C54.7871 159.213 54.7481 159.225 54.7127 159.197C54.057 158.674 53.431 158.45 52.8346 158.526C52.2382 158.601 51.6998 158.94 51.2193 159.542C50.7388 160.145 50.4874 160.705 50.4652 161.224C50.443 161.743 50.649 162.175 51.0831 162.521C51.5439 162.889 52.1397 163.023 52.8705 162.925C53.6014 162.826 54.3275 162.507 55.0488 161.966C55.0629 161.948 55.0877 161.953 55.1231 161.982C55.1409 161.996 55.1595 162.018 55.179 162.048C55.1826 162.08 55.1809 162.1 55.1738 162.109L53.5886 163.715C53.4861 163.807 53.4118 163.864 53.3658 163.885C53.3198 163.907 53.2464 163.899 53.1454 163.862C52.2724 163.557 51.4858 163.125 50.7858 162.567C50.2276 162.122 49.8251 161.663 49.5784 161.191C49.3246 160.728 49.2142 160.284 49.2471 159.861C49.2642 159.44 49.4035 159.065 49.6649 158.738C50.0606 158.241 50.6248 157.952 51.3575 157.87C52.0812 157.78 52.7646 157.868 53.4075 158.135Z" fill="#F8F4F0"/>
<path d="M46.3527 143.619C46.3138 143.578 46.319 143.534 46.3684 143.487C46.4178 143.44 46.462 143.438 46.5009 143.479C46.6489 143.635 46.8783 143.894 47.189 144.255C47.4996 144.617 47.729 144.876 47.877 145.032C48.0717 145.238 48.3098 145.473 48.5911 145.737C48.8724 146.001 49.087 146.212 49.235 146.368C49.2662 146.401 49.2571 146.441 49.2077 146.488C49.1583 146.534 49.118 146.541 49.0868 146.508C48.8609 146.27 48.6727 146.12 48.522 146.06C48.3553 145.999 48.2103 146.027 48.0868 146.144C47.9633 146.261 47.8196 146.53 47.6556 146.95L46.2133 150.842L48.3281 153.077L51.364 152.007C51.7123 151.88 51.9852 151.723 52.1827 151.536C52.4709 151.264 52.5917 150.954 52.5451 150.608C52.4985 150.262 52.3 149.904 51.9495 149.534C51.9105 149.493 51.9157 149.449 51.9651 149.402C52.0145 149.355 52.0587 149.352 52.0977 149.394C52.2379 149.542 52.4322 149.764 52.6805 150.059C52.9601 150.387 53.2089 150.667 53.427 150.897C53.6373 151.12 53.8909 151.371 54.1878 151.652C54.4535 151.9 54.6682 152.11 54.8318 152.283C54.8707 152.324 54.8655 152.368 54.8161 152.415C54.7667 152.462 54.7225 152.464 54.6836 152.423C54.4655 152.193 54.2371 152.042 53.9986 151.971C53.76 151.901 53.4554 151.9 53.0847 151.97C52.7058 152.048 52.1884 152.202 51.5327 152.432L43.044 155.433C43.0037 155.44 42.9563 155.414 42.9018 155.357C42.8473 155.299 42.8285 155.254 42.8454 155.223L46.0828 146.425C46.4029 145.576 46.5845 144.952 46.6276 144.553C46.6547 144.152 46.5631 143.841 46.3527 143.619ZM47.8909 153.234L46.0448 151.283L44.9401 154.271L47.8909 153.234Z" fill="#F8F4F0"/>
<path d="M39.7205 133.807C39.7016 133.779 39.7204 133.746 39.7769 133.708C39.8334 133.67 39.8711 133.665 39.89 133.693C40.1045 134.014 40.2732 134.276 40.3963 134.48L41.0729 135.52L41.8913 136.711C42.0142 136.874 42.1703 137.097 42.3596 137.38C42.3785 137.408 42.3597 137.441 42.3032 137.479C42.2467 137.517 42.209 137.521 42.1901 137.493C41.9504 137.135 41.7534 136.892 41.5991 136.764C41.4447 136.635 41.2828 136.587 41.1131 136.619C40.9434 136.65 40.7126 136.764 40.4208 136.96L37.1582 139.145L40.4036 143.99L43.6662 141.804C43.9486 141.615 44.1416 141.445 44.245 141.294C44.3389 141.149 44.3558 140.981 44.2957 140.789C44.2292 140.588 44.0761 140.309 43.8364 139.951C43.8238 139.932 43.8458 139.904 43.9023 139.866C43.9587 139.828 43.9933 139.818 44.0059 139.837C44.2204 140.157 44.3828 140.41 44.4933 140.595L45.2645 141.777L45.9693 142.798C46.0986 142.971 46.2704 143.217 46.4849 143.538C46.4975 143.556 46.4756 143.585 46.4191 143.623C46.3626 143.66 46.3281 143.67 46.3154 143.651C46.0884 143.312 45.8977 143.078 45.7433 142.95C45.589 142.821 45.427 142.773 45.2574 142.805C45.0783 142.843 44.8475 142.957 44.565 143.146L38.0259 147.527C37.7434 147.716 37.5552 147.883 37.4612 148.028C37.3672 148.173 37.3503 148.341 37.4105 148.532C37.4612 148.73 37.597 148.994 37.8177 149.324C37.8304 149.342 37.8084 149.371 37.7519 149.409C37.6954 149.446 37.6609 149.456 37.6483 149.437L37.1609 148.679C36.8896 148.233 36.6719 147.888 36.5079 147.643C36.2871 147.314 36.0159 146.929 35.6943 146.49L35.1787 145.751C35.1661 145.732 35.188 145.704 35.2445 145.666C35.301 145.628 35.3356 145.618 35.3482 145.637C35.5816 145.986 35.7833 146.226 35.9533 146.357C36.1171 146.48 36.2916 146.526 36.477 146.498C36.6467 146.466 36.8728 146.355 37.1552 146.166L40.0364 144.236L36.791 139.391L33.9098 141.322C33.6273 141.511 33.4391 141.678 33.3452 141.823C33.2418 141.974 33.2186 142.153 33.2756 142.36C33.3264 142.558 33.4684 142.831 33.7018 143.18C33.7208 143.208 33.702 143.241 33.6455 143.279C33.589 143.317 33.5513 143.322 33.5324 143.293L33.0923 142.606C32.8084 142.141 32.5497 141.735 32.3163 141.387C32.146 141.132 31.9063 140.795 31.5973 140.374L31.0628 139.607C31.0439 139.579 31.0627 139.546 31.1192 139.508C31.1757 139.47 31.2134 139.465 31.2323 139.494C31.4594 139.833 31.6548 140.063 31.8185 140.185C31.9665 140.304 32.1254 140.348 32.295 140.316C32.4647 140.284 32.6908 140.174 32.9732 139.985L39.5124 135.604C39.7949 135.415 39.9878 135.244 40.0912 135.093C40.1852 134.949 40.2052 134.785 40.1514 134.603C40.0912 134.411 39.9476 134.146 39.7205 133.807Z" fill="#F8F4F0"/>
<path d="M35.9091 125.503C35.8995 125.483 35.9255 125.458 35.9871 125.429C36.0487 125.4 36.0843 125.396 36.0939 125.417C36.262 125.776 36.3888 126.061 36.4746 126.271L36.9921 127.418L37.5332 128.535C37.6347 128.725 37.7623 128.984 37.9159 129.313C37.9303 129.343 37.9067 129.373 37.8451 129.402C37.7835 129.431 37.7455 129.43 37.7311 129.399C37.5679 129.05 37.4246 128.811 37.3013 128.681C37.1731 128.54 37.0252 128.478 36.8574 128.494C36.6849 128.5 36.4395 128.577 36.1213 128.726L32.41 130.461C32.6534 130.848 33.0261 131.137 33.5281 131.327C34.0151 131.512 34.805 131.65 35.8978 131.739C37.0207 131.84 37.8171 131.924 38.2868 131.992C38.7415 132.054 39.0264 132.115 39.1414 132.174C39.2462 132.238 39.3322 132.341 39.3995 132.485L40.2781 134.364C40.2877 134.384 40.2617 134.409 40.2001 134.438C40.1385 134.466 40.1029 134.471 40.0933 134.45C39.9582 134.188 39.7759 133.985 39.5464 133.843C39.3067 133.704 39.0279 133.603 38.7102 133.539C38.3822 133.48 37.882 133.414 37.2095 133.34C37.0678 133.331 36.7391 133.297 36.2235 133.238C35.3485 133.16 34.6657 132.997 34.1753 132.751C33.6849 132.505 33.271 132.142 32.9338 131.661C33.3029 132.665 33.405 133.512 33.2398 134.202C33.0644 134.897 32.6534 135.396 32.0066 135.698C31.5446 135.914 31.0716 135.973 30.5874 135.874C30.1033 135.775 29.6532 135.535 29.2373 135.154C28.8112 134.778 28.4588 134.292 28.1804 133.697C28.0748 133.471 27.9653 133.197 27.8521 132.874C27.8047 132.746 27.7478 132.598 27.6812 132.429C27.6147 132.26 27.5358 132.078 27.4446 131.883C27.3102 131.595 27.1223 131.22 26.8809 130.757L26.4694 129.918C26.4598 129.897 26.4858 129.872 26.5474 129.844C26.609 129.815 26.6446 129.811 26.6542 129.831C26.8318 130.211 26.9922 130.474 27.1355 130.62C27.2684 130.77 27.4211 130.843 27.5937 130.837C27.7614 130.821 27.9993 130.741 28.3073 130.597L35.4371 127.263C35.7554 127.114 35.9743 126.98 36.0941 126.862C36.209 126.733 36.2537 126.574 36.2282 126.386C36.1979 126.188 36.0916 125.893 35.9091 125.503ZM30.9087 134.354C31.6478 134.008 32.1469 133.537 32.4059 132.94C32.6649 132.344 32.6216 131.676 32.2759 130.937C32.2087 130.793 32.1507 130.683 32.1021 130.605L29.0222 132.046C28.6116 132.238 28.3721 132.475 28.3039 132.757C28.2206 133.034 28.2509 133.326 28.395 133.634C28.8799 134.671 29.7178 134.911 30.9087 134.354Z" fill="#F8F4F0"/>
<path d="M25.2142 125.225C25.4172 125.886 25.791 126.37 26.3358 126.677C26.8664 126.976 27.5784 127.113 28.4716 127.088C28.4933 127.081 28.5141 127.11 28.5341 127.175C28.5507 127.229 28.5428 127.262 28.5103 127.271C28.0745 127.358 27.5178 127.476 26.8403 127.624C26.152 127.777 25.6399 127.904 25.304 128.007C25.2499 128.024 25.2144 128.005 25.1978 127.951C25.1778 127.886 25.1949 127.845 25.2491 127.829C25.4875 127.755 25.5135 127.415 25.3271 126.809C25.0734 125.867 24.7553 124.773 24.3726 123.527C24.1763 122.888 23.9575 122.214 23.7162 121.506L23.3605 120.406C23.2341 119.994 23.1155 119.705 23.0047 119.537C22.8907 119.359 22.7441 119.267 22.5649 119.263C22.5183 119.266 22.4866 119.24 22.47 119.186C22.4533 119.131 22.4667 119.098 22.51 119.084C22.8559 119.014 23.375 118.89 24.0675 118.713C24.7601 118.536 25.3176 118.382 25.7401 118.252C25.7726 118.242 25.7988 118.27 25.8188 118.335C25.8354 118.389 25.8292 118.427 25.8 118.447C24.9991 118.812 24.4651 119.255 24.1982 119.775C23.9205 120.299 23.8865 120.902 24.0961 121.585C24.1893 121.888 24.2862 122.107 24.387 122.242C24.4844 122.367 24.6119 122.434 24.7694 122.445C24.9127 122.449 25.1306 122.405 25.4231 122.315L32.9147 120.014C33.2505 119.911 33.4843 119.804 33.616 119.692C33.7477 119.581 33.8107 119.419 33.805 119.208C33.7993 118.996 33.7315 118.679 33.6017 118.256C33.5918 118.224 33.6193 118.198 33.6843 118.178C33.7493 118.158 33.7868 118.164 33.7967 118.196C33.9132 118.576 33.9993 118.875 34.055 119.095L34.4481 120.433L34.8536 121.695C34.9344 121.919 35.0363 122.232 35.1594 122.633C35.166 122.654 35.1369 122.675 35.0719 122.695C35.0069 122.715 34.971 122.714 34.9644 122.693C34.8346 122.27 34.7127 121.97 34.5986 121.791C34.4812 121.602 34.3367 121.498 34.1651 121.48C33.9793 121.454 33.7239 121.491 33.3988 121.591L25.8748 123.902C25.5931 123.988 25.3956 124.079 25.2822 124.173C25.1688 124.267 25.1067 124.393 25.0958 124.55C25.0849 124.708 25.1243 124.933 25.2142 125.225Z" fill="#F8F4F0"/>
<path d="M31.1455 104.479C31.1407 104.445 31.172 104.424 31.2393 104.414C31.3066 104.404 31.3427 104.416 31.3475 104.45C31.4018 104.832 31.4402 105.141 31.4625 105.378L31.6208 106.609L31.8415 108.037C31.8814 108.238 31.9254 108.506 31.9734 108.843C31.9782 108.876 31.9469 108.898 31.8796 108.908C31.8123 108.917 31.7762 108.905 31.7714 108.872C31.7107 108.445 31.6387 108.141 31.5554 107.958C31.4721 107.775 31.3471 107.661 31.1805 107.616C31.0138 107.571 30.7565 107.574 30.4087 107.623L23.845 108.559L30.5966 113.28L31.2025 113.194C31.5391 113.146 31.7868 113.076 31.9455 112.985C32.093 112.895 32.1812 112.751 32.2101 112.552C32.2374 112.343 32.2207 112.024 32.1599 111.598C32.1567 111.576 32.1888 111.56 32.2561 111.55C32.3234 111.54 32.3587 111.547 32.3619 111.569C32.4163 111.951 32.453 112.249 32.4722 112.464L32.6544 113.863L32.8463 115.089C32.8879 115.301 32.9359 115.597 32.9902 115.979C32.9934 116.001 32.9613 116.017 32.894 116.027C32.8267 116.036 32.7914 116.03 32.7883 116.007C32.7307 115.604 32.6603 115.31 32.577 115.127C32.4937 114.945 32.3687 114.831 32.2021 114.786C32.0242 114.743 31.7669 114.745 31.4303 114.793L23.638 115.903C23.3014 115.951 23.0594 116.02 22.9119 116.11C22.7644 116.199 22.6762 116.344 22.6473 116.542C22.6072 116.743 22.6151 117.039 22.671 117.432C22.6742 117.454 22.6422 117.47 22.5748 117.48C22.5075 117.49 22.4723 117.483 22.4691 117.461L22.3588 116.566C22.3077 116.047 22.2614 115.641 22.2198 115.35C22.1638 114.957 22.0863 114.493 21.9871 113.958L21.8431 113.068C21.8399 113.046 21.872 113.03 21.9393 113.02C22.0066 113.01 22.0419 113.017 22.0451 113.039C22.1043 113.454 22.1819 113.758 22.278 113.951C22.3725 114.132 22.5095 114.25 22.689 114.304C22.8556 114.349 23.1073 114.348 23.4439 114.3L29.9571 113.371L23.2223 108.647L22.6501 108.729C22.3135 108.777 22.0714 108.846 21.924 108.935C21.7652 109.027 21.6666 109.178 21.6281 109.39C21.5879 109.59 21.5974 109.898 21.6566 110.313C21.6614 110.346 21.6301 110.368 21.5628 110.378C21.4955 110.387 21.4594 110.375 21.4546 110.342L21.3564 109.531C21.3021 108.99 21.2453 108.511 21.1862 108.096C21.143 107.793 21.0734 107.385 20.9775 106.872L20.8287 105.949C20.8239 105.915 20.8552 105.894 20.9225 105.884C20.9898 105.875 21.0259 105.887 21.0307 105.92C21.0882 106.324 21.1643 106.617 21.2588 106.798C21.3404 106.969 21.4646 107.078 21.6313 107.123C21.798 107.167 22.0496 107.166 22.3862 107.118L30.1785 106.008C30.5151 105.96 30.7627 105.89 30.9215 105.799C31.0689 105.709 31.1579 105.57 31.1885 105.383C31.2174 105.184 31.2031 104.883 31.1455 104.479Z" fill="#F8F4F0"/>
<path d="M28.8171 96.6805C28.7944 96.6804 28.7832 96.6576 28.7835 96.6123C28.7837 96.5783 28.7952 96.55 28.818 96.5275C28.8296 96.4936 28.841 96.4766 28.8524 96.4767C29.713 96.5955 30.5003 96.6571 31.2142 96.6616C31.3049 96.6621 31.3728 96.6796 31.4179 96.7139C31.4517 96.7481 31.4683 96.8162 31.4676 96.9182L31.4212 104.296C31.421 104.33 31.3869 104.347 31.3189 104.346C31.2509 104.346 31.217 104.329 31.2172 104.295C31.2197 103.909 31.1931 103.632 31.1375 103.461C31.082 103.28 30.975 103.16 30.8167 103.102C30.6472 103.033 30.3924 102.998 30.0524 102.995L22.1815 102.946C21.8416 102.944 21.592 102.976 21.4329 103.043C21.2739 103.099 21.1655 103.217 21.1077 103.398C21.0385 103.579 21.0028 103.857 21.0004 104.231C21.0002 104.265 20.9661 104.281 20.8981 104.281C20.8301 104.28 20.7962 104.263 20.7965 104.229L20.8409 97.1574C20.8416 97.044 20.893 96.9877 20.995 96.9883L23.2052 96.9682C23.2278 96.9684 23.2446 97.0025 23.2555 97.0705C23.2665 97.1273 23.2549 97.1612 23.2209 97.1723C21.9272 97.4362 21.2762 98.2198 21.2681 99.5231L21.2638 100.203C21.2612 100.611 21.3331 100.901 21.4793 101.071C21.6256 101.242 21.8744 101.329 22.2257 101.331L25.6936 101.353L25.7039 99.721C25.7117 98.4743 25.2963 97.8484 24.4577 97.8431C24.4237 97.8429 24.4069 97.8145 24.4072 97.7578C24.4076 97.6898 24.4249 97.6559 24.4589 97.6561L25.9377 97.6824L26.7368 97.6704C27.0996 97.6501 27.3943 97.6406 27.621 97.642C27.6437 97.6421 27.6548 97.6762 27.6544 97.7442C27.6539 97.8122 27.6424 97.8461 27.6197 97.846C26.6451 97.8399 26.1538 98.4715 26.1458 99.7408L26.1356 101.356L29.9946 101.38C30.3685 101.382 30.6296 101.316 30.7778 101.181C30.9261 101.035 31.0013 100.78 31.0036 100.417L31.0089 99.5843C31.0184 98.0657 30.2878 97.0978 28.8171 96.6805Z" fill="#F8F4F0"/>
<path d="M28.3874 80.6015C28.6835 79.7538 29.1385 79.1244 29.7523 78.7132C30.3552 78.299 31.0235 78.1897 31.7573 78.3851C32.3487 78.5426 32.8372 78.8662 33.2228 79.3559C33.5975 79.8428 33.8386 80.4348 33.9461 81.1319C34.0456 81.8152 33.9962 82.5292 33.7979 83.2739C33.6695 83.7558 33.4908 84.2066 33.2617 84.6265C33.0356 85.0354 32.7918 85.3341 32.5305 85.5225C32.4495 85.6065 32.3897 85.655 32.351 85.6682C32.3013 85.6784 32.2148 85.673 32.0914 85.6518L29.9527 85.2934C29.9308 85.2875 29.9216 85.2558 29.9253 85.1981C29.9318 85.1295 29.953 85.0941 29.9887 85.0919C30.5845 85.145 31.1407 85.082 31.6576 84.903C32.1663 84.7101 32.5926 84.4307 32.9363 84.0648C33.2801 83.699 33.5132 83.286 33.6357 82.8261C33.8019 82.2018 33.6809 81.6653 33.2727 81.2164C32.8564 80.7537 32.2869 80.4261 31.5641 80.2336C30.677 79.9974 29.9448 80.0604 29.3674 80.4227C28.782 80.7711 28.3712 81.3889 28.135 82.2759C28.1233 82.3197 28.0846 82.3329 28.0189 82.3154C27.9532 82.2979 27.9262 82.2672 27.9378 82.2234C28.1537 81.413 28.1075 80.7498 27.7992 80.2337C27.491 79.7177 26.9645 79.3605 26.2198 79.1622C25.4751 78.9639 24.8607 78.9586 24.3768 79.1464C23.8928 79.3341 23.5794 79.6963 23.4365 80.233C23.2848 80.8025 23.4007 81.4021 23.7842 82.0321C24.1677 82.662 24.7519 83.1987 25.5368 83.6423C25.5587 83.6482 25.5638 83.673 25.5522 83.7168C25.5463 83.7387 25.5336 83.7646 25.5139 83.7945C25.4861 83.8106 25.4668 83.8172 25.4558 83.8143L23.3487 83.0068C23.2231 82.9499 23.1413 82.9047 23.1033 82.8711C23.0654 82.8375 23.0431 82.7671 23.0365 82.6598C22.9654 81.7377 23.045 80.8441 23.2754 79.979C23.4592 79.289 23.7178 78.7363 24.0513 78.3208C24.3738 77.9024 24.7355 77.6234 25.1362 77.4838C25.5289 77.3304 25.9279 77.3076 26.3331 77.4155C26.9464 77.5789 27.4379 77.9795 27.8075 78.6174C28.18 79.2444 28.3733 79.9058 28.3874 80.6015Z" fill="#F8F4F0"/>
<path d="M38.8752 68.2629C38.8974 68.2107 38.9397 68.198 39.0023 68.2246C39.0649 68.2512 39.0851 68.2906 39.0629 68.3427C38.9786 68.5409 38.8328 68.8545 38.6255 69.2836C38.4183 69.7127 38.2725 70.0264 38.1882 70.2245C38.0773 70.4852 37.9568 70.7973 37.8267 71.1607C37.6967 71.5242 37.5895 71.8049 37.5052 72.0031C37.4875 72.0448 37.4473 72.0523 37.3847 72.0257C37.3222 71.9991 37.2998 71.9649 37.3175 71.9232C37.4462 71.6208 37.5081 71.3885 37.5032 71.2263C37.4924 71.0492 37.4087 70.9274 37.2523 70.8608C37.0959 70.7943 36.7922 70.7697 36.3414 70.7873L32.1967 71.0188L30.9919 73.8501L33.1855 76.2062C33.4406 76.4749 33.6933 76.6625 33.9436 76.769C34.3086 76.9244 34.6404 76.9116 34.9391 76.7308C35.2377 76.55 35.4869 76.2249 35.6866 75.7556C35.7088 75.7035 35.7512 75.6907 35.8138 75.7174C35.8763 75.744 35.8965 75.7834 35.8743 75.8355C35.7945 76.0232 35.6686 76.2899 35.4969 76.6356C35.3074 77.023 35.1505 77.3627 35.0263 77.6547C34.9065 77.9363 34.7771 78.2692 34.6382 78.6535C34.517 78.9961 34.4099 79.2769 34.3167 79.4959C34.2945 79.548 34.2521 79.5608 34.1895 79.5341C34.127 79.5075 34.1068 79.4681 34.129 79.416C34.2532 79.124 34.3002 78.8545 34.2698 78.6076C34.2394 78.3606 34.1181 78.0811 33.906 77.7692C33.6835 77.4528 33.3357 77.0399 32.8626 76.5307L26.7228 69.9457C26.7004 69.9116 26.7047 69.858 26.7358 69.785C26.7669 69.712 26.8003 69.6769 26.836 69.6798L36.1943 69.1358C37.1004 69.0903 37.7453 69.0076 38.129 68.8875C38.5066 68.7527 38.7554 68.5444 38.8752 68.2629ZM30.674 73.5117L31.7258 71.0401L28.5453 71.2201L30.674 73.5117Z" fill="#F8F4F0"/>
<path d="M44.9562 58.6466C44.9745 58.618 45.0123 58.622 45.0696 58.6586C45.1269 58.6952 45.1463 58.7279 45.128 58.7565C44.9266 59.0716 44.7631 59.3168 44.6375 59.4921L43.9638 60.5142L43.2547 61.6549C43.1483 61.8424 42.9913 62.0985 42.7837 62.4231C42.7654 62.4518 42.7276 62.4478 42.6703 62.4111C42.613 62.3745 42.5935 62.3419 42.6118 62.3132C42.8255 61.979 42.9573 61.7203 43.0072 61.537C43.0633 61.3441 43.0428 61.1763 42.9457 61.0336C42.8391 60.8847 42.6426 60.7187 42.3562 60.5355L35.8537 56.378C35.529 56.1704 35.305 56.0474 35.1817 56.0089C35.0583 55.9704 34.9488 55.9945 34.853 56.0812C34.7633 56.1584 34.6177 56.3545 34.4162 56.6696L32.5389 59.6057C32.3313 59.9304 32.2052 60.1592 32.1606 60.2921C32.116 60.425 32.1418 60.5424 32.2381 60.6443C32.3248 60.7401 32.5257 60.8887 32.8408 61.0902L39.3433 65.2477C39.6298 65.4309 39.8629 65.5396 40.0428 65.5739C40.2131 65.602 40.371 65.555 40.5164 65.4328C40.6618 65.3105 40.8444 65.0775 41.0642 64.7338C41.0825 64.7051 41.1203 64.7091 41.1776 64.7457C41.2349 64.7824 41.2544 64.815 41.2361 64.8437C41.0346 65.1588 40.868 65.4087 40.7364 65.5936L39.9895 66.7303L39.3536 67.7563C39.2471 67.9438 39.0901 68.1999 38.8826 68.5246C38.8703 68.5437 38.8356 68.5349 38.7783 68.4983C38.721 68.4617 38.6985 68.4338 38.7107 68.4147C38.9305 68.0709 39.0684 67.8027 39.1244 67.6098C39.1805 67.417 39.16 67.2491 39.0629 67.1064C38.9563 66.9575 38.7598 66.7915 38.4733 66.6084L32.0138 62.4783C31.5841 62.2036 31.2345 62.0876 30.965 62.1305C30.6954 62.1734 30.4111 62.4288 30.1119 62.8967C30.0997 62.9158 30.065 62.907 30.0077 62.8704C29.9504 62.8337 29.9278 62.8059 29.94 62.7868C30.1476 62.4621 30.3539 62.1501 30.5588 61.8506C31.3959 60.5834 32.2541 59.2622 33.1332 57.8872C33.9452 56.6173 34.8588 55.1568 35.8742 53.5057L36.1764 53.033C36.1947 53.0044 36.2325 53.0084 36.2898 53.045C36.3471 53.0816 36.3666 53.1143 36.3482 53.1429C36.0491 53.6108 35.9366 53.9761 36.0108 54.2387C36.085 54.5014 36.3369 54.7701 36.7666 55.0448L43.2261 59.1749C43.5126 59.358 43.7457 59.4668 43.9256 59.5011C44.0959 59.5292 44.2568 59.4774 44.4083 59.3456C44.5599 59.2138 44.7425 58.9808 44.9562 58.6466Z" fill="#F8F4F0"/>
<path d="M52.6024 50.1086C52.6252 50.0834 52.6618 50.0936 52.7122 50.1393C52.7626 50.1849 52.7764 50.2204 52.7536 50.2456C52.4949 50.5312 52.2815 50.7584 52.1133 50.9271L51.2676 51.8355L50.3101 52.9179C50.1816 53.0767 50.0032 53.2821 49.7749 53.5341C49.7521 53.5593 49.7155 53.5491 49.6651 53.5035C49.6147 53.4578 49.6009 53.4224 49.6237 53.3972C49.9129 53.078 50.1011 52.828 50.1884 52.6471C50.2758 52.4663 50.2835 52.2974 50.2115 52.1405C50.1396 51.9836 49.9734 51.7872 49.713 51.5513L44.799 47.1005L45.4819 55.311L45.9355 55.7219C46.1875 55.9501 46.3993 56.0961 46.571 56.1599C46.7342 56.216 46.9015 56.1916 47.0728 56.0869C47.2518 55.9737 47.4858 55.7576 47.7749 55.4384C47.7901 55.4216 47.823 55.436 47.8734 55.4816C47.9238 55.5273 47.9413 55.5585 47.9261 55.5753C47.6674 55.8609 47.4616 56.0797 47.3087 56.2317L46.3488 57.2661L45.5283 58.1973C45.3922 58.3645 45.1948 58.5909 44.9361 58.8765C44.9209 58.8933 44.8881 58.8788 44.8377 58.8332C44.7873 58.7876 44.7697 58.7563 44.7849 58.7395C45.0588 58.4371 45.2394 58.1955 45.3267 58.0147C45.4141 57.8338 45.4218 57.665 45.3498 57.508C45.2695 57.3435 45.1033 57.1471 44.8513 56.9189L39.0176 51.6349C38.7656 51.4067 38.5579 51.2645 38.3947 51.2084C38.2314 51.1523 38.0642 51.1766 37.8928 51.2813C37.7131 51.3785 37.4901 51.5741 37.2238 51.8681C37.2086 51.8849 37.1757 51.8704 37.1253 51.8248C37.0749 51.7791 37.0574 51.7479 37.0726 51.7311L37.69 51.0747C38.0568 50.7036 38.3391 50.4088 38.5369 50.1904C38.8032 49.8964 39.1106 49.5402 39.459 49.1218L40.0512 48.4425C40.0664 48.4257 40.0992 48.4402 40.1496 48.4858C40.2 48.5315 40.2176 48.5627 40.2024 48.5795C39.9209 48.8903 39.7369 49.1441 39.6503 49.341C39.5714 49.5294 39.5683 49.7101 39.641 49.883C39.713 50.0399 39.8749 50.2325 40.1269 50.4608L45.0031 54.8774L44.3329 46.6782L43.9045 46.2902C43.6525 46.062 43.4448 45.9198 43.2816 45.8637C43.1099 45.7999 42.9304 45.8208 42.7431 45.9264C42.5634 46.0235 42.3327 46.2275 42.0512 46.5383C42.0284 46.5635 41.9918 46.5533 41.9414 46.5076C41.891 46.462 41.8772 46.4266 41.9 46.4014L42.4604 45.808C42.8424 45.42 43.1742 45.0706 43.4557 44.7598C43.6611 44.533 43.9304 44.2188 44.2636 43.8172L44.8787 43.1128C44.9015 43.0876 44.9381 43.0978 44.9885 43.1435C45.0389 43.1891 45.0527 43.2246 45.0299 43.2498C44.756 43.5521 44.5795 43.7976 44.5006 43.986C44.4209 44.1585 44.417 44.3231 44.4889 44.4801C44.5609 44.637 44.7229 44.8295 44.9749 45.0578L50.8086 50.3417C51.0606 50.57 51.2724 50.716 51.4441 50.7797C51.6073 50.8358 51.7708 50.8157 51.9345 50.7193C52.1059 50.6146 52.3285 50.411 52.6024 50.1086Z" fill="#F8F4F0"/>
<path d="M51.1035 37.6825C51.502 37.3643 51.9421 37.0708 52.4238 36.8022C52.9143 36.5265 53.333 36.3516 53.68 36.2776C53.7809 36.2405 53.8579 36.2371 53.911 36.2672C53.9658 36.2814 54.0366 36.3337 54.1233 36.424L55.6617 38.0236C55.683 38.0502 55.675 38.0856 55.6378 38.1298C55.6006 38.174 55.5634 38.1819 55.5262 38.1536C54.7178 37.6679 53.9073 37.4522 53.0949 37.5063C52.2912 37.5534 51.5396 37.8563 50.84 38.4151C49.919 39.1506 49.4554 40.0502 49.4492 41.114C49.4429 42.1777 49.8748 43.2542 50.7446 44.3435C51.3953 45.1582 52.1346 45.7934 52.9625 46.249C53.7994 46.6975 54.6293 46.9195 55.4523 46.9149C56.2842 46.9032 57.0146 46.6463 57.6433 46.1442C58.8389 45.1894 59.1525 43.7206 58.5843 41.7378C58.5649 41.6953 58.5808 41.6608 58.6322 41.6343C58.6924 41.6007 58.7331 41.5972 58.7543 41.6237L59.9129 43.4832C59.9801 43.6036 60.0145 43.6922 60.0163 43.7488C60.0198 43.7895 59.9958 43.8594 59.9444 43.9585C59.4215 44.8837 58.7261 45.6929 57.8582 46.386C56.7777 47.2488 55.7091 47.7541 54.6523 47.9018C53.5885 48.0407 52.6186 47.916 51.7428 47.5276C50.8759 47.1322 50.156 46.5758 49.5831 45.8585C48.9183 45.026 48.5536 44.1062 48.489 43.099C48.4332 42.0848 48.6403 41.1 49.1102 40.1446C49.58 39.1892 50.2445 38.3685 51.1035 37.6825Z" fill="#F8F4F0"/>
<path d="M70.835 37.6954C70.8844 37.6675 70.9258 37.6832 70.9592 37.7424C70.9926 37.8017 70.9847 37.8452 70.9353 37.8731C70.7478 37.9789 70.4412 38.139 70.0156 38.3532C69.5899 38.5675 69.2833 38.7276 69.0958 38.8334C68.8491 38.9727 68.5635 39.147 68.2391 39.3561C67.9147 39.5653 67.6587 39.7228 67.4712 39.8287C67.4318 39.851 67.3953 39.8325 67.3619 39.7733C67.3284 39.7141 67.3315 39.6733 67.3709 39.651C67.6571 39.4895 67.8477 39.3428 67.9426 39.2112C68.0417 39.0641 68.0495 38.9166 67.9659 38.7685C67.8824 38.6205 67.6564 38.4162 67.2881 38.1556L63.859 35.8162L61.1795 37.3288L61.4854 40.5334C61.5243 40.9019 61.6105 41.2046 61.7443 41.4415C61.9393 41.7869 62.2103 41.9788 62.5573 42.0172C62.9043 42.0555 63.2999 41.9493 63.744 41.6986C63.7933 41.6707 63.8347 41.6864 63.8682 41.7456C63.9016 41.8049 63.8936 41.8484 63.8443 41.8762C63.6666 41.9765 63.4045 42.1115 63.0578 42.2812C62.6716 42.4732 62.3403 42.6472 62.064 42.8032C61.7975 42.9536 61.4922 43.139 61.1481 43.3593C60.8434 43.5574 60.5874 43.7149 60.3802 43.8319C60.3308 43.8597 60.2895 43.8441 60.256 43.7848C60.2226 43.7256 60.2306 43.6821 60.2799 43.6542C60.5562 43.4982 60.7575 43.313 60.8837 43.0986C61.01 42.8842 61.0839 42.5886 61.1056 42.212C61.1216 41.8255 61.097 41.2863 61.0317 40.5943L60.1696 31.6324C60.1726 31.5917 60.2087 31.5518 60.2777 31.5128C60.3468 31.4738 60.3947 31.4663 60.4212 31.4903L68.1767 36.7559C68.9233 37.2715 69.4853 37.5984 69.8627 37.7367C70.2445 37.8596 70.5686 37.8458 70.835 37.6954ZM61.1334 36.8668L63.4724 35.5463L60.8396 33.753L61.1334 36.8668Z" fill="#F8F4F0"/>
<path d="M70.1885 27.166C69.5416 27.4099 69.0821 27.8134 68.8099 28.3763C68.5442 28.9246 68.452 29.6437 68.5332 30.5336C68.5412 30.5548 68.5134 30.5774 68.4498 30.6014C68.3968 30.6214 68.3643 30.6155 68.3523 30.5837C68.2387 30.1541 68.0865 29.6059 67.8956 28.939C67.7007 28.2616 67.5413 27.7585 67.4173 27.4297C67.3973 27.3767 67.4139 27.3402 67.4669 27.3202C67.5305 27.2962 67.5723 27.3107 67.5923 27.3637C67.6803 27.597 68.0212 27.6017 68.615 27.3778C69.539 27.0657 70.6108 26.6798 71.8303 26.2199C72.456 25.984 73.1147 25.7235 73.8066 25.4384L74.8823 25.0146C75.2853 24.8626 75.5669 24.7262 75.7272 24.6052C75.8981 24.4802 75.98 24.3281 75.9731 24.1491C75.9677 24.1027 75.9915 24.0694 76.0445 24.0495C76.0975 24.0295 76.132 24.0407 76.148 24.0831C76.2402 24.4238 76.3963 24.9342 76.6164 25.6143C76.8365 26.2944 77.0245 26.8412 77.1805 27.2548C77.1925 27.2866 77.1667 27.3145 77.103 27.3385C77.05 27.3585 77.0122 27.3546 76.9896 27.3268C76.5757 26.5502 76.1005 26.045 75.5642 25.8112C75.0239 25.5668 74.4197 25.5705 73.7516 25.8225C73.4547 25.9344 73.242 26.0449 73.1135 26.1539C72.9957 26.2589 72.9362 26.3903 72.9352 26.5482C72.9407 26.6914 72.9975 26.9062 73.1055 27.1926L75.8706 34.5256C75.9945 34.8543 76.1163 35.0809 76.2359 35.2054C76.3555 35.3298 76.5208 35.3826 76.7316 35.3636C76.9425 35.3447 77.2547 35.2572 77.6683 35.1013C77.7001 35.0893 77.728 35.1151 77.752 35.1787C77.776 35.2424 77.7721 35.2802 77.7403 35.2922C77.3691 35.4321 77.0755 35.5368 76.8594 35.6062L75.5491 36.0821L74.3143 36.5658C74.0956 36.6604 73.7901 36.7817 73.3977 36.9296C73.3765 36.9376 73.3539 36.9098 73.3299 36.8462C73.3059 36.7826 73.3046 36.7467 73.3258 36.7388C73.7393 36.5828 74.0316 36.4423 74.2025 36.3173C74.384 36.1883 74.4785 36.0376 74.4862 35.8652C74.5004 35.6781 74.4476 35.4255 74.3276 35.1074L71.5505 27.7425C71.4466 27.4668 71.3441 27.2753 71.2431 27.1681C71.1421 27.0608 71.0126 27.0067 70.8548 27.0056C70.6969 27.0046 70.4748 27.0581 70.1885 27.166Z" fill="#F8F4F0"/>
<path d="M83.7272 27.3837C84.8544 27.1271 85.7734 27.1561 86.4844 27.4708C87.1928 27.7745 87.6514 28.3849 87.8602 29.3021C88.0061 29.943 87.9797 30.5418 87.781 31.0985C87.5908 31.6416 87.2496 32.1086 86.7575 32.4996C86.2764 32.8881 85.6822 33.1629 84.975 33.3239C84.6987 33.3868 84.3579 33.4469 83.9525 33.5044C83.0167 33.6825 82.5157 33.7792 82.4494 33.7943L81.3923 34.0523C81.1738 34.1137 80.8656 34.1897 80.4678 34.2802C80.4347 34.2878 80.4105 34.2584 80.3955 34.1921C80.3804 34.1258 80.3894 34.0889 80.4225 34.0813C80.8068 33.9822 81.0768 33.8917 81.2325 33.8098C81.3856 33.7168 81.479 33.5909 81.5126 33.4322C81.5437 33.2624 81.519 33.0007 81.4385 32.647L79.6913 24.9724C79.6108 24.6188 79.521 24.3777 79.422 24.2491C79.3316 24.107 79.1984 24.0327 79.0226 24.0262C78.8468 24.0198 78.563 24.0495 78.1711 24.1155C78.149 24.1205 78.1305 24.0899 78.1154 24.0236C78.1003 23.9573 78.1038 23.9216 78.1259 23.9166L78.9419 23.7482C79.4331 23.6596 79.8445 23.5776 80.176 23.5021C80.5186 23.4241 80.9526 23.3137 81.478 23.1709L82.3693 22.9505C82.4024 22.943 82.4266 22.9723 82.4417 23.0386C82.4568 23.1049 82.4477 23.1419 82.4146 23.1494C81.9997 23.2671 81.7046 23.375 81.5293 23.473C81.3626 23.5574 81.2581 23.6858 81.216 23.8582C81.1849 24.028 81.2096 24.2897 81.2901 24.6433L82.0373 27.9253C82.5893 27.695 83.1526 27.5145 83.7272 27.3837ZM84.5898 33.0106C85.3965 32.8269 85.9259 32.4972 86.1779 32.0214C86.4273 31.5345 86.454 30.8601 86.2577 29.9982C86.0489 29.081 85.7101 28.4607 85.2413 28.1374C84.77 27.803 84.1255 27.7289 83.3077 27.915C83.0094 27.983 82.6148 28.1135 82.1241 28.3066L83.0298 32.2848C83.1103 32.6384 83.2523 32.8792 83.4558 33.0072C83.6703 33.1327 84.0483 33.1338 84.5898 33.0106Z" fill="#F8F4F0"/>
<path d="M94.4548 20.9483C94.9631 20.907 95.4921 20.9094 96.0416 20.9557C96.6025 21.001 97.0475 21.0899 97.3766 21.2223C97.4811 21.2479 97.5469 21.288 97.5741 21.3427C97.6116 21.3851 97.6411 21.468 97.6625 21.5913L98.0451 23.7775C98.0478 23.8114 98.0214 23.8363 97.9659 23.8522C97.9103 23.8681 97.875 23.8539 97.8601 23.8096C97.4608 22.9552 96.9091 22.3235 96.2049 21.9146C95.5121 21.5048 94.7195 21.3361 93.8271 21.4087C92.6523 21.5043 91.7652 21.9915 91.1658 22.8704C90.5665 23.7492 90.3233 24.8833 90.4363 26.2727C90.5209 27.312 90.7793 28.2518 91.2115 29.0922C91.6551 29.9316 92.2194 30.5793 92.9047 31.0352C93.6012 31.4903 94.3505 31.6851 95.1525 31.6199C96.6775 31.4958 97.7581 30.4528 98.3944 28.4907C98.402 28.4446 98.4345 28.4249 98.4919 28.4316C98.5606 28.4374 98.5964 28.4572 98.5991 28.4911L98.5214 30.6806C98.5099 30.818 98.489 30.9107 98.4588 30.9586C98.4389 30.9943 98.38 31.0389 98.282 31.0924C97.3314 31.5677 96.3026 31.8504 95.1956 31.9405C93.8175 32.0526 92.6489 31.8748 91.6898 31.407C90.7298 30.9279 89.9951 30.2827 89.4856 29.4714C88.9874 28.6591 88.7011 27.7955 88.6267 26.8805C88.5403 25.8187 88.7516 24.852 89.2606 23.9805C89.7809 23.1081 90.5027 22.4069 91.4261 21.877C92.3495 21.347 93.3591 21.0375 94.4548 20.9483Z" fill="#F8F4F0"/>
<path d="M108.739 31.7947C108.762 31.7963 108.771 31.831 108.766 31.8988C108.762 31.9666 108.748 31.9998 108.725 31.9983C108.33 31.9715 108.019 31.9448 107.794 31.9182L106.54 31.8163L105.3 31.7495C105.085 31.7462 104.796 31.7324 104.434 31.7079C104.4 31.7056 104.386 31.6705 104.39 31.6027C104.395 31.5348 104.414 31.5021 104.448 31.5044C104.832 31.5304 105.111 31.5209 105.285 31.4758C105.469 31.4315 105.595 31.3321 105.663 31.1776C105.741 31.0239 105.792 30.7718 105.816 30.4213L106.093 26.3336C105.637 26.3595 105.204 26.5461 104.794 26.8932C104.396 27.2298 103.894 27.8546 103.287 28.7677C102.656 29.7019 102.197 30.3581 101.91 30.7363C101.635 31.1039 101.444 31.3238 101.337 31.3961C101.231 31.4571 101.098 31.4822 100.94 31.4715L98.8709 31.3315C98.8482 31.3299 98.8392 31.2952 98.8438 31.2274C98.8484 31.1595 98.862 31.1264 98.8846 31.1279C99.1794 31.1365 99.4448 31.0749 99.6809 30.9433C99.9178 30.8003 100.141 30.6052 100.351 30.3582C100.562 30.0998 100.862 29.6941 101.251 29.1412C101.327 29.0214 101.516 28.7502 101.817 28.3275C102.31 27.5998 102.782 27.0808 103.235 26.7707C103.687 26.4605 104.205 26.2741 104.789 26.2113C103.732 26.0489 102.942 25.7285 102.418 25.25C101.894 24.7602 101.656 24.1591 101.705 23.4468C101.739 22.9379 101.917 22.4956 102.237 22.1197C102.558 21.7439 102.986 21.4661 103.521 21.2864C104.056 21.0955 104.652 21.0222 105.308 21.0666C105.556 21.0834 105.849 21.1203 106.186 21.1772C106.321 21.1976 106.479 21.2197 106.659 21.2432C106.839 21.2668 107.036 21.2858 107.251 21.3003C107.568 21.3218 107.987 21.3388 108.509 21.3514L109.443 21.3975C109.465 21.399 109.474 21.4337 109.47 21.5016C109.465 21.5694 109.451 21.6026 109.429 21.601C109.01 21.5727 108.703 21.586 108.506 21.6408C108.31 21.6844 108.173 21.783 108.094 21.9367C108.027 22.0912 107.982 22.338 107.959 22.6773L107.427 30.5303C107.404 30.8808 107.415 31.1372 107.461 31.2993C107.518 31.4622 107.635 31.578 107.812 31.6468C108 31.7164 108.309 31.7657 108.739 31.7947ZM103.412 23.1364C103.357 23.9505 103.528 24.6152 103.925 25.1305C104.322 25.6458 104.927 25.931 105.741 25.9861C105.9 25.9968 106.024 25.9996 106.116 25.9944L106.345 22.6021C106.376 22.1499 106.284 21.8256 106.07 21.6294C105.868 21.4226 105.598 21.3077 105.259 21.2848C104.117 21.2075 103.501 21.8247 103.412 23.1364Z" fill="#F8F4F0"/>
<path d="M125.038 35.7922C125.07 35.8018 125.077 35.8392 125.058 35.9044C125.038 35.9696 125.012 35.9974 124.98 35.9878C124.61 35.8786 124.313 35.7849 124.088 35.7066L122.903 35.3387L121.512 34.9456C121.313 34.8987 121.051 34.827 120.725 34.7307C120.692 34.7211 120.685 34.6837 120.705 34.6184C120.724 34.5532 120.75 34.5254 120.782 34.5351C121.195 34.6571 121.502 34.7182 121.703 34.7185C121.904 34.7187 122.06 34.6524 122.17 34.5195C122.28 34.3866 122.385 34.1517 122.484 33.8147L123.597 30.0486L118.005 28.3966L116.892 32.1627C116.796 32.4888 116.756 32.7429 116.773 32.9252C116.793 33.0967 116.888 33.2369 117.057 33.3458C117.236 33.4579 117.533 33.575 117.946 33.697C117.967 33.7034 117.969 33.7393 117.949 33.8045C117.93 33.8697 117.91 33.8991 117.888 33.8927C117.518 33.7835 117.232 33.693 117.029 33.6211L115.68 33.205L114.485 32.8697C114.275 32.8196 113.986 32.7399 113.616 32.6308C113.595 32.6243 113.593 32.5885 113.613 32.5233C113.632 32.4581 113.652 32.4287 113.674 32.4351C114.065 32.5507 114.361 32.6086 114.562 32.6089C114.763 32.6091 114.919 32.5428 115.029 32.4099C115.142 32.2661 115.247 32.0312 115.343 31.7051L117.573 24.1566C117.67 23.8306 117.708 23.5818 117.687 23.4104C117.667 23.239 117.573 23.0988 117.404 22.9898C117.238 22.87 116.965 22.754 116.585 22.6416C116.563 22.6351 116.562 22.5993 116.581 22.5341C116.601 22.4689 116.621 22.4395 116.643 22.4459L117.502 22.7175C117.996 22.8869 118.384 23.0134 118.666 23.0969C119.047 23.2093 119.501 23.3317 120.029 23.464L120.898 23.703C120.92 23.7094 120.921 23.7452 120.902 23.8105C120.883 23.8757 120.862 23.9051 120.84 23.8987C120.438 23.7798 120.13 23.7242 119.915 23.7316C119.711 23.7422 119.546 23.8178 119.422 23.9583C119.312 24.0912 119.209 24.3207 119.113 24.6468L118.13 27.9727L123.722 29.6247L124.705 26.2988C124.801 25.9728 124.839 25.724 124.819 25.5526C124.802 25.3703 124.705 25.2176 124.529 25.0946C124.363 24.9748 124.079 24.8555 123.677 24.7367C123.644 24.7271 123.638 24.6896 123.657 24.6244C123.676 24.5592 123.702 24.5314 123.735 24.5411L124.513 24.7886C125.028 24.9644 125.487 25.1118 125.889 25.2306C126.182 25.3173 126.582 25.4236 127.089 25.5495L127.99 25.7981C128.023 25.8078 128.029 25.8452 128.01 25.9104C127.991 25.9756 127.965 26.0034 127.932 25.9938C127.541 25.8782 127.243 25.8257 127.039 25.8363C126.849 25.8393 126.699 25.9072 126.589 26.0401C126.479 26.173 126.376 26.4025 126.279 26.7286L124.049 34.2771C123.953 34.6032 123.913 34.8573 123.93 35.0396C123.951 35.2111 124.04 35.3497 124.198 35.4554C124.366 35.5643 124.646 35.6766 125.038 35.7922Z" fill="#F8F4F0"/>
<path d="M135.251 40.7477C135.302 40.7727 135.313 40.8157 135.283 40.8767C135.253 40.9378 135.213 40.9559 135.162 40.9309C134.968 40.8362 134.663 40.6739 134.245 40.4441C133.828 40.2143 133.523 40.052 133.329 39.9572C133.075 39.8325 132.77 39.6956 132.414 39.5464C132.058 39.3972 131.783 39.2752 131.59 39.1804C131.549 39.1605 131.543 39.12 131.573 39.0589C131.603 38.9978 131.639 38.9773 131.679 38.9972C131.974 39.1419 132.203 39.2161 132.365 39.2198C132.543 39.2184 132.669 39.1414 132.744 38.9887C132.818 38.8361 132.859 38.5342 132.866 38.083L132.855 33.9319L130.092 32.5779L127.623 34.6428C127.341 34.8833 127.14 35.1256 127.02 35.3699C126.846 35.7261 126.841 36.0581 127.005 36.366C127.17 36.6739 127.481 36.94 127.939 37.1644C127.99 37.1894 128.001 37.2324 127.971 37.2934C127.941 37.3545 127.9 37.3725 127.849 37.3476C127.666 37.2578 127.407 37.118 127.071 36.9281C126.694 36.7182 126.363 36.5435 126.078 36.4038C125.803 36.2692 125.478 36.1222 125.101 35.963C124.766 35.8238 124.491 35.7018 124.277 35.5971C124.226 35.5722 124.216 35.5292 124.246 35.4681C124.276 35.407 124.316 35.389 124.367 35.4139C124.652 35.5536 124.919 35.6148 125.167 35.5976C125.415 35.5804 125.701 35.4742 126.023 35.279C126.351 35.0737 126.782 34.7484 127.316 34.3031L134.219 28.523C134.254 28.5024 134.307 28.5096 134.378 28.5445C134.45 28.5794 134.483 28.6146 134.478 28.6502L134.523 38.0241C134.52 38.9314 134.568 39.5798 134.667 39.9693C134.782 40.3536 134.977 40.6131 135.251 40.7477ZM130.447 32.2785L132.859 33.4605L132.849 30.275L130.447 32.2785Z" fill="#F8F4F0"/>
<path d="M146.078 41.7451C146.743 42.3492 147.144 43.0141 147.283 43.7398C147.428 44.4567 147.267 45.1145 146.8 45.7134C146.424 46.1961 145.935 46.5191 145.334 46.6825C144.739 46.837 144.1 46.8273 143.416 46.6537C142.749 46.478 142.111 46.1533 141.503 45.6795C141.11 45.373 140.765 45.0322 140.468 44.6571C140.18 44.289 140 43.9479 139.929 43.6337C139.883 43.5263 139.862 43.4522 139.865 43.4115C139.875 43.3618 139.914 43.2843 139.982 43.179L141.148 41.3508C141.162 41.3329 141.195 41.3369 141.247 41.3628C141.307 41.3957 141.331 41.429 141.319 41.4628C141.038 41.9903 140.878 42.5269 140.841 43.0726C140.819 43.6163 140.91 44.1178 141.112 44.5773C141.314 45.0367 141.603 45.4127 141.979 45.7054C142.488 46.1025 143.029 46.201 143.602 46.0008C144.191 45.7987 144.715 45.4026 145.175 44.8126C145.739 44.0886 145.967 43.3901 145.86 42.717C145.768 42.042 145.36 41.4223 144.636 40.8579C144.6 40.8301 144.603 40.7893 144.645 40.7357C144.687 40.6821 144.726 40.6692 144.762 40.6971C145.423 41.2126 146.051 41.4295 146.647 41.3476C147.242 41.2657 147.777 40.9209 148.251 40.3131C148.725 39.7052 148.97 39.1419 148.986 38.623C149.003 38.1042 148.792 37.6741 148.354 37.3327C147.889 36.9704 147.292 36.8425 146.562 36.9491C145.832 37.0557 145.11 37.3834 144.395 37.9324C144.381 37.9502 144.356 37.9452 144.32 37.9174C144.302 37.9034 144.283 37.8815 144.264 37.8517C144.26 37.8199 144.261 37.7995 144.268 37.7906L145.835 36.167C145.937 36.0737 146.01 36.0161 146.056 35.9943C146.102 35.9725 146.175 35.9795 146.277 36.0154C147.153 36.3106 147.944 36.7333 148.651 37.2838C149.214 37.7227 149.621 38.1769 149.873 38.6463C150.132 39.1068 150.248 39.5488 150.219 39.9722C150.207 40.3936 150.072 40.7697 149.814 41.1005C149.424 41.601 148.863 41.8966 148.131 41.9873C147.409 42.085 146.724 42.0042 146.078 41.7451Z" fill="#F8F4F0"/>
<path d="M153.17 56.0244C153.21 56.0651 153.205 56.1091 153.156 56.1564C153.107 56.2037 153.063 56.2069 153.024 56.1662C152.874 56.0114 152.642 55.7551 152.327 55.3972C152.012 55.0393 151.78 54.783 151.631 54.6282C151.434 54.4245 151.193 54.1921 150.909 53.9309C150.625 53.6697 150.408 53.4617 150.258 53.3069C150.226 53.2743 150.235 53.2344 150.284 53.1871C150.333 53.1398 150.373 53.1325 150.405 53.1651C150.633 53.4013 150.823 53.5487 150.974 53.6074C151.142 53.6663 151.286 53.6366 151.409 53.5184C151.531 53.4002 151.672 53.1301 151.831 52.7079L153.23 48.7999L151.091 46.5882L148.067 47.692C147.72 47.8225 147.449 47.9823 147.254 48.1714C146.969 48.4471 146.851 48.7578 146.902 49.1033C146.952 49.4487 147.154 49.8048 147.509 50.1713C147.548 50.2121 147.544 50.2561 147.495 50.3034C147.446 50.3506 147.402 50.3539 147.362 50.3132C147.22 50.1665 147.024 49.9469 146.772 49.6541C146.489 49.3288 146.237 49.0521 146.017 48.824C145.804 48.6041 145.547 48.3554 145.248 48.0778C144.979 47.8329 144.762 47.6249 144.597 47.4539C144.557 47.4131 144.562 47.3691 144.611 47.3219C144.66 47.2746 144.704 47.2713 144.743 47.312C144.964 47.5401 145.194 47.6882 145.433 47.7563C145.673 47.8244 145.977 47.8215 146.347 47.7475C146.725 47.6656 147.241 47.5059 147.894 47.2683L156.349 44.175C156.389 44.1677 156.437 44.1925 156.492 44.2496C156.547 44.3066 156.567 44.351 156.55 44.3828L153.409 53.2151C153.099 54.0675 152.924 54.6938 152.885 55.0939C152.863 55.4943 152.958 55.8044 153.17 56.0244ZM151.527 46.4271L153.394 48.3578L154.466 45.358L151.527 46.4271Z" fill="#F8F4F0"/>
<path d="M160.061 65.8823C160.08 65.9104 160.061 65.9436 160.005 65.9821C159.949 66.0206 159.912 66.0258 159.892 65.9977C159.674 65.68 159.503 65.4197 159.378 65.217L158.69 64.184L157.858 63.002C157.734 62.8401 157.575 62.619 157.383 62.3386C157.364 62.3106 157.382 62.2773 157.438 62.2389C157.494 62.2004 157.532 62.1952 157.551 62.2232C157.795 62.5784 157.994 62.8194 158.15 62.9462C158.306 63.0731 158.468 63.1197 158.638 63.086C158.807 63.0523 159.036 62.9362 159.326 62.7374L162.565 60.5163L159.267 55.7076L156.028 57.9287C155.748 58.121 155.557 58.2933 155.455 58.4455C155.363 58.5914 155.347 58.7597 155.41 58.9507C155.478 59.151 155.634 59.4287 155.878 59.7838C155.891 59.8025 155.869 59.8311 155.813 59.8696C155.757 59.908 155.723 59.9179 155.71 59.8992C155.492 59.5815 155.327 59.3306 155.214 59.1466L154.43 57.9733L153.714 56.9595C153.583 56.7884 153.409 56.5439 153.191 56.2261C153.178 56.2074 153.199 56.1788 153.255 56.1404C153.312 56.1019 153.346 56.092 153.359 56.1107C153.59 56.4472 153.783 56.6788 153.939 56.8057C154.094 56.9325 154.257 56.9791 154.426 56.9454C154.605 56.9054 154.834 56.7892 155.115 56.5969L161.606 52.145C161.886 51.9527 162.072 51.7837 162.165 51.6378C162.257 51.492 162.272 51.3236 162.21 51.1327C162.157 50.9354 162.019 50.6731 161.794 50.346C161.781 50.3273 161.803 50.2987 161.859 50.2603C161.915 50.2218 161.95 50.2119 161.962 50.2306L162.458 50.9833C162.734 51.426 162.956 51.7689 163.122 52.0119C163.347 52.339 163.622 52.7205 163.948 53.1563L164.472 53.8897C164.485 53.9084 164.463 53.937 164.407 53.9754C164.351 54.0139 164.317 54.0238 164.304 54.0051C164.067 53.6593 163.862 53.4215 163.691 53.2917C163.526 53.1713 163.351 53.1264 163.166 53.1572C162.996 53.1908 162.771 53.3038 162.491 53.4961L159.631 55.4576L162.929 60.2663L165.789 58.3048C166.07 58.1125 166.256 57.9435 166.348 57.7976C166.45 57.6454 166.471 57.4659 166.412 57.2592C166.359 57.0619 166.214 56.7903 165.977 56.4445C165.958 56.4165 165.976 56.3832 166.032 56.3448C166.088 56.3063 166.126 56.3011 166.145 56.3291L166.593 57.0117C166.882 57.4731 167.145 57.8767 167.382 58.2226C167.555 58.4749 167.798 58.8096 168.112 59.2268L168.655 59.9882C168.674 60.0163 168.655 60.0495 168.599 60.088C168.543 60.1264 168.506 60.1316 168.486 60.1036C168.256 59.7671 168.058 59.5387 167.893 59.4183C167.743 59.3008 167.584 59.2589 167.415 59.2925C167.245 59.3262 167.021 59.4392 166.74 59.6315L160.249 64.0833C159.969 64.2756 159.778 64.4479 159.676 64.6001C159.584 64.7459 159.565 64.9096 159.621 65.0912C159.683 65.2822 159.83 65.5459 160.061 65.8823Z" fill="#F8F4F0"/>
<path d="M163.968 74.0988C163.978 74.1193 163.952 74.1442 163.891 74.1737C163.83 74.2032 163.794 74.2077 163.785 74.1873C163.613 73.8298 163.483 73.5465 163.395 73.3373L162.864 72.1963L162.311 71.0854C162.208 70.8962 162.077 70.6383 161.92 70.3114C161.905 70.2808 161.929 70.2507 161.99 70.2213C162.051 70.1918 162.089 70.1924 162.104 70.223C162.271 70.5702 162.417 70.8082 162.542 70.9368C162.671 71.0757 162.82 71.1362 162.987 71.1185C163.16 71.111 163.404 71.0311 163.721 70.8788L167.413 69.1027C167.165 68.7187 166.79 68.4342 166.285 68.2491C165.797 68.0693 165.005 67.9406 163.911 67.8631C162.787 67.775 161.99 67.6994 161.52 67.6365C161.064 67.5789 160.779 67.5213 160.663 67.4638C160.558 67.4013 160.471 67.2986 160.402 67.1556L159.503 65.2866C159.493 65.2662 159.519 65.2413 159.58 65.2118C159.641 65.1823 159.677 65.1778 159.687 65.1982C159.825 65.4588 160.009 65.6593 160.24 65.7997C160.481 65.9352 160.761 66.0333 161.08 66.0939C161.408 66.1496 161.909 66.2104 162.582 66.2765C162.724 66.2837 163.053 66.3141 163.569 66.3676C164.445 66.4367 165.13 66.5916 165.623 66.8323C166.116 67.073 166.534 67.4317 166.876 67.9083C166.496 66.909 166.385 66.0633 166.542 65.3713C166.71 64.6743 167.116 64.1711 167.759 63.8615C168.219 63.6404 168.691 63.5767 169.176 63.6702C169.661 63.7638 170.114 63.9988 170.534 64.3753C170.964 64.7468 171.322 65.2288 171.607 65.8211C171.715 66.0458 171.827 66.3187 171.944 66.6398C171.993 66.7673 172.052 66.9152 172.12 67.0835C172.188 67.2518 172.269 67.433 172.363 67.6271C172.5 67.913 172.692 68.286 172.939 68.746L173.359 69.5812C173.369 69.6016 173.343 69.6266 173.282 69.656C173.221 69.6855 173.185 69.69 173.175 69.6696C172.994 69.2917 172.83 69.0307 172.686 68.8866C172.551 68.7375 172.397 68.6668 172.225 68.6743C172.057 68.692 171.82 68.7745 171.514 68.9219L164.421 72.3341C164.104 72.4864 163.887 72.6225 163.769 72.7424C163.655 72.8724 163.612 73.0314 163.64 73.2194C163.672 73.4176 163.782 73.7107 163.968 74.0988ZM168.872 65.1939C168.136 65.5477 167.642 66.0242 167.39 66.6236C167.138 67.2229 167.188 67.8903 167.542 68.6256C167.611 68.7686 167.67 68.8785 167.719 68.9553L170.783 67.4813C171.192 67.2848 171.429 67.0451 171.494 66.7622C171.574 66.4847 171.54 66.1927 171.393 65.8863C170.897 64.8548 170.056 64.624 168.872 65.1939Z" fill="#F8F4F0"/>
<path d="M174.797 74.5549C174.589 73.8955 174.211 73.4144 173.664 73.1115C173.131 72.8161 172.418 72.6843 171.525 72.7163C171.504 72.7231 171.483 72.6941 171.462 72.6292C171.445 72.5752 171.453 72.5431 171.485 72.5328C171.921 72.4432 172.476 72.3215 173.153 72.1676C173.84 72.0104 174.351 71.879 174.686 71.7734C174.74 71.7563 174.776 71.7748 174.793 71.8289C174.813 71.8937 174.796 71.9347 174.742 71.9517C174.505 72.0267 174.481 72.3668 174.672 72.9721C174.933 73.9119 175.259 75.0033 175.651 76.2464C175.852 76.8841 176.075 77.5562 176.322 78.2628L176.686 79.3602C176.815 79.771 176.936 80.0597 177.048 80.2264C177.163 80.4039 177.311 80.4941 177.49 80.4971C177.536 80.4943 177.568 80.5199 177.585 80.5739C177.602 80.628 177.589 80.6618 177.546 80.6754C177.201 80.7486 176.682 80.8764 175.991 81.0586C175.3 81.2408 174.744 81.3984 174.322 81.5313C174.29 81.5415 174.263 81.5142 174.243 81.4494C174.226 81.3953 174.232 81.3578 174.261 81.3367C175.059 80.9663 175.59 80.5197 175.853 79.9971C176.127 79.4711 176.156 78.8676 175.941 78.1867C175.846 77.884 175.747 77.6656 175.646 77.5313C175.547 77.4078 175.419 77.3412 175.262 77.3314C175.119 77.3291 174.901 77.3739 174.609 77.4659L167.135 79.8222C166.8 79.9278 166.567 80.0369 166.436 80.1495C166.305 80.262 166.243 80.4241 166.25 80.6357C166.258 80.8473 166.328 81.1639 166.461 81.5854C166.471 81.6179 166.444 81.6443 166.379 81.6647C166.314 81.6852 166.276 81.6792 166.266 81.6468C166.147 81.2684 166.059 80.9695 166.001 80.7499L165.598 79.4153L165.183 78.1558C165.101 77.9322 164.997 77.6204 164.871 77.2205C164.864 77.1989 164.893 77.1778 164.958 77.1574C165.023 77.137 165.058 77.1375 165.065 77.1592C165.198 77.5807 165.322 77.8802 165.438 78.0578C165.557 78.2461 165.702 78.3488 165.874 78.366C166.06 78.3905 166.315 78.3517 166.639 78.2495L174.146 75.883C174.427 75.7944 174.624 75.7026 174.736 75.6077C174.849 75.5128 174.91 75.3865 174.92 75.229C174.93 75.0714 174.889 74.8467 174.797 74.5549Z" fill="#F8F4F0"/>
<path d="M169.027 95.0924C169.032 95.126 169.001 95.1479 168.934 95.1583C168.867 95.1686 168.83 95.157 168.825 95.1234C168.767 94.7426 168.725 94.4337 168.7 94.1967L168.528 92.9676L168.291 91.542C168.249 91.3421 168.202 91.0742 168.15 90.7381C168.145 90.7045 168.176 90.6825 168.243 90.6722C168.31 90.6618 168.346 90.6735 168.352 90.7071C168.417 91.1327 168.493 91.4364 168.578 91.6182C168.663 91.8 168.789 91.9125 168.957 91.9555C169.124 91.9986 169.381 91.9934 169.728 91.9399L176.281 90.9307L169.477 86.2853L168.872 86.3784C168.536 86.4302 168.289 86.5026 168.131 86.5957C167.985 86.6871 167.898 86.8323 167.871 87.0313C167.846 87.2416 167.867 87.5595 167.932 87.9852C167.936 88.0076 167.904 88.0239 167.837 88.0343C167.769 88.0446 167.734 88.0386 167.731 88.0162C167.672 87.6354 167.632 87.3377 167.61 87.1231L167.412 85.726L167.207 84.502C167.163 84.2909 167.111 83.995 167.053 83.6141C167.049 83.5917 167.081 83.5753 167.148 83.565C167.216 83.5546 167.251 83.5607 167.254 83.5831C167.316 83.9863 167.39 84.2788 167.476 84.4606C167.561 84.6424 167.687 84.7548 167.854 84.7979C168.033 84.8392 168.29 84.834 168.626 84.7823L176.405 83.5842C176.741 83.5324 176.982 83.4609 177.129 83.3695C177.275 83.2781 177.362 83.1329 177.389 82.9339C177.427 82.7331 177.415 82.4367 177.355 82.0447C177.351 82.0223 177.383 82.0059 177.451 81.9955C177.518 81.9852 177.553 81.9912 177.557 82.0136L177.677 82.9067C177.734 83.4254 177.785 83.8304 177.83 84.1216C177.89 84.5137 177.973 84.9768 178.078 85.511L178.232 86.3989C178.235 86.4213 178.203 86.4377 178.136 86.448C178.069 86.4584 178.034 86.4524 178.03 86.43C177.966 86.0155 177.885 85.7127 177.787 85.5214C177.691 85.3413 177.552 85.225 177.372 85.1725C177.205 85.1294 176.953 85.1338 176.617 85.1855L170.115 86.187L176.903 90.8349L177.474 90.747C177.81 90.6952 178.051 90.6236 178.198 90.5323C178.355 90.4392 178.452 90.2867 178.488 90.0747C178.526 89.8739 178.513 89.5663 178.449 89.1519C178.444 89.1183 178.475 89.0963 178.543 89.0859C178.61 89.0756 178.646 89.0872 178.651 89.1208L178.758 89.9299C178.819 90.471 178.881 90.9488 178.945 91.3632C178.991 91.6657 179.066 92.0728 179.167 92.5846L179.326 93.5061C179.332 93.5397 179.301 93.5617 179.233 93.5721C179.166 93.5824 179.13 93.5708 179.125 93.5372C179.063 93.1339 178.983 92.8423 178.887 92.6622C178.803 92.4916 178.678 92.3848 178.511 92.3417C178.344 92.2987 178.092 92.303 177.756 92.3548L169.977 93.5529C169.641 93.6046 169.394 93.677 169.236 93.7701C169.09 93.8615 169.002 94.0011 168.974 94.1889C168.947 94.388 168.965 94.6891 169.027 95.0924Z" fill="#F8F4F0"/>
<path d="M171.454 103.202C171.477 103.202 171.488 103.225 171.488 103.27C171.488 103.304 171.477 103.333 171.454 103.355C171.443 103.389 171.432 103.406 171.42 103.406C170.559 103.294 169.771 103.239 169.057 103.24C168.966 103.24 168.898 103.223 168.853 103.189C168.819 103.155 168.802 103.087 168.802 102.985L168.792 95.6069C168.792 95.5729 168.826 95.5558 168.894 95.5557C168.962 95.5556 168.996 95.5726 168.996 95.6066C168.996 95.9919 169.025 96.2696 169.082 96.4395C169.139 96.6207 169.247 96.7396 169.405 96.796C169.575 96.8638 169.83 96.8975 170.17 96.897L178.041 96.8864C178.381 96.8859 178.631 96.8516 178.789 96.7834C178.948 96.7265 179.055 96.6074 179.112 96.4259C179.18 96.2445 179.213 95.9668 179.213 95.5928C179.213 95.5588 179.247 95.5418 179.315 95.5417C179.383 95.5416 179.417 95.5585 179.417 95.5925L179.426 102.665C179.426 102.778 179.375 102.835 179.273 102.835L177.064 102.872C177.041 102.872 177.024 102.838 177.012 102.77C177.001 102.713 177.012 102.679 177.046 102.668C178.338 102.394 178.983 101.605 178.981 100.302L178.98 99.6221C178.98 99.2141 178.906 98.9252 178.758 98.7554C178.61 98.5856 178.361 98.501 178.01 98.5014L174.542 98.5061L174.544 100.138C174.546 101.385 174.966 102.008 175.804 102.006C175.838 102.006 175.855 102.035 175.855 102.091C175.856 102.159 175.839 102.193 175.805 102.193L174.326 102.178L173.527 102.196C173.164 102.22 172.869 102.231 172.643 102.232C172.62 102.232 172.609 102.198 172.609 102.13C172.608 102.062 172.62 102.028 172.642 102.028C173.617 102.026 174.104 101.391 174.102 100.122L174.1 98.5067L170.241 98.5119C169.867 98.5124 169.606 98.5808 169.459 98.717C169.312 98.8645 169.238 99.1196 169.239 99.4823L169.24 100.315C169.242 101.834 169.98 102.796 171.454 103.202Z" fill="#F8F4F0"/>
<path d="M135.858 104.335L131.224 100.891L130.558 106.626L135.858 104.335ZM63.9425 96.4965L131.33 104.313L131.445 103.32L64.0577 95.5032L63.9425 96.4965Z" fill="#454545"/>
</svg>
