<svg width="201" height="201" viewBox="0 0 201 201" fill="none" xmlns="http://www.w3.org/2000/svg">
<path d="M166.404 118.428C166.277 118.886 166.295 119.285 166.459 119.625C166.631 119.979 166.895 120.276 167.252 120.517C167.608 120.757 168.005 120.938 168.441 121.06C169.337 121.31 170.076 121.251 170.661 120.885C171.243 120.529 171.653 119.92 171.894 119.058C171.906 119.014 171.945 119.001 172.01 119.02C172.076 119.038 172.103 119.069 172.09 119.112C171.859 119.942 171.902 120.613 172.218 121.125C172.534 121.636 173.052 121.993 173.773 122.193C174.515 122.4 175.13 122.413 175.616 122.23C176.102 122.048 176.419 121.69 176.568 121.155C176.669 120.795 176.655 120.402 176.526 119.978C176.394 119.565 176.16 119.159 175.824 118.759C175.486 118.37 175.052 118.026 174.524 117.726C174.494 117.706 174.493 117.67 174.519 117.619C174.545 117.567 174.569 117.544 174.591 117.55L176.688 118.382C176.813 118.441 176.894 118.487 176.932 118.521C176.97 118.555 176.991 118.625 176.996 118.733C177.025 119.223 177.01 119.696 176.954 120.151C176.909 120.609 176.833 121.029 176.727 121.411C176.526 122.131 176.258 122.692 175.922 123.093C175.584 123.504 175.215 123.772 174.816 123.896C174.425 124.034 174.032 124.048 173.639 123.939C173.257 123.832 172.924 123.633 172.641 123.343C172.368 123.055 172.15 122.718 171.987 122.331C171.822 121.955 171.712 121.566 171.66 121.163C171.604 120.771 171.61 120.414 171.676 120.091L171.743 120.357C171.567 120.99 171.301 121.522 170.946 121.952C170.601 122.386 170.193 122.69 169.721 122.864C169.26 123.041 168.762 123.055 168.227 122.906C167.626 122.739 167.143 122.404 166.777 121.902C166.408 121.411 166.172 120.822 166.07 120.134C165.978 119.45 166.036 118.737 166.243 117.994C166.371 117.536 166.552 117.098 166.786 116.681C167.009 116.261 167.259 115.954 167.536 115.761C167.618 115.677 167.684 115.631 167.734 115.621C167.784 115.612 167.864 115.617 167.977 115.636L170.111 116.019C170.133 116.026 170.142 116.057 170.138 116.115C170.13 116.184 170.109 116.219 170.073 116.22C169.456 116.154 168.892 116.215 168.381 116.402C167.881 116.592 167.458 116.862 167.114 117.213C166.766 117.575 166.529 117.98 166.404 118.428Z" fill="#7382B1"/>
<path d="M169.097 127.055L169.4 127.465L168.005 130.677L167.552 130.61L169.097 127.055ZM161.096 132.754C161.078 132.795 161.038 132.803 160.976 132.775C160.913 132.748 160.891 132.714 160.909 132.672C161.045 132.361 161.195 132.043 161.361 131.719C161.521 131.406 161.667 131.099 161.798 130.797C161.947 130.454 162.068 130.148 162.16 129.88C162.248 129.621 162.359 129.336 162.495 129.024C162.513 128.982 162.553 128.975 162.615 129.002C162.678 129.029 162.7 129.064 162.682 129.105C162.479 129.573 162.44 129.89 162.565 130.056C162.691 130.222 163.052 130.286 163.649 130.249L171.692 129.87L172.459 130.963L166.847 124.854C166.33 124.308 165.851 124.088 165.41 124.193C164.965 124.308 164.609 124.672 164.342 125.286C164.319 125.337 164.277 125.35 164.215 125.323C164.152 125.296 164.132 125.256 164.155 125.204C164.29 124.892 164.425 124.611 164.559 124.36C164.692 124.109 164.845 123.787 165.017 123.392C165.188 122.997 165.316 122.675 165.399 122.427C165.478 122.189 165.591 121.899 165.74 121.556C165.759 121.514 165.799 121.507 165.861 121.534C165.923 121.561 165.946 121.596 165.928 121.637C165.806 121.918 165.759 122.182 165.787 122.429C165.811 122.686 165.931 122.98 166.147 123.308C166.373 123.641 166.709 124.047 167.156 124.525L173.261 131.164C173.283 131.198 173.279 131.252 173.247 131.324C173.215 131.397 173.182 131.432 173.146 131.429L163.784 131.901C163.181 131.924 162.693 131.965 162.321 132.026C161.959 132.091 161.685 132.182 161.498 132.298C161.312 132.415 161.178 132.567 161.096 132.754Z" fill="#7382B1"/>
<path d="M154.748 142.562C154.729 142.59 154.691 142.586 154.635 142.549C154.578 142.511 154.559 142.478 154.577 142.45C154.732 142.213 154.914 141.946 155.123 141.649C155.331 141.352 155.544 141.037 155.761 140.706C156.003 140.336 156.222 139.991 156.418 139.672C156.613 139.353 156.795 139.066 156.963 138.81C156.981 138.782 157.019 138.786 157.076 138.823C157.133 138.861 157.152 138.893 157.133 138.922C156.922 139.244 156.787 139.501 156.729 139.694C156.665 139.895 156.688 140.066 156.799 140.207C156.904 140.357 157.094 140.522 157.369 140.702L163.824 144.933C164.118 145.125 164.336 145.248 164.478 145.3C164.62 145.352 164.737 145.328 164.831 145.226C164.934 145.131 165.079 144.942 165.265 144.657L167.175 141.742C167.368 141.449 167.493 141.226 167.552 141.075C167.604 140.933 167.578 140.807 167.473 140.698C167.369 140.589 167.174 140.441 166.89 140.255L160.434 136.024C160.16 135.844 159.936 135.731 159.762 135.685C159.583 135.649 159.417 135.696 159.264 135.826C159.104 135.966 158.919 136.197 158.708 136.519C158.689 136.547 158.652 136.543 158.595 136.506C158.538 136.468 158.519 136.435 158.537 136.407C158.705 136.151 158.896 135.87 159.111 135.563C159.325 135.257 159.557 134.914 159.805 134.535C160.022 134.203 160.226 133.882 160.415 133.573C160.604 133.263 160.777 132.99 160.932 132.753C160.944 132.734 160.979 132.743 161.036 132.78C161.093 132.818 161.115 132.846 161.103 132.865C160.885 133.196 160.747 133.458 160.689 133.651C160.631 133.843 160.654 134.014 160.759 134.164C160.858 134.324 161.045 134.493 161.32 134.674L167.732 138.876C168.14 139.143 168.48 139.265 168.754 139.24C169.021 139.226 169.316 138.972 169.639 138.479C169.651 138.46 169.686 138.469 169.743 138.506C169.8 138.544 169.822 138.572 169.81 138.591C169.698 138.761 169.479 139.085 169.152 139.563C168.82 140.049 168.425 140.631 167.968 141.307C167.515 141.999 167.046 142.715 166.561 143.454C166.17 144.051 165.797 144.62 165.443 145.16C165.092 145.716 164.771 146.217 164.479 146.663C164.197 147.114 163.965 147.478 163.785 147.753C163.608 148.043 163.501 148.217 163.464 148.274C163.445 148.302 163.408 148.298 163.351 148.261C163.294 148.223 163.275 148.19 163.293 148.162C163.61 147.679 163.725 147.307 163.638 147.046C163.551 146.786 163.304 146.523 162.896 146.255L156.484 142.053C156.209 141.873 155.982 141.765 155.802 141.728C155.623 141.692 155.456 141.739 155.303 141.869C155.144 142.009 154.959 142.24 154.748 142.562Z" fill="#7382B1"/>
<path d="M154.014 144.891L154.458 144.862L155.226 155.767L154.806 155.796L154.014 144.891ZM154.676 142.4C154.692 142.383 154.724 142.398 154.774 142.444C154.824 142.49 154.841 142.522 154.826 142.538C154.557 142.829 154.377 143.065 154.288 143.245C154.198 143.424 154.193 143.597 154.272 143.762C154.342 143.936 154.498 144.135 154.74 144.358L160.515 149.706C160.756 149.929 160.958 150.07 161.12 150.128C161.291 150.193 161.463 150.175 161.635 150.072C161.816 149.977 162.041 149.784 162.311 149.493C162.326 149.476 162.359 149.491 162.409 149.537C162.459 149.583 162.476 149.615 162.461 149.631C162.26 149.847 162.029 150.081 161.766 150.332C161.511 150.59 161.249 150.865 160.979 151.156C160.648 151.513 160.36 151.833 160.114 152.115C159.876 152.405 159.658 152.658 159.457 152.874C159.442 152.891 159.409 152.876 159.359 152.83C159.31 152.784 159.292 152.752 159.308 152.736C159.577 152.445 159.76 152.197 159.857 151.993C159.945 151.797 159.95 151.616 159.872 151.451C159.793 151.286 159.634 151.091 159.392 150.868L153.642 145.543C153.401 145.32 153.195 145.175 153.024 145.11C152.853 145.044 152.678 145.067 152.497 145.178C152.31 145.297 152.081 145.503 151.811 145.794C151.796 145.81 151.763 145.796 151.713 145.749C151.663 145.703 151.646 145.672 151.662 145.655C151.87 145.431 152.105 145.185 152.367 144.918C152.622 144.66 152.915 144.352 153.246 143.994C153.515 143.703 153.773 143.417 154.019 143.135C154.265 142.852 154.484 142.607 154.676 142.4ZM149.779 147.688C149.802 147.663 149.838 147.674 149.888 147.72C149.938 147.766 149.952 147.802 149.929 147.827C149.644 148.134 149.453 148.382 149.356 148.571C149.259 148.759 149.249 148.936 149.328 149.101C149.406 149.266 149.566 149.461 149.807 149.684L155.558 155.009C155.799 155.232 156.005 155.377 156.176 155.442C156.347 155.508 156.526 155.489 156.715 155.386C156.903 155.282 157.14 155.076 157.425 154.769C157.448 154.744 157.485 154.754 157.534 154.801C157.584 154.847 157.598 154.882 157.575 154.907C157.382 155.115 157.154 155.345 156.891 155.595C156.629 155.862 156.332 156.174 156.001 156.532C155.731 156.823 155.47 157.113 155.216 157.404C154.971 157.702 154.752 157.955 154.56 158.163C154.537 158.188 154.5 158.177 154.45 158.131C154.4 158.085 154.387 158.049 154.41 158.024C154.672 157.742 154.847 157.502 154.936 157.306C155.025 157.127 155.031 156.954 154.952 156.788C154.882 156.631 154.726 156.44 154.485 156.217L148.71 150.869C148.469 150.646 148.263 150.501 148.092 150.436C147.921 150.37 147.749 150.389 147.577 150.491C147.397 150.603 147.176 150.8 146.914 151.082C146.891 151.107 146.854 151.097 146.804 151.05C146.754 151.004 146.741 150.969 146.764 150.944C146.957 150.736 147.188 150.494 147.458 150.219C147.728 149.944 147.998 149.661 148.268 149.37C148.599 149.013 148.887 148.693 149.133 148.411C149.371 148.137 149.586 147.896 149.779 147.688Z" fill="#7382B1"/>
<path d="M148.251 163.492C147.867 163.792 147.428 164.077 146.935 164.348C146.448 164.627 146.023 164.801 145.659 164.869C145.558 164.905 145.481 164.908 145.428 164.877C145.374 164.862 145.303 164.809 145.218 164.718L143.697 163.101C143.683 163.084 143.691 163.048 143.722 162.996C143.751 162.959 143.788 162.951 143.834 162.973C144.637 163.467 145.445 163.692 146.258 163.647C147.062 163.608 147.817 163.314 148.522 162.763C149.157 162.267 149.579 161.694 149.788 161.041C149.989 160.396 149.997 159.706 149.812 158.973C149.626 158.256 149.254 157.54 148.696 156.825C148.208 156.2 147.666 155.681 147.071 155.269C146.476 154.856 145.866 154.563 145.241 154.39C144.617 154.216 144.008 154.173 143.416 154.262C142.824 154.35 142.286 154.583 141.804 154.96C141.214 155.42 140.831 156.007 140.655 156.72C140.476 157.449 140.53 158.327 140.815 159.356C140.825 159.405 140.801 159.439 140.742 159.456C140.69 159.482 140.658 159.486 140.644 159.468L139.505 157.596C139.44 157.475 139.406 157.386 139.405 157.329C139.402 157.288 139.427 157.219 139.479 157.12C139.764 156.639 140.089 156.198 140.453 155.799C140.81 155.391 141.19 155.03 141.592 154.716C142.449 154.046 143.287 153.6 144.106 153.378C144.932 153.165 145.704 153.122 146.423 153.251C147.149 153.389 147.808 153.644 148.4 154.015C148.983 154.394 149.47 154.833 149.861 155.333C150.37 155.986 150.696 156.68 150.84 157.416C150.974 158.159 150.956 158.9 150.784 159.638C150.613 160.376 150.309 161.073 149.873 161.73C149.435 162.403 148.894 162.99 148.251 163.492Z" fill="#7382B1"/>
<path d="M138.295 163.622L138.284 164.132L135.216 165.82L134.899 165.491L138.295 163.622ZM128.48 163.24C128.44 163.262 128.404 163.243 128.371 163.184C128.338 163.124 128.342 163.083 128.382 163.061C128.679 162.898 128.993 162.738 129.321 162.583C129.64 162.434 129.944 162.28 130.231 162.121C130.559 161.941 130.842 161.773 131.079 161.616C131.306 161.465 131.569 161.308 131.867 161.144C131.907 161.122 131.943 161.141 131.976 161.2C132.008 161.26 132.005 161.301 131.965 161.323C131.518 161.568 131.294 161.795 131.292 162.003C131.29 162.211 131.537 162.483 132.032 162.819L138.628 167.436L138.566 168.77L137.86 160.504C137.785 159.757 137.541 159.289 137.128 159.103C136.705 158.922 136.2 158.992 135.614 159.315C135.565 159.342 135.523 159.326 135.491 159.266C135.458 159.207 135.466 159.163 135.516 159.136C135.814 158.972 136.092 158.832 136.351 158.715C136.611 158.598 136.929 158.436 137.306 158.228C137.684 158.021 137.981 157.844 138.198 157.699C138.406 157.559 138.673 157.398 139.001 157.218C139.041 157.196 139.077 157.215 139.11 157.275C139.143 157.334 139.139 157.375 139.099 157.397C138.831 157.544 138.633 157.725 138.505 157.938C138.366 158.156 138.282 158.461 138.251 158.853C138.227 159.255 138.245 159.782 138.306 160.434L139.079 169.419C139.075 169.46 139.039 169.499 138.969 169.538C138.9 169.576 138.852 169.583 138.825 169.559L131.128 164.209C130.637 163.858 130.226 163.592 129.894 163.413C129.568 163.243 129.295 163.147 129.077 163.125C128.858 163.104 128.659 163.142 128.48 163.24Z" fill="#7382B1"/>
<path d="M128.929 173.761C129.579 173.524 130.038 173.128 130.305 172.572C130.562 172.019 130.665 171.307 130.612 170.433C130.6 170.401 130.626 170.374 130.69 170.351C130.747 170.342 130.779 170.348 130.787 170.369C130.82 170.526 130.873 170.736 130.945 171C131.02 171.274 131.104 171.569 131.195 171.885C131.276 172.206 131.363 172.512 131.457 172.803C131.545 173.109 131.621 173.352 131.687 173.533C131.707 173.587 131.69 173.623 131.637 173.642C131.573 173.666 131.531 173.651 131.512 173.597C131.473 173.491 131.39 173.431 131.265 173.416C131.132 173.416 130.993 173.431 130.846 173.46C130.704 173.5 130.585 173.537 130.489 173.572C129.562 173.874 128.486 174.248 127.261 174.695C126.505 174.97 125.911 175.193 125.478 175.363C125.039 175.547 124.611 175.715 124.196 175.866C123.813 176.006 123.533 176.132 123.357 176.244C123.174 176.371 123.087 176.53 123.096 176.72C123.101 176.766 123.077 176.799 123.023 176.818C122.97 176.838 122.936 176.826 122.92 176.784C122.869 176.609 122.799 176.369 122.712 176.063C122.629 175.768 122.532 175.454 122.422 175.12C122.316 174.796 122.218 174.494 122.128 174.214C122.042 173.943 121.973 173.739 121.923 173.601C121.915 173.58 121.943 173.557 122.007 173.534C122.06 173.515 122.096 173.514 122.114 173.531C122.538 174.329 123.015 174.843 123.545 175.072C124.079 175.312 124.676 175.311 125.336 175.071C125.623 174.966 125.832 174.86 125.961 174.752C126.091 174.645 126.155 174.507 126.154 174.338C126.157 174.18 126.11 173.968 126.013 173.702L123.329 166.339C123.216 166.03 123.099 165.808 122.977 165.671C122.844 165.539 122.672 165.481 122.461 165.497C122.239 165.518 121.926 165.602 121.522 165.749C121.49 165.761 121.462 165.735 121.439 165.671C121.415 165.607 121.42 165.569 121.452 165.558C121.739 165.453 122.071 165.338 122.448 165.213C122.814 165.091 123.215 164.951 123.651 164.792C124.067 164.641 124.453 164.494 124.812 164.351C125.17 164.208 125.503 164.081 125.812 163.968C125.833 163.96 125.856 163.989 125.879 164.052C125.902 164.116 125.903 164.152 125.882 164.16C125.477 164.307 125.183 164.445 125.001 164.572C124.818 164.699 124.723 164.854 124.718 165.037C124.701 165.224 124.75 165.471 124.862 165.78L127.558 173.175C127.655 173.441 127.753 173.629 127.853 173.737C127.946 173.86 128.077 173.921 128.245 173.92C128.414 173.919 128.642 173.866 128.929 173.761Z" fill="#7382B1"/>
<path d="M114.362 167.36C114.55 167.32 114.791 167.279 115.084 167.239C115.363 167.19 115.659 167.138 115.971 167.082C116.286 167.037 116.593 166.983 116.893 166.918C117.214 166.849 117.556 166.769 117.919 166.679C118.282 166.589 118.603 166.514 118.879 166.454C118.913 166.447 118.936 166.477 118.951 166.543C118.965 166.61 118.956 166.647 118.923 166.654C118.57 166.741 118.311 166.826 118.143 166.909C117.964 166.994 117.858 167.121 117.825 167.291C117.795 167.471 117.816 167.733 117.891 168.077L119.552 175.77C119.626 176.114 119.713 176.356 119.813 176.497C119.902 176.64 120.045 176.713 120.243 176.717C120.432 176.734 120.705 176.71 121.062 176.644C121.085 176.639 121.103 176.67 121.117 176.737C121.132 176.803 121.128 176.839 121.105 176.844C120.817 176.906 120.51 176.96 120.184 177.008C119.861 177.066 119.483 177.142 119.051 177.235C118.619 177.328 118.216 177.421 117.841 177.514C117.469 177.617 117.14 177.7 116.851 177.762C116.829 177.767 116.811 177.736 116.797 177.67C116.782 177.603 116.786 177.568 116.808 177.563C117.183 177.47 117.469 177.374 117.668 177.273C117.855 177.174 117.971 177.039 118.015 176.867C118.048 176.698 118.026 176.436 117.95 176.082L116.295 168.421C116.25 168.211 116.183 168.034 116.094 167.891C115.994 167.75 115.84 167.656 115.633 167.608C115.428 167.571 115.131 167.594 114.744 167.678C113.924 167.855 113.392 168.184 113.148 168.666C112.896 169.161 112.86 169.83 113.042 170.671C113.174 171.281 113.364 171.761 113.614 172.113C113.853 172.467 114.169 172.695 114.562 172.796C114.946 172.91 115.415 172.907 115.969 172.787C116.246 172.728 116.54 172.641 116.852 172.527C117.163 172.414 117.482 172.281 117.809 172.129L117.955 172.48C117.577 172.666 117.177 172.828 116.755 172.965C116.335 173.114 115.931 173.23 115.543 173.314C114.812 173.472 114.165 173.507 113.601 173.42C113.028 173.347 112.561 173.141 112.198 172.802C111.824 172.465 111.568 171.981 111.432 171.35C111.293 170.707 111.326 170.109 111.531 169.554C111.739 169.011 112.085 168.548 112.57 168.165C113.056 167.781 113.653 167.513 114.362 167.36Z" fill="#7382B1"/>
<path d="M104.767 179.603C104.281 179.637 103.758 179.628 103.198 179.577C102.638 179.536 102.188 179.443 101.849 179.296C101.745 179.269 101.679 179.228 101.653 179.173C101.616 179.131 101.587 179.047 101.567 178.924L101.209 176.733C101.208 176.711 101.235 176.686 101.289 176.66C101.334 176.645 101.369 176.66 101.395 176.703C101.784 177.562 102.329 178.2 103.028 178.617C103.716 179.035 104.507 179.212 105.4 179.15C106.203 179.094 106.873 178.854 107.412 178.43C107.939 178.007 108.331 177.44 108.588 176.729C108.835 176.03 108.926 175.228 108.863 174.324C108.808 173.532 108.648 172.799 108.385 172.125C108.122 171.45 107.78 170.866 107.36 170.373C106.939 169.88 106.458 169.504 105.918 169.247C105.377 168.989 104.801 168.882 104.191 168.924C103.445 168.977 102.799 169.249 102.254 169.742C101.699 170.246 101.252 171.005 100.914 172.017C100.894 172.063 100.855 172.077 100.797 172.059C100.74 172.051 100.711 172.036 100.709 172.014L100.812 169.825C100.825 169.688 100.847 169.596 100.877 169.548C100.898 169.513 100.957 169.469 101.056 169.416C101.561 169.176 102.077 168.993 102.602 168.865C103.126 168.726 103.643 168.639 104.151 168.603C105.237 168.527 106.181 168.626 106.984 168.9C107.788 169.184 108.452 169.581 108.976 170.089C109.501 170.609 109.905 171.189 110.188 171.828C110.46 172.468 110.618 173.105 110.662 173.738C110.72 174.563 110.603 175.321 110.31 176.012C110.006 176.703 109.577 177.307 109.022 177.823C108.468 178.339 107.826 178.747 107.097 179.048C106.358 179.361 105.581 179.546 104.767 179.603Z" fill="#7382B1"/>
<path d="M90.5817 168.59C90.5591 168.588 90.5503 168.553 90.5554 168.486C90.5605 168.418 90.5744 168.385 90.597 168.386C90.9021 168.409 91.2407 168.441 91.6128 168.48C91.9736 168.519 92.3631 168.554 92.7812 168.585C93.1994 168.617 93.5841 168.64 93.9352 168.655C94.2864 168.67 94.6033 168.688 94.8858 168.71C94.9197 168.712 94.9341 168.748 94.929 168.815C94.9239 168.883 94.9044 168.916 94.8705 168.913C94.4976 168.885 94.2185 168.892 94.0335 168.935C93.8484 168.978 93.7212 169.082 93.6519 169.248C93.5713 169.412 93.5187 169.658 93.494 169.986L93.177 174.19L92.624 174.063C92.9292 174.086 93.2082 174.079 93.4611 174.041C93.7139 174.003 93.9659 173.903 94.2168 173.74C94.4565 173.576 94.7251 173.329 95.0228 172.999C95.3091 172.668 95.6383 172.222 96.0103 171.659C96.496 170.945 96.8781 170.4 97.1565 170.023C97.4237 169.646 97.631 169.383 97.7786 169.235C97.9148 169.086 98.029 169.004 98.1211 168.988C98.2019 168.971 98.2932 168.967 98.3949 168.974L100.446 169.129C100.469 169.131 100.477 169.165 100.472 169.233C100.467 169.301 100.453 169.334 100.431 169.332C100.057 169.316 99.7376 169.405 99.4728 169.601C99.1958 169.808 98.9108 170.121 98.6176 170.542C98.3132 170.963 97.9328 171.485 97.4765 172.11C97.0567 172.704 96.665 173.151 96.3012 173.454C95.9375 173.756 95.5584 173.96 95.1639 174.067C94.7573 174.184 94.3154 174.242 93.8382 174.24L93.7284 174.112C95.0498 174.223 96.0321 174.536 96.6753 175.05C97.3184 175.565 97.6106 176.212 97.5518 176.992C97.5126 177.511 97.3316 177.952 97.0088 178.315C96.6739 178.687 96.244 178.962 95.7193 179.138C95.1824 179.325 94.5918 179.394 93.9477 179.345C93.7103 179.327 93.3952 179.287 93.0022 179.223C92.6092 179.159 92.2714 179.117 91.9889 179.095C91.5708 179.064 91.1804 179.04 90.818 179.024C90.4546 179.019 90.1204 179.006 89.8152 178.983C89.7926 178.981 89.7839 178.946 89.789 178.878C89.7941 178.811 89.808 178.778 89.8306 178.779C90.2374 178.81 90.5395 178.799 90.7367 178.745C90.9331 178.703 91.0716 178.6 91.1521 178.436C91.2206 178.282 91.2671 178.041 91.2919 177.713L91.8835 169.864C91.9082 169.537 91.8987 169.286 91.855 169.112C91.8 168.937 91.6785 168.815 91.4907 168.744C91.3028 168.673 90.9998 168.621 90.5817 168.59ZM95.8416 177.289C95.9013 176.498 95.7407 175.838 95.3601 175.309C94.9794 174.78 94.3709 174.484 93.5346 174.421C93.3877 174.41 93.2174 174.409 93.0235 174.417C92.8297 174.425 92.675 174.442 92.5594 174.467L93.1668 174.325L92.9048 177.801C92.8801 178.128 92.9231 178.387 93.0338 178.577C93.1332 178.767 93.2707 178.902 93.4464 178.984C93.6108 179.064 93.7891 179.112 93.9812 179.126C95.1227 179.212 95.7428 178.6 95.8416 177.289Z" fill="#7382B1"/>
<path d="M74.5201 173.846C74.4234 174.16 74.3824 174.408 74.3974 174.591C74.4123 174.773 74.5073 174.927 74.6822 175.052C74.8572 175.177 75.145 175.301 75.5458 175.425C75.5783 175.435 75.5845 175.472 75.5645 175.537C75.5445 175.602 75.5182 175.63 75.4857 175.62C75.2149 175.536 74.9096 175.43 74.5697 175.302C74.2156 175.181 73.8057 175.049 73.3399 174.905C72.9608 174.789 72.5855 174.679 72.2139 174.576C71.839 174.485 71.5161 174.397 71.2453 174.314C71.2128 174.304 71.2066 174.266 71.2266 174.201C71.2466 174.136 71.2729 174.109 71.3054 174.119C71.6845 174.235 71.9815 174.291 72.1965 174.286C72.3973 174.289 72.5552 174.219 72.6702 174.076C72.7819 173.945 72.8862 173.722 72.9829 173.408L75.2999 165.886C75.3967 165.572 75.4376 165.323 75.4226 165.141C75.4077 164.958 75.3165 164.812 75.1491 164.701C74.9708 164.587 74.6921 164.471 74.313 164.354C74.2805 164.344 74.2743 164.307 74.2943 164.242C74.3143 164.177 74.3406 164.149 74.373 164.159C74.6438 164.243 74.9617 164.347 75.3266 164.471C75.6915 164.595 76.0635 164.716 76.4426 164.832C76.9084 164.976 77.3216 165.097 77.6824 165.196C78.0323 165.292 78.3427 165.382 78.6134 165.465C78.6459 165.475 78.6522 165.513 78.6322 165.578C78.6121 165.643 78.5859 165.67 78.5534 165.66C78.1526 165.537 77.8464 165.472 77.6348 165.466C77.4232 165.461 77.2598 165.529 77.1448 165.671C77.0298 165.814 76.9239 166.042 76.8271 166.356L74.5201 173.846ZM82.0886 172.086L81.9585 172.508L74.8424 170.316L74.9725 169.894L82.0886 172.086ZM83.9594 168.553L81.6424 176.075C81.5457 176.389 81.5064 176.632 81.5247 176.804C81.5396 176.986 81.6308 177.133 81.7983 177.244C81.9624 177.366 82.234 177.485 82.6131 177.602C82.6348 177.608 82.6356 177.644 82.6156 177.709C82.5955 177.774 82.5747 177.803 82.553 177.797C82.2714 177.71 81.9607 177.602 81.6207 177.474C81.2775 177.356 80.9163 177.239 80.5372 177.122C80.0715 176.979 79.6582 176.857 79.2975 176.758C78.9334 176.67 78.6105 176.582 78.3289 176.495C78.3072 176.489 78.3064 176.453 78.3264 176.388C78.3464 176.323 78.3673 176.294 78.3889 176.3C78.7789 176.421 79.0813 176.478 79.2963 176.473C79.5113 176.468 79.6763 176.395 79.7913 176.252C79.9063 176.11 80.0122 175.881 80.109 175.567L82.416 168.078C82.5127 167.763 82.5537 167.515 82.5387 167.333C82.5238 167.15 82.4272 167.002 82.2489 166.888C82.0598 166.77 81.7757 166.653 81.3966 166.536C81.3749 166.53 81.3741 166.494 81.3941 166.429C81.4141 166.364 81.435 166.335 81.4566 166.341C81.7491 166.431 82.0723 166.537 82.4264 166.658C82.7697 166.775 83.1742 166.906 83.6399 167.049C84.019 167.166 84.3889 167.274 84.7497 167.373C85.1105 167.473 85.4262 167.564 85.697 167.647C85.7187 167.654 85.7195 167.69 85.6995 167.755C85.6795 167.82 85.6586 167.849 85.637 167.842C85.2579 167.726 84.9679 167.666 84.7671 167.663C84.5663 167.661 84.4084 167.731 84.2934 167.873C84.1675 168.012 84.0562 168.239 83.9594 168.553Z" fill="#7382B1"/>
<path d="M69.515 167.614L69.0894 167.896L65.9565 166.331L66.0475 165.882L69.515 167.614ZM64.2507 159.322C64.2101 159.302 64.205 159.261 64.2354 159.2C64.2658 159.14 64.3013 159.119 64.3418 159.139C64.646 159.291 64.9553 159.459 65.2696 159.641C65.5737 159.818 65.8728 159.98 66.1669 160.127C66.5015 160.294 66.8005 160.431 67.0642 160.537C67.3176 160.639 67.5964 160.765 67.9006 160.917C67.9411 160.937 67.9462 160.978 67.9158 161.039C67.8855 161.1 67.85 161.12 67.8094 161.1C67.3532 160.872 67.0389 160.816 66.8666 160.933C66.6944 161.049 66.6109 161.407 66.6162 162.005L66.5662 170.056L65.4337 170.763L71.833 165.485C72.4055 164.998 72.6512 164.531 72.5699 164.085C72.4785 163.634 72.1337 163.26 71.5355 162.961C71.4848 162.935 71.4746 162.892 71.505 162.831C71.5354 162.771 71.5759 162.753 71.6266 162.778C71.9308 162.93 72.2045 163.08 72.4479 163.226C72.6912 163.373 73.0055 163.543 73.3908 163.735C73.7761 163.928 74.0904 164.072 74.3337 164.168C74.5669 164.26 74.8508 164.389 75.1854 164.556C75.2259 164.576 75.231 164.617 75.2006 164.677C75.1702 164.738 75.1348 164.759 75.0942 164.738C74.8205 164.602 74.5594 164.541 74.3111 164.556C74.0526 164.566 73.7536 164.67 73.4141 164.868C73.0695 165.076 72.6464 165.391 72.1448 165.811L65.1907 171.554C65.1552 171.575 65.102 171.567 65.0311 171.531C64.9601 171.496 64.9271 171.461 64.9322 171.425L64.9588 162.051C64.9687 161.448 64.9533 160.959 64.9126 160.584C64.8669 160.219 64.7907 159.94 64.6842 159.748C64.5777 159.555 64.4332 159.413 64.2507 159.322Z" fill="#7382B1"/>
<path d="M57.5645 154.231C57.1924 153.934 56.8178 153.795 56.4408 153.813C56.0479 153.833 55.6711 153.96 55.3104 154.194C54.9497 154.429 54.628 154.723 54.3453 155.077C53.7659 155.804 53.5307 156.508 53.6397 157.189C53.7398 157.863 54.1399 158.479 54.8399 159.038C54.8753 159.066 54.8719 159.107 54.8295 159.16C54.7871 159.213 54.7481 159.225 54.7127 159.197C54.0393 158.66 53.4053 158.437 52.8107 158.528C52.2162 158.62 51.6857 158.958 51.2193 159.542C50.7388 160.145 50.4874 160.705 50.4652 161.224C50.443 161.743 50.649 162.175 51.0831 162.521C51.3755 162.755 51.7421 162.895 52.1829 162.942C52.6149 162.982 53.0803 162.925 53.5792 162.772C54.0692 162.612 54.5555 162.348 55.0382 161.979C55.0682 161.96 55.1019 161.972 55.1391 162.016C55.1764 162.06 55.1879 162.091 55.1738 162.109L53.5886 163.715C53.4861 163.807 53.4118 163.864 53.3658 163.885C53.3198 163.907 53.2464 163.899 53.1454 163.862C52.6832 163.696 52.2537 163.498 51.8569 163.269C51.453 163.048 51.096 162.814 50.7858 162.567C50.201 162.101 49.7897 161.635 49.5518 161.17C49.3051 160.698 49.2026 160.253 49.2445 159.837C49.2704 159.423 49.4105 159.057 49.6649 158.738C49.9122 158.428 50.2252 158.199 50.6037 158.051C50.9752 157.913 51.3707 157.844 51.7902 157.845C52.2008 157.839 52.6018 157.891 52.9931 158C53.3756 158.102 53.7024 158.246 53.9735 158.434L53.7026 158.392C53.1887 157.982 52.803 157.529 52.5456 157.034C52.2811 156.548 52.1609 156.053 52.1849 155.55C52.2019 155.057 52.3835 154.593 52.7297 154.158C53.1184 153.671 53.6153 153.357 54.2204 153.216C54.8166 153.069 55.4512 153.082 56.124 153.256C56.7898 153.439 57.424 153.771 58.0265 154.251C58.3986 154.548 58.731 154.886 59.0237 155.264C59.3233 155.633 59.508 155.984 59.5775 156.314C59.6219 156.422 59.6388 156.501 59.6283 156.551C59.6177 156.6 59.5816 156.673 59.5198 156.769L58.3331 158.584C58.319 158.601 58.2862 158.597 58.2349 158.571C58.1746 158.537 58.1507 158.503 58.163 158.47C58.4649 157.928 58.6295 157.385 58.657 156.842C58.6774 156.307 58.5935 155.812 58.4052 155.358C58.208 154.896 57.9278 154.52 57.5645 154.231Z" fill="#7382B1"/>
<path d="M48.4566 153.213L47.9603 153.332L45.5534 150.788L45.7926 150.398L48.4566 153.213ZM46.3527 143.619C46.3216 143.586 46.3307 143.546 46.3801 143.499C46.4295 143.453 46.4698 143.446 46.5009 143.479C46.7346 143.726 46.9678 143.989 47.2006 144.268C47.4256 144.538 47.6511 144.793 47.877 145.032C48.134 145.304 48.3682 145.535 48.5794 145.725C48.7828 145.907 49.0013 146.121 49.235 146.368C49.2662 146.401 49.2571 146.441 49.2077 146.488C49.1583 146.534 49.118 146.541 49.0868 146.508C48.7363 146.138 48.4601 145.978 48.2583 146.029C48.0565 146.079 47.8556 146.386 47.6556 146.95L44.8496 154.497L43.5433 154.773L51.364 152.007C52.0687 151.746 52.4593 151.392 52.5358 150.945C52.6045 150.49 52.4091 150.019 51.9495 149.534C51.9105 149.493 51.9157 149.449 51.9651 149.402C52.0145 149.355 52.0587 149.352 52.0977 149.394C52.3313 149.641 52.5373 149.875 52.7156 150.096C52.8939 150.317 53.131 150.585 53.427 150.897C53.723 151.21 53.9688 151.454 54.1644 151.627C54.3523 151.793 54.5747 152.011 54.8318 152.283C54.8629 152.316 54.8538 152.356 54.8044 152.403C54.755 152.449 54.7147 152.456 54.6836 152.423C54.4733 152.201 54.2488 152.054 54.0103 151.984C53.7639 151.905 53.4474 151.9 53.0607 151.97C52.6657 152.047 52.1605 152.197 51.545 152.421L43.044 155.433C43.0037 155.44 42.9563 155.414 42.9018 155.357C42.8473 155.299 42.8285 155.254 42.8454 155.223L46.0828 146.425C46.2988 145.862 46.4519 145.397 46.5422 145.031C46.6243 144.673 46.6482 144.385 46.6142 144.167C46.5801 143.95 46.4929 143.767 46.3527 143.619Z" fill="#7382B1"/>
<path d="M33.9004 141.307C33.6273 141.49 33.4391 141.657 33.3357 141.809C33.2323 141.96 33.2091 142.139 33.2662 142.346C33.3232 142.554 33.4684 142.831 33.7018 143.18C33.7208 143.208 33.702 143.241 33.6455 143.279C33.589 143.317 33.5513 143.322 33.5324 143.293C33.3747 143.058 33.2043 142.783 33.0213 142.469C32.8225 142.152 32.5875 141.791 32.3163 141.387C32.0955 141.057 31.8732 140.735 31.6493 140.421C31.416 140.114 31.2205 139.842 31.0628 139.607C31.0439 139.579 31.0627 139.546 31.1192 139.508C31.1757 139.47 31.2134 139.465 31.2323 139.494C31.4531 139.823 31.6485 140.054 31.8185 140.185C31.9728 140.314 32.1395 140.359 32.3186 140.321C32.4883 140.289 32.7096 140.182 32.9827 139.999L39.5219 135.618C39.7949 135.435 39.9832 135.268 40.0865 135.117C40.1899 134.966 40.2115 134.794 40.1514 134.603C40.0849 134.402 39.9413 134.137 39.7205 133.807C39.7016 133.779 39.7204 133.746 39.7769 133.708C39.8334 133.67 39.8711 133.665 39.89 133.693C40.0477 133.929 40.2291 134.21 40.4341 134.536C40.6392 134.863 40.8521 135.191 41.0729 135.52C41.3441 135.925 41.5885 136.28 41.8061 136.584C42.0174 136.879 42.2019 137.144 42.3596 137.38C42.3785 137.408 42.3597 137.441 42.3032 137.479C42.2467 137.517 42.209 137.521 42.1901 137.493C41.9567 137.145 41.7597 136.902 41.5991 136.764C41.4384 136.626 41.2686 136.576 41.0895 136.614C40.9104 136.652 40.6843 136.763 40.4113 136.946L33.9004 141.307ZM40.8862 144.71L40.519 144.956L36.3747 138.77L36.7419 138.524L40.8862 144.71ZM44.565 143.146L38.0259 147.527C37.7528 147.71 37.5693 147.873 37.4753 148.018C37.3719 148.169 37.3503 148.341 37.4105 148.532C37.4612 148.73 37.597 148.994 37.8177 149.324C37.8304 149.342 37.8084 149.371 37.7519 149.409C37.6954 149.446 37.6609 149.456 37.6483 149.437C37.4843 149.192 37.3107 148.913 37.1277 148.599C36.9353 148.291 36.7287 147.973 36.5079 147.643C36.2367 147.238 35.9923 146.884 35.7747 146.579C35.5477 146.281 35.3522 146.01 35.1882 145.765C35.1756 145.746 35.1975 145.718 35.254 145.68C35.3105 145.642 35.345 145.633 35.3577 145.651C35.5847 145.99 35.7833 146.226 35.9533 146.357C36.1234 146.489 36.2979 146.536 36.477 146.498C36.6561 146.459 36.8822 146.349 37.1552 146.166L43.6662 141.804C43.9392 141.621 44.1274 141.454 44.2308 141.303C44.3342 141.152 44.3527 140.976 44.2862 140.775C44.2134 140.564 44.0667 140.294 43.8459 139.965C43.8333 139.946 43.8552 139.918 43.9117 139.88C43.9682 139.842 44.0028 139.832 44.0154 139.851C44.1857 140.106 44.3702 140.391 44.569 140.708C44.7614 141.016 44.9932 141.372 45.2645 141.777C45.4853 142.106 45.7044 142.423 45.922 142.728C46.1396 143.032 46.3272 143.302 46.4849 143.538C46.4975 143.556 46.4756 143.585 46.4191 143.623C46.3626 143.66 46.3281 143.67 46.3154 143.651C46.0947 143.322 45.9071 143.092 45.7528 142.964C45.5985 142.835 45.4318 142.79 45.2527 142.828C45.0673 142.857 44.8381 142.963 44.565 143.146Z" fill="#7382B1"/>
<path d="M35.9091 125.503C35.8995 125.483 35.9255 125.458 35.9871 125.429C36.0487 125.4 36.0843 125.396 36.0939 125.417C36.2235 125.694 36.3624 126.004 36.5106 126.348C36.654 126.681 36.8145 127.038 36.9921 127.418C37.1698 127.797 37.3381 128.144 37.4972 128.458C37.6563 128.771 37.7959 129.056 37.9159 129.313C37.9303 129.343 37.9067 129.373 37.8451 129.402C37.7835 129.431 37.7455 129.43 37.7311 129.399C37.5727 129.06 37.4294 128.821 37.3013 128.681C37.1731 128.54 37.02 128.481 36.842 128.501C36.6592 128.512 36.419 128.586 36.1213 128.726L32.3022 130.512L32.1416 129.967C32.2712 130.245 32.4145 130.484 32.5715 130.686C32.7284 130.888 32.9394 131.058 33.2045 131.197C33.4648 131.325 33.8117 131.439 34.2452 131.536C34.6738 131.623 35.2247 131.691 35.8978 131.739C36.7578 131.812 37.4203 131.878 37.8852 131.936C38.3453 131.983 38.6761 132.035 38.8774 132.091C39.074 132.137 39.2017 132.196 39.2606 132.268C39.3148 132.331 39.3634 132.408 39.4067 132.5L40.2781 134.364C40.2877 134.384 40.2617 134.409 40.2001 134.438C40.1385 134.466 40.1029 134.471 40.0933 134.45C39.9246 134.116 39.6899 133.882 39.3892 133.747C39.0734 133.607 38.6602 133.513 38.1494 133.464C37.6338 133.405 36.9918 133.329 36.2235 133.238C35.5005 133.164 34.918 133.042 34.4763 132.873C34.0345 132.704 33.6705 132.474 33.384 132.183C33.0825 131.886 32.8156 131.529 32.5831 131.112L32.6405 130.954C33.192 132.16 33.4013 133.169 33.2684 133.982C33.1356 134.795 32.715 135.367 32.0066 135.698C31.5343 135.919 31.0613 135.978 30.5874 135.874C30.0985 135.765 29.6484 135.525 29.2373 135.154C28.8112 134.778 28.4612 134.297 28.1876 133.712C28.0868 133.497 27.9677 133.202 27.8305 132.828C27.6933 132.454 27.5646 132.139 27.4446 131.883C27.267 131.503 27.0962 131.151 26.9323 130.827C26.7581 130.508 26.6062 130.21 26.4766 129.933C26.467 129.913 26.493 129.888 26.5546 129.859C26.6162 129.83 26.6518 129.826 26.6614 129.847C26.8342 130.216 26.9922 130.474 27.1355 130.62C27.2684 130.77 27.4263 130.84 27.6091 130.83C27.7768 130.814 28.0095 130.736 28.3073 130.597L35.4371 127.263C35.7348 127.124 35.9487 126.992 36.0787 126.869C36.2039 126.735 36.2513 126.569 36.221 126.371C36.1907 126.172 36.0868 125.883 35.9091 125.503ZM30.9087 134.354C31.6273 134.018 32.1236 133.554 32.3977 132.963C32.6718 132.372 32.6312 131.697 32.2759 130.937C32.2135 130.803 32.1312 130.654 32.029 130.489C31.9269 130.324 31.8364 130.198 31.7576 130.11L32.1791 130.569L29.0222 132.046C28.7245 132.185 28.5199 132.349 28.4085 132.539C28.2922 132.719 28.2417 132.905 28.2569 133.098C28.2673 133.281 28.3134 133.459 28.395 133.634C28.8799 134.671 29.7178 134.911 30.9087 134.354Z" fill="#7382B1"/>
<path d="M25.2192 125.241C25.4221 125.902 25.7944 126.381 26.3358 126.677C26.874 126.962 27.5805 127.101 28.4554 127.093C28.4879 127.083 28.5141 127.11 28.5341 127.175C28.5399 127.233 28.532 127.265 28.5103 127.271C28.352 127.296 28.1395 127.338 27.8728 127.396C27.5953 127.458 27.2961 127.526 26.9753 127.601C26.6511 127.665 26.3411 127.736 26.0453 127.815C25.7353 127.887 25.4882 127.951 25.304 128.007C25.2499 128.024 25.2144 128.005 25.1978 127.951C25.1778 127.886 25.1949 127.845 25.2491 127.829C25.3575 127.795 25.4221 127.716 25.443 127.591C25.4497 127.459 25.4423 127.319 25.4207 127.171C25.3883 127.027 25.3571 126.906 25.3271 126.809C25.0734 125.867 24.7553 124.773 24.3726 123.527C24.1363 122.758 23.9446 122.153 23.7973 121.712C23.6359 121.264 23.4903 120.828 23.3605 120.406C23.2407 120.016 23.1292 119.73 23.026 119.548C22.9086 119.359 22.7549 119.264 22.5649 119.263C22.5183 119.266 22.4866 119.24 22.47 119.186C22.4533 119.131 22.4667 119.098 22.51 119.084C22.6867 119.042 22.93 118.985 23.24 118.914C23.5392 118.845 23.8584 118.765 24.1975 118.673C24.5259 118.584 24.8326 118.501 25.1176 118.426C25.3917 118.353 25.5993 118.296 25.7401 118.252C25.7618 118.246 25.7826 118.275 25.8025 118.34C25.8192 118.394 25.8183 118.43 25.8 118.447C24.9807 118.829 24.4431 119.279 24.187 119.796C23.9201 120.317 23.8898 120.913 24.0961 121.585C24.1859 121.877 24.2812 122.091 24.382 122.226C24.4828 122.361 24.6173 122.433 24.7856 122.44C24.9431 122.451 25.1572 122.415 25.4281 122.332L32.9197 120.031C33.2339 119.934 33.4622 119.829 33.6048 119.714C33.744 119.588 33.8107 119.419 33.805 119.208C33.7959 118.985 33.7282 118.668 33.6017 118.256C33.5918 118.224 33.6193 118.198 33.6843 118.178C33.7493 118.158 33.7868 118.164 33.7967 118.196C33.8866 118.489 33.9843 118.826 34.09 119.209C34.1923 119.581 34.3116 119.989 34.4481 120.433C34.5778 120.855 34.7047 121.249 34.8287 121.614C34.9527 121.979 35.0629 122.319 35.1594 122.633C35.166 122.654 35.1369 122.675 35.0719 122.695C35.0069 122.715 34.971 122.714 34.9644 122.693C34.8379 122.281 34.716 121.981 34.5986 121.791C34.4812 121.602 34.3313 121.5 34.1488 121.485C33.963 121.459 33.713 121.494 33.3988 121.591L25.8748 123.902C25.6039 123.985 25.4118 124.074 25.2984 124.168C25.1709 124.254 25.1034 124.382 25.0958 124.55C25.0882 124.718 25.1293 124.949 25.2192 125.241Z" fill="#7382B1"/>
<path d="M31.4739 113.894L31.2166 114.257L22.2681 107.976L22.511 107.633L31.4739 113.894ZM32.9902 115.979C32.9934 116.001 32.9613 116.017 32.894 116.027C32.8267 116.036 32.7914 116.03 32.7883 116.007C32.7323 115.615 32.6627 115.327 32.5794 115.144C32.4961 114.962 32.3655 114.849 32.1876 114.805C32.0081 114.751 31.7557 114.747 31.4303 114.793L23.638 115.903C23.3127 115.95 23.0762 116.018 22.9287 116.107C22.77 116.199 22.6762 116.344 22.6473 116.542C22.6072 116.743 22.6151 117.039 22.671 117.432C22.6742 117.454 22.6422 117.47 22.5748 117.48C22.5075 117.49 22.4723 117.483 22.4691 117.461C22.4275 117.169 22.3924 116.842 22.3636 116.48C22.3237 116.119 22.2757 115.742 22.2198 115.35C22.151 114.867 22.0847 114.442 22.0207 114.073C21.9455 113.706 21.8871 113.377 21.8455 113.085C21.8423 113.062 21.8744 113.046 21.9417 113.037C22.009 113.027 22.0443 113.034 22.0475 113.056C22.1035 113.449 22.1803 113.747 22.278 113.951C22.3741 114.143 22.5111 114.261 22.689 114.304C22.8669 114.347 23.1185 114.346 23.4439 114.3L31.2025 113.194C31.5279 113.148 31.7699 113.079 31.9286 112.988C32.0873 112.896 32.1804 112.746 32.2077 112.536C32.2334 112.314 32.2183 112.008 32.1623 111.615C32.1591 111.592 32.1912 111.576 32.2585 111.567C32.3258 111.557 32.3611 111.564 32.3643 111.586C32.4075 111.889 32.4498 112.226 32.4914 112.598C32.5313 112.959 32.5856 113.38 32.6544 113.863C32.7103 114.256 32.7703 114.636 32.8343 115.005C32.8983 115.374 32.9502 115.698 32.9902 115.979ZM31.9734 108.843C31.9782 108.876 31.9469 108.898 31.8796 108.908C31.8123 108.917 31.7762 108.905 31.7714 108.872C31.7123 108.456 31.6403 108.152 31.5554 107.958C31.4705 107.764 31.3391 107.645 31.1612 107.602C30.9833 107.559 30.7317 107.56 30.4063 107.606L22.6477 108.712C22.3223 108.758 22.0803 108.827 21.9216 108.919C21.7629 109.01 21.6642 109.161 21.6257 109.373C21.5871 109.584 21.5974 109.898 21.6566 110.313C21.6614 110.346 21.6301 110.368 21.5628 110.378C21.4955 110.387 21.4594 110.375 21.4546 110.342C21.4147 110.061 21.3803 109.74 21.3516 109.378C21.3101 109.006 21.2549 108.578 21.1862 108.096C21.1302 107.703 21.0695 107.317 21.0039 106.937C20.9271 106.559 20.8687 106.229 20.8287 105.949C20.8239 105.915 20.8552 105.894 20.9225 105.884C20.9898 105.875 21.0259 105.887 21.0307 105.92C21.085 106.302 21.1603 106.589 21.2564 106.781C21.3396 106.964 21.4702 107.077 21.6481 107.12C21.8148 107.165 22.0608 107.164 22.3862 107.118L30.1785 106.008C30.5039 105.961 30.7459 105.892 30.9046 105.801C31.0633 105.71 31.1571 105.565 31.1861 105.366C31.2134 105.156 31.1999 104.86 31.1455 104.479C31.1407 104.445 31.172 104.424 31.2393 104.414C31.3066 104.404 31.3427 104.416 31.3475 104.45C31.3874 104.731 31.429 105.062 31.4721 105.446C31.5153 105.829 31.5648 106.216 31.6208 106.609C31.6895 107.092 31.7559 107.517 31.8199 107.886C31.8822 108.243 31.9334 108.562 31.9734 108.843Z" fill="#7382B1"/>
<path d="M31.4676 96.9182L31.4212 104.296C31.421 104.33 31.3869 104.347 31.3189 104.346C31.2509 104.346 31.217 104.329 31.2172 104.295C31.2196 103.921 31.193 103.643 31.1375 103.461C31.082 103.28 30.9694 103.16 30.7997 103.102C30.6302 103.033 30.3811 102.997 30.0524 102.995L22.1815 102.946C21.8529 102.944 21.609 102.976 21.4499 103.043C21.2796 103.099 21.1655 103.217 21.1077 103.398C21.0385 103.579 21.0028 103.857 21.0004 104.231C21.0002 104.265 20.9661 104.281 20.8981 104.281C20.8301 104.28 20.7962 104.263 20.7965 104.229L20.8409 97.1574C20.8416 97.044 20.893 96.9877 20.995 96.9883L23.2052 96.9682C23.2278 96.9684 23.2446 96.9968 23.2556 97.0535C23.2553 97.1102 23.238 97.1498 23.2039 97.1722C22.5571 97.2928 22.0738 97.5505 21.754 97.9451C21.4342 98.3398 21.2722 98.8601 21.2682 99.5061L21.2638 100.203C21.262 100.486 21.2946 100.713 21.3615 100.884C21.4172 101.043 21.5185 101.157 21.6654 101.226C21.8009 101.294 21.9877 101.33 22.2257 101.331L29.9946 101.38C30.2325 101.381 30.4311 101.354 30.5901 101.299C30.7378 101.232 30.8461 101.13 30.915 100.995C30.9725 100.859 31.0021 100.667 31.0036 100.417L31.0089 99.5843C31.0137 98.8137 30.8363 98.1892 30.4766 97.711C30.1056 97.2326 29.5581 96.8892 28.8341 96.6806C28.8001 96.6691 28.789 96.635 28.8007 96.5784C28.8125 96.5105 28.8297 96.4766 28.8524 96.4767C29.1694 96.524 29.5488 96.5661 29.9906 96.6029C30.4324 96.6397 30.8402 96.6592 31.2142 96.6616C31.3842 96.6626 31.4687 96.7482 31.4676 96.9182ZM27.6197 97.846C27.1437 97.843 26.7801 97.9994 26.5288 98.3151C26.2774 98.6309 26.1498 99.1061 26.1458 99.7408L26.1308 102.121L25.6888 102.118L25.7039 99.721C25.7079 99.0863 25.6032 98.6153 25.3898 98.308C25.1764 98.0006 24.8657 97.8457 24.4577 97.8431C24.4237 97.8429 24.4069 97.8145 24.4072 97.7578C24.4076 97.6898 24.4249 97.6559 24.4589 97.6561C24.8215 97.6584 25.1048 97.6658 25.3087 97.6785C25.5127 97.6797 25.7224 97.6811 25.9377 97.6824C26.2097 97.6841 26.4817 97.6802 26.7538 97.6705C27.0146 97.6495 27.3037 97.64 27.621 97.642C27.6437 97.6421 27.6548 97.6762 27.6544 97.7442C27.6539 97.8122 27.6424 97.8461 27.6197 97.846Z" fill="#7382B1"/>
<path d="M33.6313 82.8425C33.7538 82.3825 33.731 81.9836 33.563 81.6456C33.387 81.2938 33.1193 80.9997 32.76 80.7633C32.4008 80.5268 32.0021 80.3503 31.5641 80.2336C30.666 79.9945 29.9269 80.0615 29.3466 80.4347C28.7693 80.797 28.3654 81.4108 28.135 82.2759C28.1233 82.3197 28.0846 82.3329 28.0189 82.3154C27.9532 82.2979 27.9262 82.2672 27.9378 82.2234C28.1595 81.3911 28.1093 80.721 27.7872 80.2129C27.4651 79.7049 26.9426 79.3547 26.2198 79.1622C25.4751 78.9639 24.8607 78.9586 24.3768 79.1464C23.8928 79.3341 23.5794 79.6963 23.4365 80.233C23.3402 80.5944 23.359 80.9864 23.4927 81.4091C23.6294 81.8208 23.8678 82.2244 24.2082 82.62C24.5514 83.0046 24.9888 83.3439 25.5204 83.638C25.5503 83.6577 25.5525 83.6934 25.527 83.7453C25.5015 83.7971 25.4777 83.8201 25.4558 83.8143L23.3487 83.0068C23.2231 82.9499 23.1413 82.9047 23.1033 82.8711C23.0654 82.8375 23.0431 82.7671 23.0365 82.6598C23.0027 82.1699 23.0113 81.6972 23.0623 81.2416C23.1023 80.7832 23.1733 80.3623 23.2754 79.979C23.4679 79.2562 23.7295 78.6925 24.06 78.2879C24.3935 77.8724 24.7592 77.6004 25.157 77.4718C25.5468 77.3293 25.9389 77.3105 26.3331 77.4155C26.7164 77.5176 27.0516 77.7124 27.3386 78C27.6146 78.2846 27.8363 78.6192 28.0036 79.0039C28.1738 79.3777 28.2875 79.7656 28.3445 80.1679C28.4045 80.5592 28.4032 80.9165 28.3405 81.2399L28.2703 80.975C28.4395 80.3398 28.6992 79.8049 29.0495 79.3704C29.3888 78.933 29.7935 78.6245 30.2636 78.4447C30.7228 78.2621 31.2207 78.2422 31.7573 78.3851C32.3596 78.5455 32.8467 78.8746 33.2184 79.3724C33.5931 79.8592 33.8357 80.4457 33.9461 81.1319C34.0456 81.8152 33.9962 82.5292 33.7979 83.2739C33.6754 83.7339 33.4996 84.1738 33.2705 84.5936C33.0523 85.0164 32.8057 85.326 32.5305 85.5225C32.4495 85.6065 32.3842 85.6536 32.3345 85.6638C32.2849 85.6741 32.2039 85.6701 32.0914 85.6518L29.9527 85.2934C29.9308 85.2875 29.9216 85.2558 29.9253 85.1981C29.9318 85.1295 29.953 85.0941 29.9887 85.0919C30.6064 85.1508 31.1696 85.0838 31.6784 84.8909C32.1762 84.6951 32.5955 84.4197 32.9363 84.0648C33.2801 83.699 33.5117 83.2915 33.6313 82.8425Z" fill="#7382B1"/>
<path d="M30.9186 74.0222L30.6118 73.6145L31.9831 70.3921L32.4364 70.4557L30.9186 74.0222ZM38.8752 68.2629C38.8929 68.2211 38.9331 68.2136 38.9957 68.2402C39.0582 68.2669 39.0806 68.301 39.0629 68.3427C38.9298 68.6556 38.7818 68.9744 38.6189 69.2993C38.4605 69.6137 38.3169 69.9221 38.1882 70.2245C38.0418 70.5686 37.9235 70.8755 37.8334 71.1451C37.7477 71.4042 37.6384 71.6902 37.5052 72.0031C37.4875 72.0448 37.4473 72.0523 37.3847 72.0257C37.3222 71.9991 37.2998 71.9649 37.3175 71.9232C37.5172 71.4539 37.5536 71.1369 37.4267 70.972C37.2998 70.8071 36.938 70.7456 36.3414 70.7873L28.302 71.2275L27.5269 70.1401L33.1855 76.2062C33.7062 76.7481 34.1867 76.9649 34.6269 76.8566C35.0716 76.7379 35.4248 76.3709 35.6866 75.7556C35.7088 75.7035 35.7512 75.6907 35.8138 75.7174C35.8763 75.744 35.8965 75.7834 35.8743 75.8355C35.7412 76.1484 35.6087 76.4307 35.4769 76.6825C35.3451 76.9344 35.1949 77.2584 35.0263 77.6547C34.8576 78.051 34.7327 78.3735 34.6515 78.6222C34.5747 78.8605 34.4631 79.1517 34.3167 79.4959C34.2989 79.5376 34.2588 79.5451 34.1962 79.5185C34.1336 79.4919 34.1112 79.4577 34.129 79.416C34.2488 79.1344 34.2935 78.8701 34.2631 78.6232C34.2371 78.3658 34.1151 78.0737 33.897 77.7469C33.6685 77.4156 33.3289 77.0124 32.8783 76.5374L26.7228 69.9457C26.7004 69.9116 26.7047 69.858 26.7358 69.785C26.7669 69.712 26.8003 69.6769 26.836 69.6798L36.1943 69.1358C36.7969 69.109 37.2842 69.0638 37.656 69.0004C38.0175 68.9325 38.2911 68.8395 38.4768 68.7215C38.6625 68.6034 38.7953 68.4506 38.8752 68.2629Z" fill="#7382B1"/>
<path d="M44.9562 58.6466C44.9745 58.618 45.0123 58.622 45.0696 58.6586C45.1269 58.6952 45.1463 58.7279 45.128 58.7565C44.9754 58.9952 44.7966 59.2643 44.5917 59.5638C44.3868 59.8632 44.1775 60.18 43.9638 60.5142C43.7257 60.8866 43.5107 61.2334 43.3188 61.5546C43.1269 61.8758 42.9485 62.1653 42.7837 62.4231C42.7654 62.4518 42.7276 62.4478 42.6703 62.4111C42.613 62.3745 42.5935 62.3419 42.6118 62.3132C42.8194 61.9886 42.9512 61.7298 43.0072 61.537C43.0694 61.3346 43.0441 61.1637 42.9314 61.0244C42.8248 60.8756 42.6331 60.7126 42.3562 60.5355L35.8537 56.378C35.5577 56.1887 35.3384 56.0688 35.196 56.018C35.0536 55.9673 34.9362 55.9931 34.8438 56.0955C34.7419 56.1918 34.5994 56.3831 34.4162 56.6696L32.5389 59.6057C32.3496 59.9017 32.2266 60.1257 32.1698 60.2777C32.1191 60.4202 32.1466 60.5454 32.2524 60.6534C32.3582 60.7614 32.5544 60.907 32.8408 61.0902L39.3433 65.2477C39.6202 65.4248 39.8455 65.5352 40.0193 65.579C40.1992 65.6133 40.3648 65.5646 40.5164 65.4328C40.674 65.2914 40.8566 65.0584 41.0642 64.7338C41.0825 64.7051 41.1203 64.7091 41.1776 64.7457C41.2349 64.7824 41.2544 64.815 41.2361 64.8437C41.0712 65.1015 40.8833 65.3849 40.6723 65.6939C40.4613 66.0029 40.2337 66.3483 39.9895 66.7303C39.7758 67.0645 39.576 67.3874 39.3902 67.699C39.2044 68.0107 39.0352 68.2859 38.8826 68.5246C38.8703 68.5437 38.8356 68.5349 38.7783 68.4983C38.721 68.4617 38.6985 68.4338 38.7107 68.4147C38.9244 68.0805 39.0592 67.817 39.1153 67.6241C39.1713 67.4313 39.146 67.2604 39.0394 67.1116C38.9389 66.9531 38.7502 66.7854 38.4733 66.6084L32.0138 62.4783C31.6032 62.2158 31.2614 62.0981 30.9885 62.1254C30.7216 62.143 30.4294 62.4001 30.1119 62.8967C30.0997 62.9158 30.065 62.907 30.0077 62.8704C29.9504 62.8337 29.9278 62.8059 29.94 62.7868C30.0499 62.6149 30.2653 62.2885 30.5862 61.8077C30.9133 61.3172 31.3013 60.7314 31.7504 60.05C32.1961 59.3529 32.657 58.632 33.1332 57.8872C33.5178 57.2857 33.8841 56.7128 34.2321 56.1685C34.5767 55.6086 34.8924 55.1043 35.1794 54.6555C35.4567 54.2006 35.684 53.8347 35.861 53.5578C36.0346 53.2653 36.1397 53.0903 36.1764 53.033C36.1947 53.0044 36.2325 53.0084 36.2898 53.045C36.3471 53.0816 36.3666 53.1143 36.3482 53.1429C36.0369 53.6299 35.9261 54.003 36.016 54.2622C36.1058 54.5214 36.356 54.7823 36.7666 55.0448L43.2261 59.1749C43.503 59.3519 43.7314 59.4576 43.9113 59.4919C44.0911 59.5262 44.2568 59.4774 44.4083 59.3456C44.566 59.2043 44.7486 58.9713 44.9562 58.6466Z" fill="#7382B1"/>
<path d="M45.5707 56.3778L45.1271 56.4118L44.2392 45.5154L44.6589 45.4826L45.5707 56.3778ZM44.9361 58.8765C44.9209 58.8933 44.8881 58.8788 44.8377 58.8332C44.7873 58.7876 44.7697 58.7563 44.7849 58.7395C45.0512 58.4455 45.228 58.2081 45.3153 58.0273C45.4027 57.8464 45.4062 57.6737 45.3258 57.5092C45.2531 57.3363 45.0949 57.1395 44.8513 56.9189L39.0176 51.6349C38.774 51.4143 38.5705 51.2759 38.4073 51.2198C38.2356 51.1561 38.0642 51.1766 37.8928 51.2813C37.7131 51.3785 37.4901 51.5741 37.2238 51.8681C37.2086 51.8849 37.1757 51.8704 37.1253 51.8248C37.0749 51.7791 37.0574 51.7479 37.0726 51.7311C37.2704 51.5127 37.4994 51.2767 37.7597 51.0231C38.0116 50.762 38.2706 50.4844 38.5369 50.1904C38.8641 49.8292 39.149 49.5062 39.3917 49.2214C39.6259 48.9289 39.842 48.6735 40.0398 48.4551C40.055 48.4383 40.0878 48.4528 40.1382 48.4984C40.1886 48.5441 40.2062 48.5753 40.191 48.5921C39.9247 48.8861 39.7445 49.1357 39.6503 49.341C39.5638 49.5378 39.5607 49.7185 39.641 49.883C39.7214 50.0475 39.8833 50.2401 40.1269 50.4608L45.9355 55.7219C46.1791 55.9425 46.3867 56.0847 46.5584 56.1484C46.73 56.2122 46.9053 56.1874 47.0842 56.0743C47.2708 55.9527 47.4972 55.745 47.7635 55.451C47.7787 55.4342 47.8115 55.4486 47.8619 55.4942C47.9123 55.5399 47.9299 55.5711 47.9147 55.5879C47.7093 55.8147 47.4768 56.0629 47.2174 56.3325C46.9655 56.5937 46.676 56.9049 46.3488 57.2661C46.0826 57.5601 45.8281 57.8495 45.5854 58.1343C45.3427 58.4191 45.1263 58.6665 44.9361 58.8765ZM49.7749 53.5341C49.7521 53.5593 49.7155 53.5491 49.6651 53.5035C49.6147 53.4578 49.6009 53.4224 49.6237 53.3972C49.9053 53.0864 50.0935 52.8364 50.1884 52.6471C50.2834 52.4579 50.2907 52.281 50.2103 52.1165C50.13 51.952 49.968 51.7594 49.7244 51.5387L43.9159 46.2776C43.6723 46.057 43.4647 45.9148 43.293 45.8511C43.1214 45.7873 42.9419 45.8082 42.7545 45.9138C42.5672 46.0193 42.3327 46.2275 42.0512 46.5383C42.0284 46.5635 41.9918 46.5533 41.9414 46.5076C41.891 46.462 41.8772 46.4266 41.9 46.4014C42.0902 46.1914 42.3155 45.9596 42.5757 45.706C42.8352 45.4364 43.1285 45.121 43.4557 44.7598C43.722 44.4658 43.9803 44.1722 44.2305 43.879C44.4724 43.5782 44.6885 43.3228 44.8787 43.1128C44.9015 43.0876 44.9381 43.0978 44.9885 43.1435C45.0389 43.1891 45.0527 43.2246 45.0299 43.2498C44.7712 43.5353 44.5986 43.7766 44.512 43.9734C44.4247 44.1543 44.4212 44.3269 44.5015 44.4915C44.5735 44.6484 44.7313 44.8372 44.9749 45.0578L50.8086 50.3417C51.0522 50.5624 51.2598 50.7046 51.4315 50.7683C51.6031 50.832 51.7746 50.8115 51.9459 50.7067C52.1249 50.5936 52.3437 50.3942 52.6024 50.1086C52.6252 50.0834 52.6618 50.0936 52.7122 50.1393C52.7626 50.1849 52.7764 50.2204 52.7536 50.2456C52.5634 50.4556 52.3347 50.6996 52.0677 50.9775C51.8006 51.2555 51.5339 51.5415 51.2676 51.8355C50.9404 52.1967 50.6555 52.5197 50.4129 52.8045C50.1778 53.0809 49.9652 53.3241 49.7749 53.5341Z" fill="#7382B1"/>
<path d="M51.1035 37.6825C51.4843 37.3784 51.92 37.0885 52.4105 36.8128C52.8939 36.5283 53.3171 36.3499 53.68 36.2776C53.7809 36.2405 53.8579 36.2371 53.911 36.2672C53.9658 36.2814 54.0366 36.3337 54.1233 36.424L55.6617 38.0236C55.6759 38.0413 55.6679 38.0767 55.6378 38.1298C55.6094 38.1669 55.5722 38.1749 55.5262 38.1536C54.7178 37.6679 53.9073 37.4522 53.0949 37.5063C52.2912 37.5534 51.5396 37.8563 50.84 38.4151C50.2112 38.9172 49.7957 39.4956 49.5933 40.1503C49.3999 40.798 49.3993 41.4874 49.5916 42.2185C49.7857 42.9338 50.1656 43.6456 50.7314 44.3541C51.2264 44.974 51.7738 45.4869 52.3735 45.8927C52.9731 46.2986 53.5862 46.5849 54.2126 46.7519C54.839 46.9188 55.4479 46.9547 56.0391 46.8596C56.6304 46.7646 57.1651 46.5261 57.6433 46.1442C58.2278 45.6774 58.6044 45.0866 58.7732 44.3716C58.9438 43.6408 58.8808 42.7628 58.5843 41.7378C58.5737 41.6882 58.5977 41.6546 58.6561 41.6369C58.7074 41.6104 58.7402 41.606 58.7543 41.6237L59.9129 43.4832C59.9801 43.6036 60.0145 43.6922 60.0163 43.7488C60.0198 43.7895 59.9958 43.8594 59.9444 43.9585C59.6643 44.4432 59.3445 44.8872 58.9848 45.2904C58.6322 45.7025 58.2567 46.0677 57.8582 46.386C57.008 47.0649 56.1748 47.5199 55.3587 47.7511C54.5355 47.9734 53.7637 48.0241 53.0434 47.9031C52.3161 47.7733 51.6543 47.5258 51.0582 47.1607C50.4709 46.7885 49.9792 46.3544 49.5831 45.8585C49.0669 45.212 48.7329 44.5214 48.5813 43.7867C48.4386 43.045 48.449 42.3043 48.6125 41.5646C48.7759 40.8249 49.0721 40.1242 49.501 39.4626C49.9317 38.7851 50.4659 38.1917 51.1035 37.6825Z" fill="#7382B1"/>
<path d="M61.0166 37.4208L61.0214 36.9105L64.071 35.1889L64.3919 35.5153L61.0166 37.4208ZM70.835 37.6954C70.8745 37.6731 70.911 37.6916 70.9444 37.7508C70.9778 37.81 70.9748 37.8508 70.9353 37.8731C70.6393 38.0402 70.3277 38.203 70.0008 38.3616C69.6837 38.5146 69.382 38.6719 69.0958 38.8334C68.7701 39.0173 68.4895 39.1887 68.2539 39.3478C68.0282 39.5012 67.7673 39.6615 67.4712 39.8287C67.4318 39.851 67.3953 39.8325 67.3619 39.7733C67.3284 39.7141 67.3315 39.6733 67.3709 39.651C67.8151 39.4003 68.037 39.1709 68.0366 38.9629C68.0363 38.7548 67.7868 38.4857 67.2881 38.1556L60.6422 33.6107L60.6892 32.2762L61.4854 40.5334C61.5687 41.2803 61.8179 41.7448 62.233 41.9269C62.6581 42.1034 63.1617 42.0273 63.744 41.6986C63.7933 41.6707 63.8347 41.6864 63.8682 41.7456C63.9016 41.8049 63.8936 41.8484 63.8443 41.8762C63.5482 42.0434 63.2712 42.1867 63.0134 42.3063C62.7555 42.4259 62.439 42.5915 62.064 42.8032C61.689 43.0149 61.3935 43.1947 61.1777 43.3426C60.9717 43.4849 60.7059 43.648 60.3802 43.8319C60.3407 43.8542 60.3043 43.8357 60.2708 43.7765C60.2374 43.7173 60.2404 43.6765 60.2799 43.6542C60.5464 43.5038 60.7427 43.3214 60.8689 43.107C61.005 42.887 61.0861 42.5809 61.112 42.1889C61.1324 41.7869 61.1084 41.2603 61.0401 40.6091L60.1696 31.6324C60.1726 31.5917 60.2087 31.5518 60.2777 31.5128C60.3468 31.4738 60.3947 31.4663 60.4212 31.4903L68.1767 36.7559C68.6712 37.1015 69.0852 37.3623 69.4189 37.5383C69.7469 37.7045 70.0206 37.7973 70.2398 37.8167C70.459 37.8361 70.6574 37.7957 70.835 37.6954Z" fill="#7382B1"/>
<path d="M70.1726 27.172C69.5257 27.4159 69.0715 27.8174 68.8099 28.3763C68.5588 28.9312 68.4646 29.645 68.5272 30.5177C68.5392 30.5495 68.5134 30.5774 68.4498 30.6014C68.3928 30.6108 68.3603 30.6049 68.3523 30.5837C68.3175 30.4272 68.2627 30.2177 68.188 29.9552C68.1092 29.6821 68.0225 29.3878 67.9277 29.0723C67.8435 28.7528 67.7528 28.4478 67.6554 28.1575C67.5647 27.8526 67.4853 27.61 67.4173 27.4297C67.3973 27.3767 67.4139 27.3402 67.4669 27.3202C67.5305 27.2962 67.5723 27.3107 67.5923 27.3637C67.6323 27.4698 67.7153 27.5293 67.8413 27.5424C67.974 27.5408 68.1132 27.5246 68.2591 27.4938C68.401 27.4525 68.5196 27.4138 68.615 27.3778C69.539 27.0657 70.6108 26.6798 71.8303 26.2199C72.5832 25.936 73.1751 25.7068 73.6058 25.5322C74.0432 25.3431 74.4687 25.1705 74.8823 25.0146C75.2641 24.8706 75.5424 24.7415 75.7173 24.6271C75.8988 24.4981 75.984 24.3387 75.9731 24.1491C75.9677 24.1027 75.9915 24.0694 76.0445 24.0495C76.0975 24.0295 76.132 24.0407 76.148 24.0831C76.2014 24.2568 76.2735 24.4961 76.3642 24.801C76.451 25.0953 76.551 25.4088 76.6644 25.7416C76.7738 26.0637 76.8751 26.3646 76.9685 26.6443C77.0578 26.9134 77.1285 27.1169 77.1805 27.2548C77.1885 27.276 77.1607 27.2986 77.097 27.3226C77.044 27.3426 77.0082 27.344 76.9896 27.3268C76.5571 26.533 76.0746 26.0245 75.5423 25.8013C75.006 25.5675 74.4091 25.5745 73.7516 25.8225C73.4653 25.9304 73.2579 26.0389 73.1294 26.1479C73.001 26.2569 72.9382 26.3957 72.9412 26.5641C72.9401 26.722 72.9896 26.9334 73.0896 27.1986L75.8546 34.5316C75.9706 34.8391 76.0904 35.0604 76.214 35.1955C76.3482 35.3265 76.5208 35.3826 76.7316 35.3636C76.9531 35.3407 77.2653 35.2532 77.6683 35.1013C77.7001 35.0893 77.728 35.1151 77.752 35.1787C77.776 35.2424 77.7721 35.2802 77.7403 35.2922C77.454 35.4001 77.1232 35.5188 76.7481 35.6481C76.3835 35.7735 75.9838 35.9181 75.5491 36.0821C75.1355 36.238 74.7504 36.3893 74.3939 36.5358C74.0373 36.6824 73.7053 36.8137 73.3977 36.9296C73.3765 36.9376 73.3539 36.9098 73.3299 36.8462C73.3059 36.7826 73.3046 36.7467 73.3258 36.7388C73.7287 36.5868 74.021 36.4463 74.2025 36.3173C74.384 36.1883 74.4765 36.0323 74.4802 35.8492C74.4944 35.6622 74.4436 35.4149 74.3276 35.1074L71.5505 27.7425C71.4506 27.4774 71.3501 27.2913 71.2491 27.184C71.1547 27.0621 71.0232 27.0027 70.8548 27.0056C70.6863 27.0086 70.4589 27.0641 70.1726 27.172Z" fill="#7382B1"/>
<path d="M84.975 33.3239C84.7871 33.3667 84.547 33.4097 84.2547 33.453C83.9759 33.5049 83.6805 33.5605 83.3686 33.6199C83.0542 33.6682 82.7477 33.7263 82.4494 33.7943C82.1289 33.8672 81.7876 33.9507 81.4254 34.0448C81.0633 34.1389 80.7441 34.2174 80.4678 34.2802C80.4347 34.2878 80.4105 34.2584 80.3955 34.1921C80.3804 34.1258 80.3894 34.0889 80.4225 34.0813C80.7736 33.9898 81.0326 33.9018 81.1993 33.8173C81.3771 33.7304 81.4815 33.602 81.5126 33.4322C81.5412 33.2513 81.5165 32.9896 81.4385 32.647L79.6913 24.9724C79.6133 24.6298 79.5236 24.3887 79.422 24.2491C79.3316 24.107 79.1874 24.0352 78.9894 24.0338C78.8 24.0188 78.5273 24.046 78.1711 24.1155C78.149 24.1205 78.1305 24.0899 78.1154 24.0236C78.1003 23.9573 78.1038 23.9216 78.1259 23.9166C78.4132 23.8511 78.7196 23.793 79.0451 23.7422C79.3681 23.6802 79.745 23.6002 80.176 23.5021C80.607 23.404 81.0091 23.3067 81.3823 23.2101C81.753 23.1024 82.082 23.0159 82.3693 22.9505C82.3914 22.9455 82.41 22.9761 82.4251 23.0424C82.4402 23.1087 82.4367 23.1444 82.4146 23.1494C82.0414 23.246 81.7561 23.3458 81.5587 23.4489C81.3724 23.5494 81.2581 23.6858 81.216 23.8582C81.1849 24.028 81.2096 24.2897 81.2901 24.6433L83.0298 32.2848C83.0776 32.4947 83.1467 32.6708 83.2372 32.8129C83.3387 32.9525 83.4935 33.0451 83.7015 33.0908C83.9069 33.1254 84.203 33.0986 84.5898 33.0106C85.4076 32.8244 85.9357 32.4892 86.1741 32.0048C86.4211 31.5069 86.4489 30.838 86.2577 29.9982C86.1194 29.3904 85.9233 28.912 85.6695 28.5629C85.4267 28.2114 85.1084 27.9875 84.7145 27.8912C84.3292 27.7813 83.8603 27.7893 83.3077 27.915C83.0315 27.9779 82.7381 28.068 82.4277 28.1851C82.1173 28.3023 81.7996 28.4385 81.4747 28.5939L81.3254 28.2443C81.7005 28.0543 82.0986 27.8881 82.5195 27.7458C82.9379 27.5924 83.3405 27.4717 83.7272 27.3837C84.4566 27.2176 85.1036 27.1749 85.6682 27.2556C86.2414 27.3227 86.7114 27.5237 87.0783 27.8587C87.4562 28.1911 87.7168 28.6722 87.8602 29.3021C88.0061 29.943 87.9797 30.5418 87.781 31.0985C87.5798 31.6441 87.2386 32.1112 86.7575 32.4996C86.2764 32.8881 85.6822 33.1629 84.975 33.3239Z" fill="#7382B1"/>
<path d="M94.4548 20.9483C94.9405 20.9088 95.4638 20.9117 96.0247 20.957C96.5846 20.9911 97.0353 21.0795 97.3766 21.2223C97.4811 21.2479 97.5469 21.288 97.5741 21.3427C97.6116 21.3851 97.6411 21.468 97.6625 21.5913L98.0451 23.7775C98.0469 23.8001 98.0205 23.825 97.9659 23.8522C97.9216 23.8671 97.8863 23.853 97.8601 23.8096C97.4608 22.9552 96.9091 22.3235 96.2049 21.9146C95.5121 21.5048 94.7195 21.3361 93.8271 21.4087C93.0251 21.474 92.3573 21.7216 91.8237 22.1516C91.3015 22.5807 90.9159 23.1522 90.6669 23.8661C90.4284 24.5678 90.3459 25.3704 90.4194 26.2741C90.4837 27.0648 90.6512 27.796 90.9219 28.4676C91.1926 29.1392 91.5411 29.7192 91.9675 30.2075C92.3938 30.6959 92.8787 31.0658 93.4222 31.3172C93.9658 31.5686 94.5425 31.6695 95.1525 31.6199C95.898 31.5592 96.5405 31.2796 97.0798 30.7808C97.6295 30.2699 98.0677 29.5065 98.3944 28.4907C98.4133 28.4437 98.4519 28.4292 98.5103 28.4472C98.5677 28.4539 98.5973 28.4685 98.5991 28.4911L98.5214 30.6806C98.5099 30.818 98.489 30.9107 98.4588 30.9586C98.4389 30.9943 98.38 31.0389 98.282 31.0924C97.7789 31.338 97.2656 31.5276 96.7421 31.6611C96.2194 31.806 95.7039 31.8991 95.1956 31.9405C94.1112 32.0287 93.166 31.9407 92.3599 31.6765C91.5529 31.4011 90.8845 31.012 90.3546 30.5093C89.8239 29.9953 89.4132 29.4204 89.1227 28.7845C88.8435 28.1477 88.6781 27.5131 88.6267 26.8805C88.5596 26.0559 88.6684 25.2965 88.953 24.6025C89.249 23.9076 89.6713 23.299 90.2201 22.7767C90.7689 22.2545 91.406 21.8388 92.1313 21.5297C92.867 21.2083 93.6415 21.0145 94.4548 20.9483Z" fill="#7382B1"/>
<path d="M108.739 31.7947C108.762 31.7963 108.771 31.831 108.766 31.8988C108.762 31.9666 108.748 31.9998 108.725 31.9983C108.42 31.9776 108.081 31.949 107.709 31.9124C107.348 31.8767 106.958 31.8446 106.54 31.8163C106.121 31.788 105.736 31.7676 105.385 31.7552C105.034 31.7428 104.717 31.727 104.434 31.7079C104.4 31.7056 104.386 31.6705 104.39 31.6027C104.395 31.5348 104.414 31.5021 104.448 31.5044C104.821 31.5296 105.1 31.5201 105.285 31.4758C105.469 31.4315 105.596 31.3265 105.664 31.1607C105.743 30.9957 105.794 30.7492 105.816 30.4213L106.101 26.2149L106.655 26.3376C106.349 26.3169 106.071 26.3264 105.818 26.3661C105.565 26.4058 105.314 26.5081 105.064 26.673C104.826 26.8386 104.559 27.0875 104.264 27.4196C103.98 27.7526 103.655 28.2019 103.287 28.7677C102.807 29.485 102.429 30.033 102.153 30.412C101.889 30.7917 101.684 31.0561 101.537 31.2052C101.402 31.3551 101.289 31.4383 101.197 31.4548C101.116 31.472 101.025 31.4772 100.923 31.4703L98.8709 31.3315C98.8482 31.3299 98.8392 31.2952 98.8438 31.2274C98.8484 31.1595 98.862 31.1264 98.8846 31.1279C99.2585 31.1419 99.5772 31.0498 99.8405 30.8518C100.116 30.6433 100.398 30.3273 100.688 29.9039C100.99 29.4813 101.366 28.9558 101.817 28.3275C102.233 27.7309 102.621 27.2801 102.982 26.9751C103.344 26.6701 103.721 26.4628 104.115 26.3531C104.521 26.2329 104.962 26.1719 105.439 26.1701L105.55 26.2969C104.228 26.1961 103.243 25.8909 102.596 25.3814C101.949 24.8719 101.652 24.227 101.705 23.4468C101.74 22.9266 101.917 22.4843 102.237 22.1197C102.57 21.7446 102.997 21.4669 103.521 21.2864C104.056 21.0955 104.646 21.0218 105.291 21.0654C105.528 21.0815 105.844 21.1199 106.237 21.1806C106.63 21.2413 106.969 21.2812 107.251 21.3003C107.67 21.3287 108.06 21.3494 108.423 21.3626C108.786 21.3644 109.12 21.3757 109.426 21.3964C109.448 21.3979 109.457 21.4326 109.453 21.5004C109.448 21.5683 109.435 21.6014 109.412 21.5999C109.005 21.5724 108.703 21.586 108.506 21.6408C108.31 21.6844 108.172 21.7886 108.093 21.9537C108.026 22.1081 107.981 22.3493 107.959 22.6773L107.427 30.5303C107.405 30.8582 107.417 31.1089 107.462 31.2823C107.518 31.4565 107.641 31.5784 107.829 31.648C108.017 31.7175 108.321 31.7664 108.739 31.7947ZM103.412 23.1364C103.359 23.9279 103.525 24.5866 103.909 25.1124C104.294 25.6383 104.905 25.9295 105.741 25.9861C105.888 25.9961 106.059 25.9962 106.253 25.9866C106.446 25.977 106.601 25.9591 106.716 25.9328L106.11 26.0792L106.345 22.6021C106.367 22.2742 106.322 22.0156 106.21 21.8263C106.109 21.6377 105.971 21.5034 105.795 21.4233C105.63 21.344 105.451 21.2978 105.259 21.2848C104.117 21.2075 103.501 21.8247 103.412 23.1364Z" fill="#7382B1"/>
<path d="M124.721 26.3036C124.814 25.9884 124.852 25.7397 124.835 25.5574C124.818 25.3751 124.721 25.2224 124.545 25.0994C124.368 24.9764 124.079 24.8555 123.677 24.7367C123.644 24.7271 123.638 24.6896 123.657 24.6244C123.676 24.5592 123.702 24.5314 123.735 24.5411C124.007 24.6213 124.313 24.7237 124.655 24.8482C125.01 24.965 125.421 25.0925 125.889 25.2306C126.269 25.3429 126.646 25.4483 127.019 25.5466C127.394 25.634 127.718 25.7179 127.99 25.7981C128.023 25.8078 128.029 25.8452 128.01 25.9104C127.991 25.9756 127.965 26.0034 127.932 25.9938C127.552 25.8814 127.254 25.8289 127.039 25.8363C126.838 25.8361 126.681 25.9079 126.568 26.0516C126.458 26.1845 126.356 26.4086 126.263 26.7238L124.033 34.2723C123.94 34.5875 123.902 34.8362 123.919 35.0185C123.936 35.2008 124.029 35.3464 124.198 35.4554C124.377 35.5675 124.657 35.6798 125.038 35.7922C125.07 35.8018 125.077 35.8392 125.058 35.9044C125.038 35.9696 125.012 35.9974 124.98 35.9878C124.708 35.9075 124.389 35.8074 124.023 35.6873C123.656 35.5673 123.283 35.4511 122.903 35.3387C122.435 35.2006 122.021 35.084 121.659 34.9889C121.308 34.8971 120.996 34.811 120.725 34.7307C120.692 34.7211 120.685 34.6837 120.705 34.6184C120.724 34.5532 120.75 34.5254 120.782 34.5351C121.185 34.6539 121.491 34.715 121.703 34.7185C121.915 34.7219 122.077 34.6518 122.191 34.508C122.304 34.3642 122.407 34.1347 122.501 33.8195L124.721 26.3036ZM117.173 28.151L117.298 27.7271L124.439 29.8367L124.314 30.2605L117.173 28.151ZM115.343 31.7051L117.573 24.1566C117.666 23.8414 117.703 23.5981 117.683 23.4267C117.666 23.2444 117.573 23.0988 117.404 22.9898C117.238 22.87 116.965 22.754 116.585 22.6416C116.563 22.6351 116.562 22.5993 116.581 22.5341C116.601 22.4689 116.621 22.4395 116.643 22.4459C116.925 22.5294 117.237 22.6334 117.579 22.7579C117.923 22.8715 118.286 22.9845 118.666 23.0969C119.134 23.235 119.548 23.3515 119.91 23.4466C120.275 23.5309 120.599 23.6147 120.882 23.6982C120.903 23.7046 120.905 23.7404 120.885 23.8056C120.866 23.8709 120.846 23.9003 120.824 23.8938C120.433 23.7782 120.13 23.7242 119.915 23.7316C119.7 23.739 119.536 23.8146 119.422 23.9583C119.309 24.1021 119.206 24.3316 119.113 24.6468L116.892 32.1627C116.799 32.4779 116.761 32.7266 116.778 32.9089C116.795 33.0912 116.893 33.2385 117.073 33.3506C117.263 33.466 117.549 33.5798 117.929 33.6922C117.951 33.6986 117.952 33.7344 117.933 33.7997C117.914 33.8649 117.893 33.8943 117.872 33.8878C117.578 33.8011 117.254 33.6994 116.898 33.5826C116.554 33.4689 116.148 33.3431 115.68 33.205C115.3 33.0926 114.929 32.9889 114.567 32.8938C114.205 32.7987 113.888 32.711 113.616 32.6308C113.595 32.6243 113.593 32.5885 113.613 32.5233C113.632 32.4581 113.652 32.4287 113.674 32.4351C114.055 32.5475 114.345 32.6038 114.546 32.6041C114.747 32.6043 114.904 32.5325 115.017 32.3888C115.142 32.2482 115.25 32.0203 115.343 31.7051Z" fill="#7382B1"/>
<path d="M129.924 32.4956L130.348 32.2109L133.492 33.752L133.405 34.2012L129.924 32.4956ZM135.251 40.7477C135.292 40.7677 135.298 40.8082 135.268 40.8693C135.238 40.9303 135.202 40.9509 135.162 40.9309C134.856 40.7813 134.546 40.6165 134.23 40.4366C133.925 40.2616 133.624 40.1018 133.329 39.9572C132.993 39.7926 132.693 39.6582 132.429 39.5539C132.175 39.4545 131.895 39.33 131.59 39.1804C131.549 39.1605 131.543 39.12 131.573 39.0589C131.603 38.9978 131.639 38.9773 131.679 38.9972C132.137 39.2217 132.452 39.2749 132.623 39.1569C132.795 39.039 132.876 38.681 132.866 38.083L132.855 30.0317L133.982 29.3156L127.623 34.6428C127.054 35.1339 126.812 35.6022 126.896 36.0475C126.991 36.4979 127.339 36.8702 127.939 37.1644C127.99 37.1894 128.001 37.2324 127.971 37.2934C127.941 37.3545 127.9 37.3725 127.849 37.3476C127.544 37.198 127.269 37.0507 127.025 36.9056C126.78 36.7606 126.465 36.5933 126.078 36.4038C125.691 36.2143 125.376 36.0724 125.132 35.978C124.898 35.8886 124.613 35.7617 124.277 35.5971C124.237 35.5771 124.231 35.5366 124.261 35.4756C124.291 35.4145 124.326 35.394 124.367 35.4139C124.642 35.5486 124.903 35.6073 125.152 35.5901C125.41 35.5779 125.708 35.4716 126.046 35.2712C126.389 35.0607 126.81 34.7431 127.308 34.3184L134.219 28.523C134.254 28.5024 134.307 28.5096 134.378 28.5445C134.45 28.5794 134.483 28.6146 134.478 28.6502L134.523 38.0241C134.517 38.6273 134.536 39.1163 134.58 39.491C134.628 39.8556 134.707 40.1337 134.815 40.3255C134.923 40.5172 135.068 40.658 135.251 40.7477Z" fill="#7382B1"/>
<path d="M141.965 45.6949C142.341 45.9876 142.717 46.1226 143.093 46.1002C143.486 46.0757 143.861 45.9444 144.219 45.7062C144.578 45.4681 144.896 45.1702 145.175 44.8126C145.746 44.0797 145.973 43.3732 145.857 42.6932C145.749 42.0201 145.342 41.4084 144.636 40.8579C144.6 40.8301 144.603 40.7893 144.645 40.7357C144.687 40.6821 144.726 40.6692 144.762 40.6971C145.441 41.2266 146.077 41.4424 146.671 41.3447C147.264 41.2469 147.791 40.903 148.251 40.3131C148.725 39.7052 148.97 39.1419 148.986 38.623C149.003 38.1042 148.792 37.6741 148.354 37.3327C148.059 37.1027 147.691 36.9667 147.249 36.9245C146.817 36.8892 146.352 36.9508 145.855 37.1094C145.367 37.2748 144.884 37.5447 144.405 37.9189C144.375 37.9388 144.341 37.9268 144.304 37.8831C144.266 37.8393 144.254 37.8085 144.268 37.7906L145.835 36.167C145.937 36.0737 146.01 36.0161 146.056 35.9943C146.102 35.9725 146.175 35.9795 146.277 36.0154C146.741 36.1759 147.173 36.3687 147.572 36.5938C147.978 36.8099 148.338 37.0399 148.651 37.2838C149.241 37.7436 149.657 38.2048 149.9 38.6672C150.152 39.1367 150.26 39.5796 150.222 39.9961C150.201 40.4105 150.065 40.7787 149.814 41.1005C149.57 41.4133 149.26 41.6456 148.883 41.7973C148.513 41.94 148.118 42.0132 147.699 42.0167C147.288 42.0272 146.887 41.9801 146.494 41.8753C146.111 41.7775 145.782 41.6365 145.509 41.4523L145.781 41.4913C146.299 41.8954 146.69 42.3437 146.953 42.836C147.222 43.3193 147.348 43.8125 147.33 44.3154C147.318 44.8094 147.142 45.2754 146.8 45.7134C146.417 46.2051 145.924 46.5246 145.32 46.6721C144.726 46.8265 144.091 46.8204 143.416 46.6537C142.749 46.478 142.111 46.1533 141.503 45.6795C141.127 45.3869 140.791 45.0531 140.495 44.678C140.191 44.3119 140.002 43.9638 139.929 43.6337C139.883 43.5263 139.866 43.4478 139.876 43.3981C139.886 43.3484 139.921 43.2754 139.982 43.179L141.148 41.3508C141.162 41.3329 141.195 41.3369 141.247 41.3628C141.307 41.3957 141.331 41.429 141.319 41.4628C141.024 42.0082 140.865 42.5527 140.844 43.0964C140.829 43.6312 140.919 44.1248 141.112 44.5773C141.314 45.0367 141.599 45.4093 141.965 45.6949Z" fill="#7382B1"/>
<path d="M150.961 46.4538L151.456 46.3298L153.891 48.8469L153.656 49.2398L150.961 46.4538ZM153.17 56.0244C153.202 56.057 153.193 56.0969 153.144 56.1442C153.095 56.1914 153.055 56.1988 153.024 56.1662C152.787 55.9218 152.551 55.6614 152.315 55.385C152.087 55.1167 151.859 54.8644 151.631 54.6282C151.371 54.3594 151.134 54.131 150.921 53.9431C150.715 53.7633 150.494 53.5513 150.258 53.3069C150.226 53.2743 150.235 53.2344 150.284 53.1871C150.333 53.1398 150.373 53.1325 150.405 53.1651C150.759 53.5316 151.037 53.6886 151.238 53.6358C151.44 53.583 151.637 53.2738 151.831 52.7079L154.554 45.131L155.857 44.8401L148.067 47.692C147.365 47.9608 146.979 48.3191 146.907 48.7667C146.843 49.2225 147.044 49.6907 147.509 50.1713C147.548 50.2121 147.544 50.2561 147.495 50.3034C147.446 50.3506 147.402 50.3539 147.362 50.3132C147.126 50.0688 146.917 49.8369 146.737 49.6175C146.556 49.3981 146.316 49.1336 146.017 48.824C145.717 48.5145 145.469 48.2739 145.271 48.1023C145.082 47.9388 144.857 47.7227 144.597 47.4539C144.565 47.4213 144.574 47.3813 144.623 47.3341C144.672 47.2868 144.712 47.2795 144.743 47.312C144.956 47.532 145.182 47.676 145.421 47.7441C145.669 47.8204 145.985 47.8216 146.371 47.7479C146.765 47.6663 147.269 47.5104 147.882 47.2801L156.349 44.175C156.389 44.1677 156.437 44.1925 156.492 44.2496C156.547 44.3066 156.567 44.351 156.55 44.3828L153.409 53.2151C153.2 53.7807 153.052 54.2471 152.965 54.6143C152.887 54.9737 152.866 55.2619 152.903 55.4789C152.939 55.6959 153.028 55.8777 153.17 56.0244Z" fill="#7382B1"/>
<path d="M165.799 58.3188C166.07 58.1329 166.256 57.9639 166.358 57.8117C166.46 57.6594 166.481 57.48 166.422 57.2733C166.362 57.0666 166.214 56.7903 165.977 56.4445C165.958 56.4165 165.976 56.3832 166.032 56.3448C166.088 56.3063 166.126 56.3011 166.145 56.3291C166.305 56.5628 166.479 56.8356 166.665 57.1475C166.867 57.4623 167.106 57.8207 167.382 58.2226C167.606 58.5497 167.832 58.8689 168.059 59.1803C168.296 59.4853 168.494 59.7546 168.655 59.9882C168.674 60.0163 168.655 60.0495 168.599 60.088C168.543 60.1264 168.506 60.1316 168.486 60.1036C168.262 59.7765 168.064 59.548 167.893 59.4183C167.737 59.2914 167.57 59.248 167.391 59.2881C167.222 59.3218 167.002 59.4316 166.731 59.6174L160.24 64.0693C159.969 64.2552 159.782 64.4243 159.68 64.5765C159.579 64.7287 159.559 64.9003 159.621 65.0912C159.69 65.2915 159.836 65.5552 160.061 65.8823C160.08 65.9104 160.061 65.9436 160.005 65.9821C159.949 66.0206 159.912 66.0258 159.892 65.9977C159.732 65.7641 159.548 65.4852 159.339 65.161C159.131 64.8368 158.914 64.5111 158.69 64.184C158.414 63.7821 158.166 63.4301 157.945 63.1281C157.73 62.8355 157.543 62.5723 157.383 62.3386C157.364 62.3106 157.382 62.2773 157.438 62.2389C157.494 62.2004 157.532 62.1952 157.551 62.2232C157.788 62.5691 157.988 62.8101 158.15 62.9462C158.312 63.0824 158.483 63.1305 158.661 63.0904C158.84 63.0503 159.065 62.9374 159.336 62.7515L165.799 58.3188ZM158.776 54.9926L159.141 54.7426L163.352 60.8832L162.988 61.1332L158.776 54.9926ZM155.115 56.5969L161.606 52.145C161.877 51.9591 162.058 51.7933 162.151 51.6475C162.253 51.4952 162.272 51.3236 162.21 51.1327C162.157 50.9354 162.019 50.6731 161.794 50.346C161.781 50.3273 161.803 50.2987 161.859 50.2603C161.915 50.2218 161.95 50.2119 161.962 50.2306C162.129 50.4736 162.306 50.7511 162.492 51.063C162.688 51.3685 162.898 51.6848 163.122 52.0119C163.398 52.4138 163.646 52.7658 163.867 53.0678C164.097 53.3634 164.296 53.6327 164.462 53.8757C164.475 53.8944 164.454 53.923 164.398 53.9614C164.341 53.9999 164.307 54.0098 164.294 53.9911C164.063 53.6546 163.862 53.4215 163.691 53.2917C163.519 53.1619 163.344 53.1171 163.166 53.1572C162.987 53.1972 162.762 53.3102 162.491 53.4961L156.028 57.9287C155.757 58.1146 155.571 58.2837 155.469 58.4359C155.367 58.5882 155.351 58.7644 155.419 58.9647C155.494 59.1743 155.644 59.4427 155.868 59.7698C155.881 59.7885 155.86 59.8171 155.804 59.8556C155.747 59.894 155.713 59.9039 155.7 59.8852C155.527 59.6329 155.339 59.3493 155.137 59.0344C154.942 58.7289 154.706 58.3752 154.43 57.9733C154.206 57.6462 153.983 57.3316 153.762 57.0296C153.541 56.7276 153.351 56.4598 153.191 56.2261C153.178 56.2074 153.199 56.1788 153.255 56.1404C153.312 56.1019 153.346 56.092 153.359 56.1107C153.583 56.4379 153.773 56.6648 153.929 56.7917C154.085 56.9185 154.252 56.9619 154.43 56.9218C154.616 56.8911 154.844 56.7828 155.115 56.5969Z" fill="#7382B1"/>
<path d="M163.968 74.0988C163.978 74.1193 163.952 74.1442 163.891 74.1737C163.83 74.2032 163.794 74.2077 163.785 74.1873C163.652 73.9115 163.51 73.6027 163.358 73.2607C163.211 72.929 163.046 72.5742 162.864 72.1963C162.683 71.8184 162.511 71.4737 162.348 71.162C162.186 70.8503 162.043 70.5668 161.92 70.3114C161.905 70.2808 161.929 70.2507 161.99 70.2213C162.051 70.1918 162.089 70.1924 162.104 70.223C162.266 70.56 162.412 70.798 162.542 70.9368C162.671 71.0757 162.825 71.1338 163.003 71.1111C163.185 71.0987 163.425 71.0213 163.721 70.8788L167.52 69.0511L167.687 69.5935C167.554 69.3177 167.408 69.0798 167.249 68.8797C167.09 68.6795 166.877 68.5116 166.61 68.3757C166.349 68.25 166.001 68.1408 165.566 68.048C165.137 67.9654 164.585 67.9038 163.911 67.8631C163.051 67.7993 162.388 67.741 161.922 67.6883C161.461 67.6457 161.13 67.5976 160.928 67.5438C160.731 67.5003 160.603 67.4426 160.543 67.3707C160.488 67.309 160.439 67.2322 160.394 67.1403L159.503 65.2866C159.493 65.2662 159.519 65.2413 159.58 65.2118C159.641 65.1823 159.677 65.1778 159.687 65.1982C159.859 65.5303 160.096 65.7621 160.398 65.8934C160.716 66.03 161.13 66.12 161.641 66.1633C162.157 66.2168 162.8 66.2849 163.569 66.3676C164.293 66.4344 164.877 66.5497 165.32 66.7136C165.764 66.8776 166.131 67.1036 166.42 67.3919C166.725 67.6855 166.996 68.0394 167.233 68.4536L167.177 68.6124C166.613 67.4126 166.392 66.4056 166.516 65.5914C166.64 64.7771 167.054 64.2005 167.759 63.8615C168.229 63.6355 168.701 63.5718 169.176 63.6702C169.666 63.774 170.119 64.0091 170.534 64.3753C170.964 64.7468 171.32 65.2237 171.6 65.8058C171.703 66.0203 171.825 66.3136 171.966 66.6858C172.108 67.058 172.24 67.3718 172.363 67.6271C172.544 68.005 172.719 68.3549 172.886 68.6768C173.064 68.9937 173.219 69.2901 173.352 69.5659C173.362 69.5863 173.336 69.6112 173.275 69.6407C173.213 69.6702 173.178 69.6747 173.168 69.6543C172.991 69.2866 172.83 69.0307 172.686 68.8866C172.551 68.7375 172.392 68.6692 172.21 68.6816C172.042 68.6994 171.81 68.7795 171.514 68.9219L164.421 72.3341C164.125 72.4766 163.913 72.6102 163.784 72.735C163.66 72.87 163.615 73.0365 163.647 73.2347C163.679 73.4329 163.787 73.721 163.968 74.0988ZM168.872 65.1939C168.157 65.5378 167.666 66.0068 167.398 66.6009C167.13 67.1949 167.178 67.8699 167.542 68.6256C167.606 68.7584 167.69 68.9067 167.794 69.0705C167.898 69.2343 167.989 69.3598 168.069 69.4472L167.643 68.9921L170.783 67.4813C171.079 67.3388 171.282 67.1721 171.392 66.9812C171.506 66.8004 171.554 66.6136 171.537 66.4207C171.525 66.2381 171.477 66.0599 171.393 65.8863C170.897 64.8548 170.056 64.624 168.872 65.1939Z" fill="#7382B1"/>
<path d="M174.791 74.5387C174.584 73.8793 174.208 73.4036 173.664 73.1115C173.124 72.8303 172.416 72.6968 171.542 72.7112C171.509 72.7214 171.483 72.6941 171.462 72.6292C171.456 72.5718 171.464 72.5397 171.485 72.5328C171.644 72.5068 171.856 72.4636 172.122 72.4035C172.399 72.3399 172.698 72.2695 173.018 72.1923C173.342 72.1259 173.651 72.0521 173.946 71.9709C174.256 71.8972 174.502 71.8313 174.686 71.7734C174.74 71.7563 174.776 71.7748 174.793 71.8289C174.813 71.8937 174.796 71.9347 174.742 71.9517C174.634 71.9858 174.57 72.0654 174.55 72.1905C174.545 72.323 174.553 72.463 174.576 72.6103C174.609 72.7542 174.641 72.8748 174.672 72.9721C174.933 73.9119 175.259 75.0033 175.651 76.2464C175.893 77.0138 176.089 77.6174 176.239 78.0571C176.404 78.5043 176.553 78.9387 176.686 79.3602C176.808 79.7493 176.922 80.0344 177.027 80.2153C177.145 80.4036 177.3 80.4976 177.49 80.4971C177.536 80.4943 177.568 80.5199 177.585 80.5739C177.602 80.628 177.589 80.6618 177.546 80.6754C177.37 80.7191 177.127 80.7779 176.817 80.8517C176.519 80.9221 176.2 81.0047 175.862 81.0995C175.534 81.1909 175.228 81.2755 174.943 81.3533C174.67 81.4277 174.463 81.487 174.322 81.5313C174.301 81.5381 174.279 81.5091 174.259 81.4442C174.242 81.3902 174.243 81.3544 174.261 81.3367C175.077 80.9487 175.612 80.495 175.864 79.9758C176.127 79.4532 176.153 78.8568 175.941 78.1867C175.849 77.8948 175.753 77.6818 175.651 77.5475C175.549 77.4132 175.414 77.3429 175.246 77.3365C175.088 77.3268 174.874 77.3645 174.604 77.4497L167.13 79.806C166.816 79.9048 166.589 80.0122 166.447 80.1281C166.309 80.2549 166.243 80.4241 166.25 80.6357C166.261 80.8581 166.331 81.1747 166.461 81.5854C166.471 81.6179 166.444 81.6443 166.379 81.6647C166.314 81.6852 166.276 81.6792 166.266 81.6468C166.174 81.3549 166.074 81.0181 165.965 80.6364C165.86 80.2655 165.738 79.8585 165.598 79.4153C165.465 78.9937 165.336 78.6009 165.209 78.2368C165.082 77.8727 164.97 77.5339 164.871 77.2205C164.864 77.1989 164.893 77.1778 164.958 77.1574C165.023 77.137 165.058 77.1375 165.065 77.1592C165.195 77.5699 165.319 77.8694 165.438 78.0578C165.557 78.2461 165.707 78.3471 165.89 78.3609C166.076 78.3854 166.325 78.3483 166.639 78.2495L174.146 75.883C174.416 75.7978 174.607 75.7077 174.72 75.6128C174.847 75.5253 174.914 75.3973 174.92 75.229C174.926 75.0606 174.883 74.8305 174.791 74.5387Z" fill="#7382B1"/>
<path d="M168.592 85.6818L168.846 85.316L177.864 91.4952L177.625 91.8417L168.592 85.6818ZM167.053 83.6141C167.049 83.5917 167.081 83.5753 167.148 83.565C167.216 83.5546 167.251 83.5607 167.254 83.5831C167.315 83.9751 167.388 84.262 167.473 84.4438C167.558 84.6256 167.69 84.7372 167.868 84.7785C168.049 84.831 168.301 84.8323 168.626 84.7823L176.405 83.5842C176.73 83.5341 176.966 83.4635 177.112 83.3721C177.27 83.279 177.362 83.1329 177.389 82.9339C177.427 82.7331 177.415 82.4367 177.355 82.0447C177.351 82.0223 177.383 82.0059 177.451 81.9955C177.518 81.9852 177.553 81.9912 177.557 82.0136C177.601 82.3048 177.64 82.6314 177.673 82.9933C177.717 83.3535 177.769 83.7296 177.83 84.1216C177.904 84.6033 177.975 85.0281 178.043 85.396C178.122 85.7622 178.184 86.0909 178.229 86.3821C178.233 86.4045 178.201 86.4209 178.134 86.4312C178.066 86.4416 178.031 86.4356 178.028 86.4132C177.967 86.0211 177.887 85.7239 177.787 85.5214C177.689 85.3301 177.551 85.2138 177.372 85.1725C177.194 85.1312 176.942 85.1355 176.617 85.1855L168.872 86.3784C168.547 86.4285 168.306 86.5 168.148 86.5931C167.99 86.6862 167.899 86.8379 167.874 87.0481C167.851 87.2696 167.869 87.5763 167.93 87.9684C167.933 87.9908 167.901 88.0071 167.834 88.0175C167.767 88.0278 167.732 88.0218 167.728 87.9994C167.682 87.697 167.635 87.3601 167.59 86.9887C167.546 86.6285 167.487 86.2076 167.412 85.726C167.352 85.3339 167.288 84.954 167.22 84.586C167.151 84.2181 167.096 83.8941 167.053 83.6141ZM168.15 90.7381C168.145 90.7045 168.176 90.6825 168.243 90.6722C168.31 90.6618 168.346 90.6735 168.352 90.7071C168.415 91.1215 168.491 91.4252 168.578 91.6182C168.665 91.8112 168.798 91.9284 168.976 91.9697C169.154 92.0111 169.406 92.0067 169.731 91.9567L177.476 90.7638C177.801 90.7137 178.043 90.6422 178.2 90.5491C178.358 90.456 178.455 90.3035 178.491 90.0915C178.527 89.8795 178.513 89.5663 178.449 89.1519C178.444 89.1183 178.475 89.0963 178.543 89.0859C178.61 89.0756 178.646 89.0872 178.651 89.1208C178.694 89.4009 178.732 89.7218 178.765 90.0837C178.811 90.4551 178.871 90.8816 178.945 91.3632C179.005 91.7553 179.07 92.1409 179.14 92.52C179.221 92.8974 179.283 93.2261 179.326 93.5061C179.332 93.5397 179.301 93.5617 179.233 93.5721C179.166 93.5824 179.13 93.5708 179.125 93.5372C179.066 93.1563 178.988 92.8703 178.889 92.679C178.804 92.4972 178.672 92.3856 178.494 92.3443C178.327 92.3013 178.081 92.3047 177.756 92.3548L169.977 93.5529C169.652 93.6029 169.411 93.6744 169.253 93.7675C169.095 93.8606 169.003 94.0067 168.976 94.2057C168.951 94.416 168.968 94.7115 169.027 95.0924C169.032 95.126 169.001 95.1479 168.934 95.1583C168.867 95.1686 168.83 95.157 168.825 95.1234C168.782 94.8434 168.737 94.5121 168.689 94.1295C168.642 93.7469 168.588 93.3596 168.528 92.9676C168.453 92.4859 168.382 92.0612 168.314 91.6932C168.248 91.3365 168.193 91.0182 168.15 90.7381Z" fill="#7382B1"/>
<path d="M168.802 102.985L168.792 95.6069C168.792 95.5729 168.826 95.5558 168.894 95.5557C168.962 95.5556 168.996 95.5726 168.996 95.6066C168.996 95.9806 169.025 96.2582 169.082 96.4395C169.139 96.6207 169.252 96.7396 169.422 96.796C169.592 96.8638 169.842 96.8975 170.17 96.897L178.041 96.8864C178.37 96.8859 178.614 96.8516 178.772 96.7834C178.942 96.7265 179.055 96.6074 179.112 96.4259C179.18 96.2445 179.213 95.9668 179.213 95.5928C179.213 95.5588 179.247 95.5418 179.315 95.5417C179.383 95.5416 179.417 95.5585 179.417 95.5925L179.426 102.665C179.426 102.778 179.375 102.835 179.273 102.835L177.064 102.872C177.041 102.872 177.024 102.843 177.012 102.787C177.012 102.73 177.029 102.69 177.063 102.668C177.709 102.542 178.19 102.281 178.507 101.884C178.824 101.487 178.982 100.965 178.981 100.319L178.98 99.6221C178.98 99.3388 178.945 99.1122 178.877 98.9423C178.82 98.7837 178.718 98.6705 178.571 98.6027C178.435 98.5349 178.248 98.5011 178.01 98.5014L170.241 98.5119C170.003 98.5122 169.804 98.5408 169.646 98.5977C169.499 98.6659 169.391 98.7681 169.323 98.9042C169.267 99.0402 169.239 99.2329 169.239 99.4823L169.24 100.315C169.241 101.086 169.423 101.709 169.787 102.185C170.161 102.66 170.711 102.999 171.437 103.202C171.471 103.214 171.482 103.248 171.471 103.304C171.46 103.372 171.443 103.406 171.42 103.406C171.103 103.361 170.723 103.322 170.281 103.289C169.839 103.255 169.431 103.239 169.057 103.24C168.887 103.24 168.802 103.155 168.802 102.985ZM172.642 102.028C173.118 102.027 173.481 101.868 173.73 101.55C173.979 101.233 174.103 100.756 174.102 100.122L174.099 97.7417L174.541 97.7411L174.544 100.138C174.545 100.773 174.653 101.243 174.869 101.549C175.085 101.854 175.396 102.007 175.804 102.006C175.838 102.006 175.855 102.035 175.855 102.091C175.856 102.159 175.839 102.193 175.805 102.193C175.442 102.194 175.159 102.189 174.955 102.178C174.751 102.178 174.541 102.178 174.326 102.178C174.054 102.179 173.782 102.185 173.51 102.197C173.249 102.22 172.96 102.231 172.643 102.232C172.62 102.232 172.609 102.198 172.609 102.13C172.608 102.062 172.62 102.028 172.642 102.028Z" fill="#7382B1"/>
<path d="M135.858 104.335L131.224 100.891L130.558 106.626L135.858 104.335ZM63.9425 96.4965L131.33 104.313L131.445 103.32L64.0577 95.5032L63.9425 96.4965Z" fill="#7382B1"/>
</svg>
