<svg width="42" height="42" viewBox="0 0 42 42" fill="none" xmlns="http://www.w3.org/2000/svg">
<path d="M5.40643 3.02331e-05C0 3.02331e-05 0 4.67491 0 4.67491V37.0755C0 42 5.40643 42 5.40643 42H37.4405C37.4405 42 41.6752 42 42 37.0755V4.67495C42 3.16138e-05 37.4405 0 37.4405 0L5.40643 3.02331e-05ZM5.40643 2.07887H37.4405C39.7322 2.07887 39.7322 4.67491 39.7322 4.67491V37.0755C39.7322 40.0909 37.4405 40.0909 37.4405 40.0909H5.40643C5.40643 40.0909 1.90909 40.4204 1.90909 37.0755V4.67491C1.90909 4.67491 1.90909 2.07887 5.40643 2.07887ZM32.4545 7.6364C31.9482 7.6364 31.4626 7.83754 31.1046 8.19556C30.7466 8.55359 30.5455 9.03917 30.5455 9.54549C30.5455 10.0518 30.7466 10.5374 31.1046 10.8954C31.4626 11.2534 31.9482 11.4546 32.4545 11.4546C32.9609 11.4546 33.4465 11.2534 33.8045 10.8954C34.1625 10.5374 34.3636 10.0518 34.3636 9.54549C34.3636 9.03917 34.1625 8.55359 33.8045 8.19556C33.4465 7.83754 32.9609 7.6364 32.4545 7.6364ZM21 10.5C15.2123 10.5 10.5 15.2123 10.5 21C10.5 26.7877 15.2123 31.5 21 31.5C26.7877 31.5 31.5 26.7877 31.5 21C31.5 15.2123 26.7877 10.5 21 10.5ZM21 12.4091C25.7559 12.4091 29.5909 16.2441 29.5909 21C29.5909 25.756 25.7559 29.5909 21 29.5909C16.2441 29.5909 12.4091 25.756 12.4091 21C12.4091 16.2441 16.2441 12.4091 21 12.4091Z" fill="#7382B1"/>
</svg>
