<svg width="42" height="42" viewBox="0 0 42 42" fill="none" xmlns="http://www.w3.org/2000/svg">
<path d="M5 0C2.24958 0 0 2.24958 0 5V37C0 39.7504 2.24958 42 5 42H37C39.7504 42 42 39.7504 42 37V5C42 2.24958 39.7504 0 37 0H5ZM5 2H37C38.6716 2 40 3.32842 40 5V37C40 38.6716 38.6716 40 37 40H5C3.32842 40 2 38.6716 2 37V5C2 3.32842 3.32842 2 5 2ZM22.043 6C21.7781 6.00003 21.5241 6.10512 21.3366 6.29223C21.1491 6.47934 21.0435 6.73318 21.043 6.99805C21.043 6.99805 21.032 11.8733 21.0215 16.7598C21.0162 19.203 21.0098 21.6488 21.0059 23.4902C21.0019 25.3317 21 26.4968 21 26.5938C21 28.409 19.3514 29.8926 17.4727 29.8926C15.6089 29.8926 14.1211 28.4029 14.1211 26.5391C14.1211 24.6753 15.6089 23.1875 17.4727 23.1875C17.5358 23.1875 17.6631 23.2082 17.8809 23.2344C18.0213 23.2512 18.1638 23.2381 18.2988 23.1958C18.4338 23.1535 18.5583 23.083 18.6641 22.9891C18.7699 22.8951 18.8545 22.7798 18.9124 22.6507C18.9703 22.5216 19.0002 22.3817 19 22.2402V18.0391C19 17.7847 18.903 17.5399 18.7288 17.3544C18.5547 17.169 18.3164 17.0569 18.0625 17.041C17.9067 17.0312 17.7106 17.0117 17.4727 17.0117C12.2231 17.0117 7.94531 21.2895 7.94531 26.5391C7.94531 31.7886 12.2231 36.0664 17.4727 36.0664C22.722 36.0664 27 31.7886 27 26.5391V17.4902C28.4546 18.6536 30.2675 19.3906 32.2695 19.3906C32.5426 19.3906 32.8023 19.3744 33.0508 19.3516C33.2991 19.3286 33.5299 19.2138 33.6979 19.0295C33.8659 18.8452 33.959 18.6048 33.959 18.3555V13.6855C33.9591 13.4327 33.8635 13.1892 33.6914 13.0041C33.5193 12.8189 33.2834 12.7058 33.0312 12.6875C29.8866 12.4619 27.3798 10.0122 27.0527 6.89648C27.0271 6.65061 26.9114 6.42294 26.7278 6.25739C26.5442 6.09184 26.3058 6.00014 26.0586 6H22.043ZM23.041 8H25.3223C26.049 11.2987 28.6267 13.8144 31.959 14.4453V17.3105C29.8201 17.2019 27.9415 16.1349 26.8359 14.4531C26.7177 14.2731 26.5445 14.1361 26.3421 14.0625C26.1397 13.9888 25.919 13.9825 25.7127 14.0444C25.5064 14.1062 25.3257 14.2331 25.1972 14.4059C25.0688 14.5788 24.9997 14.7885 25 15.0039V26.5391C25 30.7075 21.6413 34.0664 17.4727 34.0664C13.3042 34.0664 9.94531 30.7075 9.94531 26.5391C9.94531 22.5385 13.0661 19.3632 17 19.1074V21.2832C14.2864 21.5357 12.1211 23.7622 12.1211 26.5391C12.1211 29.4833 14.5284 31.8926 17.4727 31.8926C20.4019 31.8926 23 29.5865 23 26.5938C23 26.6427 23.0019 25.3356 23.0059 23.4941C23.0098 21.6527 23.0162 19.2069 23.0215 16.7637C23.0309 12.3768 23.0392 8.84921 23.041 8Z" fill="#7382B1"/>
</svg>
