<svg width="42" height="42" viewBox="0 0 42 42" fill="none" xmlns="http://www.w3.org/2000/svg">
<path d="M5 0C2.25048 0 0 2.25048 0 5V37C0 39.7495 2.25048 42 5 42H37C39.7495 42 42 39.7495 42 37V5C42 2.25048 39.7495 0 37 0H5ZM5 2H37C38.6685 2 40 3.33152 40 5V37C40 38.6685 38.6685 40 37 40H5C3.33152 40 2 38.6685 2 37V5C2 3.33152 3.33152 2 5 2ZM19.3965 11.9922C18.339 11.9898 17.3961 12.0489 16.5527 12.4629L16.5508 12.4648C16.1396 12.6674 15.8499 12.9247 15.6191 13.2305C15.5038 13.3834 15.3856 13.5206 15.3223 13.8691C15.2906 14.0434 15.2728 14.3258 15.4551 14.6309C15.6373 14.9359 16.0038 15.1094 16.2383 15.1406C16.4012 15.1623 16.7688 15.3188 16.8027 15.3652L16.8047 15.3691C16.8047 15.3691 16.9473 15.7411 16.9883 16.0723C17.0293 16.4034 17.0273 16.6719 17.0273 16.6719C17.0269 16.6986 17.0276 16.7253 17.0293 16.752C17.0293 16.752 17.0872 17.6195 17.0488 18.5156C17.0335 18.8728 16.9873 19.1905 16.9395 19.4746C16.5833 19.0814 16.0586 18.3695 15.3008 17.0566C14.4601 15.5994 13.791 14.293 13.791 14.293C13.7559 14.1791 13.6316 13.825 13.1465 13.4688C12.6162 13.0779 12.1035 13.0195 12.1035 13.0195C12.0392 13.0066 11.9738 13.0001 11.9082 13L7.9668 13.002C7.9668 13.002 7.73048 12.9883 7.44727 13.0273C7.16405 13.0664 6.73759 13.0982 6.32617 13.5859L6.32422 13.5879C5.95653 14.0272 5.97877 14.5128 6.02344 14.7871C6.0681 15.0614 6.16797 15.2695 6.16797 15.2695C6.1699 15.2734 6.17185 15.2774 6.17383 15.2812C6.17383 15.2812 9.39772 22.0595 13.041 26.0508C15.6867 28.9488 18.4022 28.998 20.6426 28.998H22.3145C22.7413 28.998 23.1274 28.9814 23.5547 28.7324C23.982 28.4835 24.2695 27.8774 24.2695 27.457C24.2695 27.0165 24.3353 26.6702 24.416 26.4922C24.4728 26.367 24.5177 26.3219 24.5879 26.2852C24.6027 26.2946 24.5931 26.2891 24.6348 26.3184C24.8012 26.4354 25.0761 26.7023 25.375 27.0352C25.9728 27.7009 26.6513 28.614 27.5625 29.2402C28.2153 29.6892 28.832 29.8886 29.3008 29.9609C29.5945 30.0063 29.8226 29.9975 29.9844 29.9844L33.7188 30C33.7409 30.0001 33.7631 29.9994 33.7852 29.998C33.7852 29.998 34.4286 30.0055 35.0977 29.6055C35.4322 29.4054 35.8267 29.0261 35.9551 28.4727C36.0834 27.9192 35.9221 27.3457 35.6074 26.8223V26.8203C35.6621 26.9109 35.5579 26.7247 35.4512 26.5508C35.3444 26.3768 35.1894 26.1424 34.9668 25.8516C34.5217 25.2699 33.8087 24.4559 32.6562 23.3828H32.6543C32.069 22.8382 31.6737 22.4527 31.5117 22.2383C31.3497 22.0239 31.4029 22.1365 31.4141 22.082C31.4365 21.9731 32.139 20.9597 33.5684 19.0508C34.4372 17.8889 35.047 17.0166 35.4492 16.291C35.8514 15.5655 36.1414 14.9371 35.9395 14.168L35.9375 14.1641C35.8479 13.8264 35.603 13.5152 35.3516 13.3457C35.1001 13.1762 34.8617 13.1099 34.6484 13.0684C34.2218 12.9854 33.8496 13 33.5039 13C32.7791 13 29.5635 13.0254 29.2988 13.0254C28.9861 13.0254 28.469 13.1676 28.2402 13.3047C27.6651 13.6508 27.5 14.1055 27.5 14.1055C27.4896 14.1247 27.4798 14.1442 27.4707 14.1641C27.4707 14.1641 26.8074 15.635 25.9531 17.0879C25.0877 18.5616 24.4484 19.2645 24.0625 19.5898C24.0519 19.532 24.0537 19.579 24.0469 19.498C24.0123 19.0865 24.0508 18.5178 24.0508 17.9629C24.0508 16.4684 24.1775 15.4224 24.1094 14.498C24.0753 14.0359 23.9897 13.5593 23.6855 13.1211C23.3814 12.6829 22.8752 12.3982 22.375 12.2773C22.0748 12.2049 21.7327 12.0166 20.4941 12.0039H20.4922C20.1134 12.0001 19.749 11.993 19.3965 11.9922ZM20.4727 14.0039C21.5686 14.0152 21.2956 14.0755 21.9043 14.2227C22.0931 14.2683 22.0473 14.268 22.043 14.2617C22.0386 14.2554 22.094 14.3585 22.1152 14.6465C22.1577 15.2224 22.0508 16.3674 22.0508 17.9629C22.0508 18.398 21.9983 19.0188 22.0527 19.666C22.1071 20.3132 22.2677 21.1438 23.041 21.6445C23.4076 21.8822 23.8333 21.8971 24.1973 21.8066C24.5613 21.7161 24.8915 21.5277 25.2383 21.25C25.9318 20.6947 26.7054 19.7575 27.6777 18.1016C28.5865 16.5559 29.2476 15.084 29.2695 15.0352C29.2738 15.0317 29.2782 15.0293 29.2832 15.0254C29.2957 15.0255 29.2828 15.0254 29.2988 15.0254C29.6722 15.0254 32.8287 15 33.5039 15C33.6615 15 33.7189 15.0095 33.8438 15.0137C33.8098 15.1269 33.8475 15.0547 33.6992 15.3223C33.3881 15.8835 32.8149 16.7175 31.9668 17.8516C30.5732 19.7127 29.7094 20.442 29.4551 21.6777C29.3279 22.2956 29.5662 22.9805 29.916 23.4434C30.2658 23.9062 30.7073 24.3027 31.293 24.8477C32.3775 25.8576 33.0138 26.5913 33.3789 27.0684C33.5615 27.3069 33.6765 27.4792 33.748 27.5957C33.8196 27.7122 33.8019 27.6999 33.8945 27.8535C33.9555 27.9557 33.933 27.8933 33.9434 27.9238C33.8235 27.9576 33.6782 27.9983 33.6699 28L29.9922 27.9844C29.9259 27.9843 29.8599 27.9909 29.7949 28.0039C29.7949 28.0039 29.8041 28.0147 29.6074 27.9844C29.4107 27.954 29.0978 27.8689 28.6953 27.5918C28.2096 27.258 27.5295 26.4412 26.8633 25.6992C26.5302 25.3282 26.1979 24.9719 25.7852 24.6816C25.3724 24.3914 24.7547 24.1184 24.0879 24.3281C23.3957 24.5455 22.8568 25.0857 22.5938 25.666C22.3979 26.098 22.382 26.5492 22.3516 26.998C22.3184 27.0005 22.3566 26.998 22.3145 26.998H20.6426C18.3709 26.998 16.7579 27.1552 14.5176 24.7012C11.5041 21.3998 8.74312 15.907 8.29297 15.002L11.7617 15C11.8227 15.0234 11.9532 15.0724 11.9609 15.0781L11.9648 15.082C11.838 14.9894 11.9707 15.1191 11.9707 15.1191C11.9829 15.1491 11.9966 15.1784 12.0117 15.207C12.0117 15.207 12.699 16.5498 13.5684 18.0566C14.4211 19.5338 15.0425 20.4566 15.6426 21.0664C15.9426 21.3713 16.2455 21.6158 16.6504 21.7539C17.0552 21.892 17.578 21.8413 17.9297 21.6484C18.6481 21.2552 18.7446 20.6751 18.8613 20.168C18.9782 19.6601 19.0247 19.1191 19.0469 18.6016C19.0899 17.597 19.029 16.7275 19.0254 16.6738C19.0256 16.655 19.0302 16.2924 18.9727 15.8281C18.9138 15.3527 18.8481 14.7714 18.418 14.1855L18.416 14.1836C18.413 14.1795 18.4093 14.1798 18.4062 14.1758C18.975 14.0942 19.4617 13.9938 20.4727 14.0039ZM29.2949 14.9844L29.2812 15.0156C29.2791 15.0168 29.2798 15.0142 29.2773 15.0156C29.2816 15.0076 29.2949 14.9844 29.2949 14.9844Z" fill="#7382B1"/>
</svg>
